<svg width="34" height="28" viewBox="0 0 34 28" fill="none" xmlns="http://www.w3.org/2000/svg">
<path d="M27.3201 26.3087V21.3087H22.3201V19.642H27.3201V14.642H28.9868V19.642H33.9868V21.3087H28.9868V26.3087H27.3201ZM2.7051 27.3337C1.93843 27.3337 1.29788 27.077 0.783431 26.5637C0.268987 26.0503 0.0123202 25.4098 0.0134313 24.642V3.35866C0.0134313 2.59199 0.270098 1.95199 0.783431 1.43866C1.29676 0.925325 1.93732 0.668103 2.7051 0.666992H23.9884C24.7551 0.666992 25.3951 0.924214 25.9084 1.43866C26.4218 1.9531 26.679 2.59366 26.6801 3.36033V10.667H25.0134V6.30866H1.6801V24.642C1.6801 24.9409 1.77621 25.1864 1.96843 25.3787C2.16065 25.5709 2.40621 25.667 2.7051 25.667H23.3468V27.3337H2.7051ZM1.6801 4.64199H25.0134V3.35866C25.0134 3.05977 24.9168 2.81421 24.7234 2.62199C24.5323 2.42977 24.2868 2.33366 23.9868 2.33366H2.7051C2.4051 2.33366 2.15954 2.42977 1.96843 2.62199C1.77621 2.81421 1.6801 3.06033 1.6801 3.36033V4.64199Z" fill="#838CAC"/>
</svg>
