<svg width="32" height="32" viewBox="0 0 32 32" fill="none" xmlns="http://www.w3.org/2000/svg">
<g clip-path="url(#clip0_3422_3354)">
<path d="M6.85735 16.0002V9.98876C6.87521 8.80712 7.12604 7.64061 7.5955 6.55608C8.06495 5.47155 8.74379 4.49031 9.59312 3.66858C10.4425 2.84685 11.4456 2.20079 12.545 1.76741C13.6445 1.33404 14.8186 1.12186 16.0002 1.14305C17.1818 1.12186 18.356 1.33404 19.4554 1.76741C20.5548 2.20079 21.558 2.84685 22.4073 3.66858C23.2566 4.49031 23.9355 5.47155 24.4049 6.55608C24.8744 7.64061 25.1252 8.80712 25.1431 9.98876V16.0002M20.5716 28.0002C21.7841 28.0002 22.9468 27.5186 23.8041 26.6612C24.6614 25.8039 25.1431 24.6412 25.1431 23.4288V18.2859M20.5716 28.0002C20.5716 28.758 20.2706 29.4847 19.7348 30.0205C19.199 30.5563 18.4723 30.8573 17.7145 30.8573H14.2859C13.5282 30.8573 12.8014 30.5563 12.2656 30.0205C11.7298 29.4847 11.4288 28.758 11.4288 28.0002C11.4288 27.2424 11.7298 26.5157 12.2656 25.9799C12.8014 25.4441 13.5282 25.143 14.2859 25.143H17.7145C18.4723 25.143 19.199 25.4441 19.7348 25.9799C20.2706 26.5157 20.5716 27.2424 20.5716 28.0002ZM3.42878 12.5716H5.7145C6.0176 12.5716 6.30829 12.692 6.52262 12.9064C6.73694 13.1207 6.85735 13.4114 6.85735 13.7145V20.5716C6.85735 20.8747 6.73694 21.1654 6.52262 21.3797C6.30829 21.5941 6.0176 21.7145 5.7145 21.7145H3.42878C2.82257 21.7145 2.24119 21.4737 1.81254 21.045C1.38388 20.6163 1.14307 20.035 1.14307 19.4288V14.8573C1.14307 14.2511 1.38388 13.6697 1.81254 13.2411C2.24119 12.8124 2.82257 12.5716 3.42878 12.5716ZM28.5716 21.7145H26.2859C25.9828 21.7145 25.6921 21.5941 25.4778 21.3797C25.2635 21.1654 25.1431 20.8747 25.1431 20.5716V13.7145C25.1431 13.4114 25.2635 13.1207 25.4778 12.9064C25.6921 12.692 25.9828 12.5716 26.2859 12.5716H28.5716C29.1779 12.5716 29.7592 12.8124 30.1879 13.2411C30.6165 13.6697 30.8574 14.2511 30.8574 14.8573V19.4288C30.8574 20.035 30.6165 20.6163 30.1879 21.045C29.7592 21.4737 29.1779 21.7145 28.5716 21.7145Z" stroke="black" stroke-linecap="round" stroke-linejoin="round"/>
</g>
<defs>
<clipPath id="clip0_3422_3354">
<rect width="32" height="32" fill="white"/>
</clipPath>
</defs>
</svg>
