<svg width="25" height="24" viewBox="0 0 25 24" fill="none" xmlns="http://www.w3.org/2000/svg">
<g clip-path="url(#clip0_1728_333)">
<path d="M18.0295 14.6064C18.0295 15.6144 18.3163 16.0164 19.0663 16.0164C20.7379 16.0164 21.8023 13.8864 21.8023 10.344C21.8023 4.92956 17.8567 2.33756 12.9307 2.33756C7.86314 2.33756 3.25394 5.73596 3.25394 12.1584C3.25394 18.2928 7.28594 21.6336 13.4779 21.6336C15.5803 21.6336 16.9915 21.4032 19.1503 20.6832L19.6135 22.6116C17.4823 23.304 15.2047 23.5044 13.4491 23.5044C5.32754 23.5044 0.977539 19.0404 0.977539 12.1572C0.977539 5.21636 6.01874 0.493164 12.9595 0.493164C20.1883 0.493164 24.0175 4.81316 24.0175 10.1124C24.0175 14.6052 22.6075 18.0324 18.1723 18.0324C16.1551 18.0324 14.8315 17.226 14.6587 15.4392C14.1403 17.4264 12.7579 18.0324 10.8847 18.0324C8.37914 18.0324 6.27674 16.1016 6.27674 12.2148C6.27674 8.29796 8.12114 5.87876 11.4331 5.87876C13.1899 5.87876 14.2843 6.56996 14.7715 7.66436L15.6079 6.13796H18.0271V14.6064H18.0295ZM14.4883 10.8048C14.4883 9.22196 13.3063 8.55836 12.3271 8.55836C11.2615 8.55836 10.0819 9.42116 10.0819 11.9568C10.0819 13.9728 10.9747 15.096 12.3271 15.096C13.2775 15.096 14.4883 14.4912 14.4883 12.8208V10.8048Z" fill="#633FCA"/>
</g>
<defs>
<clipPath id="clip0_1728_333">
<rect width="24" height="24" fill="white" transform="translate(0.5)"/>
</clipPath>
</defs>
</svg>
