<svg width="25" height="24" viewBox="0 0 25 24" fill="none" xmlns="http://www.w3.org/2000/svg">
<g clip-path="url(#clip0_3136_2455)">
<path d="M8.86104 0.788944C6.46307 1.62082 4.39506 3.19976 2.96077 5.29382C1.52649 7.38789 0.801526 9.88671 0.892371 12.4233C0.983217 14.9598 1.88508 17.4004 3.4655 19.3864C5.04591 21.3725 7.22158 22.7995 9.67292 23.4577C11.6603 23.9705 13.7424 23.993 15.7404 23.5233C17.5504 23.1168 19.2238 22.2471 20.5967 20.9996C22.0256 19.6615 23.0627 17.9592 23.5967 16.0758C24.177 14.0277 24.2803 11.8738 23.8985 9.77957H12.7385V14.4089H19.2017C19.0725 15.1473 18.7957 15.852 18.3878 16.4809C17.98 17.1098 17.4494 17.6499 16.8279 18.0689C16.0387 18.591 15.149 18.9423 14.216 19.1002C13.2803 19.2742 12.3205 19.2742 11.3848 19.1002C10.4364 18.9041 9.53923 18.5127 8.75042 17.9508C7.4832 17.0538 6.53168 15.7794 6.03167 14.3096C5.52319 12.8122 5.52319 11.1888 6.03167 9.69144C6.38759 8.64185 6.97598 7.6862 7.75292 6.89582C8.64203 5.97472 9.76766 5.31631 11.0063 4.99284C12.245 4.66936 13.5488 4.69331 14.7748 5.06207C15.7325 5.35605 16.6083 5.8697 17.3323 6.56207C18.061 5.83707 18.7885 5.11019 19.5148 4.38144C19.8898 3.98957 20.2985 3.61644 20.6679 3.21519C19.5627 2.18671 18.2654 1.38643 16.8504 0.860194C14.2736 -0.0754498 11.4541 -0.100594 8.86104 0.788944Z" fill="white"/>
<path d="M8.8607 0.789855C11.4536 -0.100288 14.2731 -0.0758051 16.8501 0.85923C18.2654 1.38904 19.562 2.19318 20.6657 3.22548C20.2907 3.62673 19.8951 4.00173 19.5126 4.39173C18.7851 5.11798 18.0582 5.84173 17.332 6.56298C16.6079 5.87061 15.7321 5.35696 14.7745 5.06298C13.5489 4.69293 12.2451 4.66759 11.0061 4.98975C9.76712 5.3119 8.64079 5.9691 7.7507 6.88923C6.97377 7.67961 6.38538 8.63526 6.02945 9.68486L2.14258 6.67548C3.53384 3.91653 5.94273 1.80615 8.8607 0.789855Z" fill="#E33629"/>
<path d="M1.1114 9.65605C1.32032 8.62067 1.66716 7.61798 2.14265 6.6748L6.02953 9.69168C5.52105 11.1891 5.52105 12.8124 6.02953 14.3098C4.73453 15.3098 3.4389 16.3148 2.14265 17.3248C0.952308 14.9554 0.589275 12.2557 1.1114 9.65605Z" fill="#F8BD00"/>
<path d="M12.7381 9.77832H23.8981C24.2799 11.8726 24.1766 14.0264 23.5963 16.0746C23.0623 17.958 22.0252 19.6602 20.5963 20.9983C19.3419 20.0196 18.0819 19.0483 16.8275 18.0696C17.4494 17.6501 17.9802 17.1094 18.3881 16.4798C18.796 15.8503 19.0726 15.1448 19.2013 14.4058H12.7381C12.7363 12.8646 12.7381 11.3214 12.7381 9.77832Z" fill="#587DBD"/>
<path d="M2.14062 17.3246C3.43687 16.3246 4.7325 15.3196 6.0275 14.3096C6.52851 15.7799 7.48138 17.0544 8.75 17.9508C9.54126 18.5101 10.4404 18.8983 11.39 19.0908C12.3257 19.2648 13.2855 19.2648 14.2212 19.0908C15.1542 18.9329 16.0439 18.5816 16.8331 18.0596C18.0875 19.0383 19.3475 20.0096 20.6019 20.9883C19.2292 22.2366 17.5558 23.1068 15.7456 23.5139C13.7476 23.9836 11.6655 23.9611 9.67812 23.4483C8.10632 23.0286 6.63814 22.2888 5.36562 21.2752C4.01874 20.2059 2.91867 18.8583 2.14062 17.3246Z" fill="#319F43"/>
</g>
<defs>
<clipPath id="clip0_3136_2455">
<rect width="24" height="24" fill="white" transform="translate(0.5)"/>
</clipPath>
</defs>
</svg>
