<svg width="22" height="30" viewBox="0 0 22 30" fill="none" xmlns="http://www.w3.org/2000/svg">
<path fill-rule="evenodd" clip-rule="evenodd" d="M0.885177 22.812C1.11419 22.6787 1.38675 22.6418 1.643 22.7093C1.89925 22.7768 2.11823 22.9432 2.25184 23.172C3.35451 25.0627 5.03984 26.492 7.11851 27.42C7.23845 27.4735 7.34668 27.5501 7.43702 27.6454C7.52736 27.7408 7.59804 27.8529 7.64503 27.9756C7.69202 28.0982 7.71439 28.2289 7.71087 28.3602C7.70735 28.4915 7.678 28.6208 7.62451 28.7407C7.57102 28.8606 7.49443 28.9689 7.39911 29.0592C7.30379 29.1496 7.19161 29.2202 7.06897 29.2672C6.94634 29.3142 6.81565 29.3366 6.68437 29.3331C6.55309 29.3295 6.42378 29.3002 6.30384 29.2467C3.88784 28.168 1.86251 26.4734 0.525177 24.18C0.458957 24.0666 0.415739 23.9412 0.397993 23.811C0.380247 23.6809 0.388321 23.5485 0.421753 23.4215C0.455184 23.2944 0.513319 23.1752 0.592835 23.0706C0.672351 22.9661 0.77169 22.8782 0.885177 22.812ZM20.2078 4.22937C18.8558 2.84804 16.9278 2.34004 15.0398 2.87604C14.7881 2.93857 14.5219 2.90082 14.2974 2.77076C14.073 2.64071 13.9079 2.42852 13.8369 2.17901C13.766 1.9295 13.7948 1.66218 13.9172 1.43349C14.0397 1.20481 14.2462 1.03265 14.4932 0.953371C17.0772 0.217371 19.7665 0.920038 21.6372 2.8307C21.8185 3.02106 21.9175 3.27514 21.9129 3.53796C21.9082 3.80079 21.8003 4.05122 21.6124 4.23506C21.4245 4.41891 21.1718 4.52139 20.909 4.52032C20.6461 4.51926 20.3942 4.41473 20.2078 4.22937ZM9.91984 3.41071C9.63451 2.92137 8.80251 2.62404 7.95851 3.10804C7.11584 3.58804 6.96784 4.43737 7.24918 4.91737L10.6158 10.6934C10.7454 10.9223 10.7795 11.193 10.7108 11.4469C10.6421 11.7008 10.4761 11.9175 10.2489 12.0499C10.0216 12.1823 9.7513 12.2198 9.49655 12.1543C9.2418 12.0888 9.02311 11.9256 8.88784 11.7L4.39984 4.00004C4.11451 3.5107 3.28251 3.21337 2.43718 3.69737C1.59584 4.17737 1.44784 5.02671 1.72784 5.50671L6.77984 14.1694C6.84603 14.2828 6.88922 14.4082 6.90695 14.5384C6.92468 14.6685 6.9166 14.8009 6.88317 14.9279C6.84974 15.055 6.79161 15.1742 6.71212 15.2787C6.63262 15.3833 6.53331 15.4712 6.41984 15.5374C6.30638 15.6036 6.18099 15.6467 6.05084 15.6645C5.92069 15.6822 5.78832 15.6741 5.66129 15.6407C5.53426 15.6073 5.41505 15.5491 5.31048 15.4696C5.20592 15.3901 5.11803 15.2908 5.05184 15.1774L2.80518 11.3267C2.51984 10.8374 1.68784 10.54 0.843844 11.024C0.00117699 11.504 -0.146823 12.352 0.134511 12.8334L5.18518 21.496C7.33051 25.1747 12.6252 26.368 17.1132 23.8027C21.6012 21.2374 23.1945 16.1174 21.0545 12.4467L17.6865 6.67204C17.4012 6.18271 16.5692 5.88537 15.7252 6.36804C14.8825 6.84937 14.7345 7.69737 15.0158 8.1787L17.2598 12.028C17.3266 12.1421 17.3701 12.2683 17.3878 12.3993C17.4055 12.5303 17.3971 12.6635 17.363 12.7912C17.3289 12.9189 17.2698 13.0386 17.1892 13.1433C17.1085 13.2481 17.0079 13.3358 16.8932 13.4014C14.8358 14.5747 14.2052 16.848 15.1065 18.392C15.1727 18.5055 15.2159 18.6309 15.2336 18.761C15.2513 18.8912 15.2433 19.0236 15.2098 19.1506C15.1764 19.2776 15.1183 19.3968 15.0388 19.5014C14.9593 19.606 14.86 19.6939 14.7465 19.76C14.633 19.8262 14.5077 19.8694 14.3775 19.8871C14.2474 19.9049 14.115 19.8968 13.988 19.8634C13.8609 19.8299 13.7417 19.7718 13.6372 19.6923C13.5326 19.6128 13.4447 19.5135 13.3785 19.4C12.1612 17.3134 12.6532 14.8 14.2252 13.024C14.6652 12.528 14.8145 11.8054 14.4812 11.232L9.91984 3.41071Z" fill="#F59E0B"/>
</svg>
