<svg width="25" height="24" viewBox="0 0 25 24" fill="none" xmlns="http://www.w3.org/2000/svg">
<path d="M23 19.5002H21.5V12.7502L21.7194 12.9696C21.8604 13.1103 22.0515 13.1893 22.2507 13.1891C22.4499 13.189 22.6408 13.1097 22.7816 12.9687C22.9223 12.8277 23.0013 12.6366 23.0011 12.4374C23.0009 12.2382 22.9216 12.0472 22.7806 11.9065L13.5603 2.68899C13.279 2.4079 12.8977 2.25 12.5 2.25C12.1023 2.25 11.721 2.4079 11.4397 2.68899L2.21938 11.9065C2.07877 12.0472 1.99983 12.238 1.99991 12.437C2 12.6359 2.07911 12.8267 2.21984 12.9673C2.36057 13.1079 2.5514 13.1868 2.75033 13.1867C2.94927 13.1866 3.14002 13.1075 3.28062 12.9668L3.5 12.7502V19.5002H2C1.80109 19.5002 1.61032 19.5793 1.46967 19.7199C1.32902 19.8606 1.25 20.0513 1.25 20.2502C1.25 20.4492 1.32902 20.6399 1.46967 20.7806C1.61032 20.9212 1.80109 21.0002 2 21.0002H23C23.1989 21.0002 23.3897 20.9212 23.5303 20.7806C23.671 20.6399 23.75 20.4492 23.75 20.2502C23.75 20.0513 23.671 19.8606 23.5303 19.7199C23.3897 19.5793 23.1989 19.5002 23 19.5002ZM5 11.2502L12.5 3.75024L20 11.2502V19.5002H15.5V14.2502C15.5 14.0513 15.421 13.8606 15.2803 13.7199C15.1397 13.5793 14.9489 13.5002 14.75 13.5002H10.25C10.0511 13.5002 9.86032 13.5793 9.71967 13.7199C9.57902 13.8606 9.5 14.0513 9.5 14.2502V19.5002H5V11.2502ZM14 19.5002H11V15.0002H14V19.5002Z" fill="#838CAC"/>
</svg>
