<svg width="12" height="12" viewBox="0 0 12 12" fill="none" xmlns="http://www.w3.org/2000/svg">
<path d="M3.6 8.872L6 6.472L8.4 8.872L8.872 8.4L6.472 6L8.872 3.6L8.4 3.128L6 5.528L3.6 3.128L3.128 3.6L5.528 6L3.128 8.4L3.6 8.872ZM6.002 12C5.17267 12 4.39267 11.8427 3.662 11.528C2.93178 11.2129 2.29644 10.7853 1.756 10.2453C1.21556 9.70533 0.787778 9.07067 0.472667 8.34133C0.157556 7.612 0 6.83222 0 6.002C0 5.17178 0.157556 4.39178 0.472667 3.662C0.787333 2.93178 1.21422 2.29644 1.75333 1.756C2.29244 1.21556 2.92733 0.787778 3.658 0.472667C4.38867 0.157556 5.16867 0 5.998 0C6.82733 0 7.60733 0.157556 8.338 0.472667C9.06822 0.787333 9.70356 1.21444 10.244 1.754C10.7844 2.29356 11.2122 2.92844 11.5273 3.65867C11.8424 4.38889 12 5.16867 12 5.998C12 6.82733 11.8427 7.60733 11.528 8.338C11.2133 9.06867 10.7858 9.704 10.2453 10.244C9.70489 10.784 9.07022 11.2118 8.34133 11.5273C7.61244 11.8429 6.83267 12.0004 6.002 12ZM6 11.3333C7.48889 11.3333 8.75 10.8167 9.78333 9.78333C10.8167 8.75 11.3333 7.48889 11.3333 6C11.3333 4.51111 10.8167 3.25 9.78333 2.21667C8.75 1.18333 7.48889 0.666667 6 0.666667C4.51111 0.666667 3.25 1.18333 2.21667 2.21667C1.18333 3.25 0.666667 4.51111 0.666667 6C0.666667 7.48889 1.18333 8.75 2.21667 9.78333C3.25 10.8167 4.51111 11.3333 6 11.3333Z" fill="#DB0505"/>
</svg>
