<svg width="22" height="31" viewBox="0 0 22 31" fill="none" xmlns="http://www.w3.org/2000/svg">
<path d="M20.1665 11.6663C20.1665 14.6663 18.7248 17.333 16.4932 19.0047L17.4932 20.338C18.8415 19.33 19.9359 18.0212 20.6894 16.5158C21.4428 15.0103 21.8345 13.3498 21.8332 11.6663H20.1665ZM10.9998 2.49967C13.431 2.49967 15.7626 3.46545 17.4817 5.18453C19.2007 6.90361 20.1665 9.23519 20.1665 11.6663H21.8332C21.8332 8.79316 20.6918 6.03766 18.6602 4.00602C16.6285 1.97437 13.873 0.833008 10.9998 0.833008V2.49967ZM1.83317 11.6663C1.83317 9.23519 2.79894 6.90361 4.51803 5.18453C6.23711 3.46545 8.56869 2.49967 10.9998 2.49967V0.833008C8.12666 0.833008 5.37116 1.97437 3.33952 4.00602C1.30787 6.03766 0.166507 8.79316 0.166507 11.6663H1.83317ZM5.50651 19.0047C4.36518 18.1519 3.43875 17.0444 2.80102 15.7704C2.16329 14.4964 1.83187 13.0911 1.83317 11.6663H0.166507C0.165208 13.3498 0.556865 15.0103 1.31031 16.5158C2.06375 18.0212 3.15819 19.33 4.50651 20.338L5.50651 19.0047ZM8.49484 27.9213C8.44393 25.4842 7.94038 23.0778 7.00984 20.8247L5.46984 21.4597C6.31984 23.5163 6.78317 25.7213 6.82984 27.9563L8.49484 27.9213ZM13.6082 27.763C12.7983 28.1679 11.9053 28.3786 10.9998 28.3786C10.0944 28.3786 9.20139 28.1679 8.39151 27.763L7.64651 29.2547C8.68772 29.7751 9.83579 30.0461 10.9998 30.0461C12.1639 30.0461 13.312 29.7751 14.3532 29.2547L13.6082 27.763ZM14.9915 20.8247C14.0602 23.0782 13.5561 25.4852 13.5048 27.923L15.1715 27.9563C15.2165 25.7213 15.6798 23.518 16.5298 21.4613L14.9915 20.8247ZM14.3532 29.2547C14.5947 29.1332 14.7984 28.9481 14.9423 28.7193C15.0863 28.4904 15.1649 28.2266 15.1698 27.9563L13.5032 27.923C13.5042 27.8893 13.5146 27.8565 13.5331 27.8282C13.5517 27.8 13.5776 27.7774 13.6082 27.763L14.3532 29.2547ZM6.82984 27.9563C6.83474 28.2266 6.9134 28.4904 7.05734 28.7193C7.20127 28.9481 7.405 29.1332 7.64651 29.2547L8.39151 27.763C8.42149 27.7775 8.44695 27.7999 8.46516 27.8278C8.48337 27.8557 8.49363 27.8881 8.49484 27.9213L6.82984 27.9563ZM4.50651 20.3397C5.03651 20.7363 5.15651 20.8347 5.20651 20.8997L6.52317 19.878C6.29817 19.588 5.93484 19.328 5.50651 19.0047L4.50651 20.3397ZM7.00984 20.8247C6.86484 20.4747 6.74317 20.163 6.52317 19.878L5.20651 20.8997C5.25984 20.9697 5.29651 21.0413 5.46984 21.4597L7.00984 20.8247ZM16.4932 19.0063C16.0648 19.3263 15.7015 19.5897 15.4765 19.878L16.7932 20.8997C16.8432 20.8347 16.9615 20.7363 17.4932 20.338L16.4932 19.0063ZM16.5298 21.4613C16.7032 21.043 16.7398 20.9697 16.7948 20.8997L15.4782 19.878C15.2565 20.163 15.1348 20.4747 14.9898 20.8247L16.5298 21.4613Z" fill="black"/>
<path d="M15.1663 22.5C12.4916 23.5702 9.50772 23.5702 6.83301 22.5" stroke="black"/>
<path d="M9.33317 18.3327V11.2493C9.33317 10.0993 8.39984 9.16602 7.24984 9.16602C6.09984 9.16602 5.1665 10.0993 5.1665 11.2493C5.1665 12.3993 6.09984 13.3327 7.24984 13.3327H14.7498C15.8998 13.3327 16.8332 12.3993 16.8332 11.2493C16.8332 10.0993 15.8998 9.16602 14.7498 9.16602C13.5998 9.16602 12.6665 10.0993 12.6665 11.2493V18.3327" stroke="black" stroke-linecap="round"/>
</svg>
