<svg width="32" height="32" viewBox="0 0 32 32" fill="none" xmlns="http://www.w3.org/2000/svg">
<g clip-path="url(#clip0_1733_514)">
<path d="M24.5 0H7.5C3.35786 0 0 3.35786 0 7.5V24.5C0 28.6421 3.35786 32 7.5 32H24.5C28.6421 32 32 28.6421 32 24.5V7.5C32 3.35786 28.6421 0 24.5 0Z" fill="white"/>
<path d="M24.5 0H7.5C3.35786 0 0 3.35786 0 7.5V24.5C0 28.6421 3.35786 32 7.5 32H24.5C28.6421 32 32 28.6421 32 24.5V7.5C32 3.35786 28.6421 0 24.5 0Z" fill="#0A66C2"/>
<path d="M23.0894 27.2106H26.7481C26.8807 27.2106 27.0079 27.158 27.1016 27.0642C27.1954 26.9705 27.2481 26.8433 27.2481 26.7108L27.25 18.9805C27.25 14.9401 26.3794 11.8345 21.6577 11.8345C19.8629 11.7678 18.1702 12.693 17.2569 14.238C17.2524 14.2455 17.2456 14.2513 17.2375 14.2546C17.2294 14.2579 17.2205 14.2584 17.2121 14.2562C17.2036 14.2539 17.1962 14.2489 17.1908 14.242C17.1855 14.2351 17.1826 14.2266 17.1825 14.2179V12.7075C17.1825 12.5749 17.1298 12.4477 17.0361 12.3539C16.9423 12.2602 16.8151 12.2075 16.6825 12.2075H13.2104C13.0778 12.2075 12.9506 12.2602 12.8568 12.3539C12.7631 12.4477 12.7104 12.5749 12.7104 12.7075V26.71C12.7104 26.8426 12.7631 26.9698 12.8568 27.0636C12.9506 27.1573 13.0778 27.21 13.2104 27.21H16.8689C17.0015 27.21 17.1287 27.1573 17.2224 27.0636C17.3162 26.9698 17.3689 26.8426 17.3689 26.71V19.7884C17.3689 17.8313 17.7401 15.9359 20.1665 15.9359C22.5584 15.9359 22.5894 18.1754 22.5894 19.9151V26.7106C22.5894 26.8432 22.6421 26.9704 22.7358 27.0642C22.8296 27.1579 22.9568 27.2106 23.0894 27.2106ZM4.75 7.4535C4.75 8.9365 5.97088 10.1567 7.454 10.1567C8.93675 10.1566 10.1569 8.93563 10.1569 7.45288C10.1566 5.97013 8.93637 4.75 7.4535 4.75C5.97025 4.75 4.75 5.9705 4.75 7.4535ZM5.61987 27.2106H9.28325C9.41586 27.2106 9.54304 27.1579 9.6368 27.0642C9.73057 26.9704 9.78325 26.8432 9.78325 26.7106V12.7075C9.78325 12.5749 9.73057 12.4477 9.6368 12.3539C9.54304 12.2602 9.41586 12.2075 9.28325 12.2075H5.61987C5.48727 12.2075 5.36009 12.2602 5.26632 12.3539C5.17255 12.4477 5.11987 12.5749 5.11987 12.7075V26.7106C5.11987 26.8432 5.17255 26.9704 5.26632 27.0642C5.36009 27.1579 5.48727 27.2106 5.61987 27.2106Z" fill="white"/>
</g>
<defs>
<clipPath id="clip0_1733_514">
<rect width="32" height="32" fill="white"/>
</clipPath>
</defs>
</svg>
