<svg width="775" height="150" viewBox="0 0 775 150" fill="none" xmlns="http://www.w3.org/2000/svg">
<path d="M141.287 127.884C138.945 127.884 136.599 126.989 134.814 125.203L86.6809 77.0701C83.1051 73.4943 83.1051 67.6953 86.6809 64.1195C90.2567 60.5437 96.0557 60.5437 99.6315 64.1195L147.76 112.252C151.336 115.828 151.336 121.627 147.76 125.203C145.97 126.989 143.628 127.884 141.287 127.884Z" fill=""/>
<path d="M119.345 149.821C117.004 149.821 114.658 148.926 112.872 147.14L64.7395 99.0072C61.1637 95.4314 61.1637 89.6324 64.7395 86.0566C68.3153 82.4808 74.1143 82.4808 77.6901 86.0566L125.819 134.189C129.394 137.765 129.394 143.564 125.819 147.14C124.033 148.926 121.687 149.821 119.345 149.821Z" fill=""/>
<path d="M51.8539 106.122C38.4374 106.122 25.3642 101.047 15.6952 91.3775C0.362047 76.0444 -3.4222 52.1456 6.27953 31.9044C8.46589 27.3437 13.9338 25.4189 18.4945 27.6052C23.0552 29.7916 24.9801 35.2595 22.7937 39.8202C16.443 53.0651 18.797 68.5821 28.6458 78.431C34.8044 84.5896 43.182 87.818 51.8335 87.818C57.0154 87.818 62.2953 86.6615 67.2565 84.2831C71.8131 82.0967 77.2852 84.0215 79.4715 88.5822C81.6579 93.1429 79.7331 98.6109 75.1724 100.797C67.6938 104.377 59.7166 106.122 51.8539 106.122Z" fill=""/>
<path d="M93.1491 79.7551C91.821 79.7551 90.4765 79.4649 89.1973 78.8519C84.6366 76.6655 82.7118 71.1976 84.8982 66.6369C91.2488 53.392 88.8949 37.875 79.0461 28.0262C69.1972 18.1773 53.6802 15.8275 40.4354 22.1741C35.8746 24.3604 30.4067 22.4356 28.2203 17.8749C26.034 13.3142 27.9588 7.84626 32.5195 5.6599C52.7607 -4.04182 76.6595 -0.257582 91.9967 15.0756C107.334 30.4087 111.114 54.3115 101.412 74.5527C99.839 77.8384 96.5615 79.7551 93.1491 79.7551Z" fill=""/>
<path d="M223.538 44.5608L221.217 59.9716C218.659 58.8396 214.973 58.1285 211.818 58.1285C204.678 58.1285 199.68 62.5298 199.68 71.0996V102.514H184.155V44.8591H199.206V51.1649C202.835 45.6928 208.307 43.3103 215.447 43.3103C218.777 43.3144 221.397 43.7884 223.538 44.5608Z" fill=""/>
<path d="M290.948 73.6537C290.948 91.0261 277.682 103.997 259.713 103.997C241.806 103.997 228.598 91.0261 228.598 73.6537C228.598 56.2814 241.806 43.3103 259.713 43.3103C277.678 43.3144 290.948 56.2814 290.948 73.6537ZM244.421 73.6537C244.421 82.9958 250.964 89.5386 259.713 89.5386C268.516 89.5386 275.063 82.9958 275.063 73.6537C275.063 64.3116 268.52 57.7689 259.713 57.7689C250.964 57.7689 244.421 64.3157 244.421 73.6537Z" fill=""/>
<path d="M362.399 73.6537C362.399 91.0261 349.134 103.997 331.165 103.997C313.257 103.997 300.049 91.0261 300.049 73.6537C300.049 56.2814 313.257 43.3103 331.165 43.3103C349.134 43.3144 362.399 56.2814 362.399 73.6537ZM315.876 73.6537C315.876 82.9958 322.419 89.5386 331.169 89.5386C339.971 89.5386 346.518 82.9958 346.518 73.6537C346.518 64.3116 339.975 57.7689 331.169 57.7689C322.419 57.7689 315.876 64.3157 315.876 73.6537Z" fill=""/>
<path d="M468.481 65.8032V102.51H453.013V70.8012C453.013 62.4113 448.848 57.8914 441.77 57.8914C435.105 57.8914 429.572 62.1742 429.572 70.9197V102.51H414.046V70.8012C414.046 62.4113 409.939 57.8914 402.804 57.8914C396.139 57.8914 390.605 62.1742 390.605 70.9197V102.51H375.08V44.8591H390.193V51.6429C394.3 45.517 400.544 43.3143 407.148 43.3143C415.538 43.3143 422.318 47.0046 426.188 53.1918C430.65 45.8154 438.207 43.3143 445.763 43.3143C459.318 43.3143 468.481 52.4153 468.481 65.8032Z" fill=""/>
<path d="M577.713 65.8032V102.51H562.245V70.8012C562.245 62.4113 558.081 57.8914 551.003 57.8914C544.337 57.8914 538.804 62.1742 538.804 70.9197V102.51H523.279V70.8012C523.279 62.4113 519.172 57.8914 512.036 57.8914C505.371 57.8914 499.838 62.1742 499.838 70.9197V102.51H484.312V44.8591H499.425V51.6429C503.532 45.517 509.776 43.3143 516.38 43.3143C524.77 43.3143 531.55 47.0046 535.42 53.1918C539.883 45.8154 547.439 43.3143 554.995 43.3143C568.551 43.3143 577.713 52.4153 577.713 65.8032Z" fill=""/>
<path d="M635.13 102.51V96.1426C631.321 100.842 625.792 103.997 617.876 103.997C601.93 103.997 589.973 90.9689 589.973 73.6537C589.973 56.3426 601.93 43.3103 617.876 43.3103C625.788 43.3103 631.321 46.4652 635.13 51.2221V44.8551H650.3V102.506H635.13V102.51ZM605.857 73.6537C605.857 82.4605 611.628 89.5386 620.729 89.5386C629.593 89.5386 635.6 82.7547 635.6 73.6537C635.6 64.5527 629.593 57.7689 620.729 57.7689C611.628 57.7689 605.857 64.8511 605.857 73.6537Z" fill=""/>
<path d="M687.546 58.6639V79.7224C687.546 86.8618 691.412 89.5386 696.173 89.5386C699.92 89.5386 703.847 87.6955 707.002 85.7911L712.711 97.9285C707.656 101.439 701.763 103.997 693.614 103.997C679.278 103.997 672.016 95.9669 672.016 80.9729V58.6639H660.893V44.8633H672.016V27.7279H687.546V44.8633H708.429V58.6639H687.546Z" fill=""/>
<path d="M775 73.5965C775 75.4395 774.882 77.4624 774.702 78.8315H733.831C735.38 87.1601 741.326 90.789 748.646 90.789C753.644 90.789 758.997 88.8274 763.223 85.2557L772.328 95.2516C765.724 101.259 757.514 103.997 747.755 103.997C730.145 103.997 717.828 91.921 717.828 73.8335C717.828 55.7459 729.728 43.3143 746.978 43.3143C763.578 43.3143 775 55.6274 775 73.5965ZM733.893 68.2429H759.414C757.988 60.8052 753.582 56.7022 746.86 56.7022C739.483 56.6981 735.262 61.0422 733.893 68.2429Z" fill=""/>
</svg>
