<svg width="24" height="24" viewBox="0 0 24 24" fill="none" xmlns="http://www.w3.org/2000/svg">
<path d="M4.40967 16.75C4.16967 19.64 6.34967 22 9.24967 22H14.0397C17.2997 22 19.5397 19.37 18.9997 16.15C18.4297 12.77 15.1697 10 11.7397 10C8.01967 10 4.71967 13.04 4.40967 16.75Z" stroke="#838CAC" stroke-width="1.5" stroke-linecap="round" stroke-linejoin="round"/>
<path d="M10.4697 7.5C11.8504 7.5 12.9697 6.38071 12.9697 5C12.9697 3.61929 11.8504 2.5 10.4697 2.5C9.08902 2.5 7.96973 3.61929 7.96973 5C7.96973 6.38071 9.08902 7.5 10.4697 7.5Z" stroke="#838CAC" stroke-width="1.5" stroke-linecap="round" stroke-linejoin="round"/>
<path d="M17.2998 8.69995C18.4044 8.69995 19.2998 7.80452 19.2998 6.69995C19.2998 5.59538 18.4044 4.69995 17.2998 4.69995C16.1952 4.69995 15.2998 5.59538 15.2998 6.69995C15.2998 7.80452 16.1952 8.69995 17.2998 8.69995Z" stroke="#838CAC" stroke-width="1.5" stroke-linecap="round" stroke-linejoin="round"/>
<path d="M21 12.7C21.8284 12.7 22.5 12.0284 22.5 11.2C22.5 10.3715 21.8284 9.69995 21 9.69995C20.1716 9.69995 19.5 10.3715 19.5 11.2C19.5 12.0284 20.1716 12.7 21 12.7Z" stroke="#838CAC" stroke-width="1.5" stroke-linecap="round" stroke-linejoin="round"/>
<path d="M3.96973 10.7C5.0743 10.7 5.96973 9.80452 5.96973 8.69995C5.96973 7.59538 5.0743 6.69995 3.96973 6.69995C2.86516 6.69995 1.96973 7.59538 1.96973 8.69995C1.96973 9.80452 2.86516 10.7 3.96973 10.7Z" stroke="#838CAC" stroke-width="1.5" stroke-linecap="round" stroke-linejoin="round"/>
</svg>
