<svg width="88" height="78" viewBox="0 0 88 78" fill="none" xmlns="http://www.w3.org/2000/svg">
<path d="M17.5999 24.7599C17.5999 24.7599 12.3365 9.1859 30.6953 11.0867C49.054 12.9875 40.2824 6.09416 47.2197 1.81639C54.1571 -2.46139 74.5975 10.8471 66.0459 23.6834C57.4942 36.5197 79.7123 24.7775 84.3469 44.0808C87.2069 55.9931 80.1112 64.7608 74.2572 69.7309" stroke="#CCDDE2" stroke-miterlimit="10"/>
<path d="M76.0475 54.8484C74.6678 46.859 69.7829 39.7094 61.8462 37.1506C59.816 36.4997 57.7399 36.0012 55.6354 35.6595V35.6703C55.5257 36.3335 55.2658 36.963 54.8757 37.5104C54.0485 38.6437 52.9084 39.5745 51.5884 40.0595C50.241 40.5582 48.5719 40.6227 47.3213 39.8385C46.5685 39.3672 45.8381 38.5371 45.7061 37.6415C45.5555 36.6324 46.0698 35.6771 46.7934 35.0103C40.6607 35.0601 34.8918 36.0692 30.2689 37.2181C30.4292 37.8889 30.651 38.5435 30.9318 39.1736C31.3248 40.052 31.8801 40.8482 32.5686 41.5203C33.4274 40.6695 34.1793 39.7174 34.8077 38.6847C35.4089 38.8815 35.939 39.2507 36.3321 39.7463C36.7251 40.2419 36.9638 40.8421 37.0185 41.4724V41.5047C37.261 43.7936 35.0571 45.5135 33.2052 46.5715C31.0658 47.8015 28.681 48.7226 26.3382 49.4882C25.3722 49.805 24.1167 50.0749 23.0969 49.7444C22.9871 49.7094 22.8799 49.6666 22.7762 49.6163C21.7593 49.1176 21.0788 48.0724 20.5478 47.1171C19.0352 44.4038 18.0516 41.446 17.3847 38.41C12.7569 39.0015 12.227 35.8678 11.9522 35.0992L7.99317 46.1667C7.78549 46.9622 7.7631 47.7948 7.92747 48.6004C8.09193 49.406 8.43894 50.1632 8.94181 50.8137C9.44459 51.4642 10.0899 51.9907 10.828 52.3529C11.5663 52.7151 12.3776 52.9031 13.1998 52.9026H29.5893L37.0342 71.9986L39.1442 77.4184H51.1963C50.2185 77.4184 49.6837 77.1799 49.2955 76.7907C48.8946 76.3896 48.6689 75.8461 48.6677 75.2791C48.6677 74.1057 49.6309 73.1436 51.1963 73.1436H51.3068C51.1885 73.1436 51.075 73.1328 50.9567 73.1221C51.0301 73.1142 51.1028 73.102 51.1748 73.0859C51.0972 73.084 51.0199 73.0782 50.943 73.0683C51.6491 72.9849 52.3034 72.6561 52.7915 72.1391C53.2796 71.6223 53.5705 70.9502 53.6133 70.2406C53.6153 70.2037 53.6153 70.1668 53.6133 70.1301V70.0734C53.5965 69.3458 53.3184 68.6485 52.83 68.1091C52.3415 67.5696 51.6751 67.2239 50.9528 67.1351C51.0349 67.1283 51.1132 67.1215 51.1924 67.1215C51.121 67.1039 51.0418 67.0931 50.9675 67.0823C51.0848 67.0716 51.2031 67.0638 51.3166 67.0638L60.1342 67.1107L61.7563 67.1175H63.6815C63.7705 67.1175 63.8605 67.1175 63.9455 67.1283L66.8055 67.143L68.7161 67.1537C69.5147 67.1604 70.2779 67.483 70.8392 68.0511C71.4004 68.6191 71.7139 69.3863 71.711 70.1848C71.7101 70.6364 71.6053 71.0816 71.405 71.4863C72.2248 71.3813 72.9849 71.0023 73.562 70.4107C74.9377 69.0056 75.5302 66.9024 75.9399 65.0329C76.6645 61.7026 76.6214 58.1934 76.0475 54.8484ZM53.7698 55.0733C52.1085 57.6302 49.2798 57.4004 49.2798 57.4004C49.2798 57.4004 49.0452 57.6292 48.4976 56.6553C47.9501 55.6815 46.3905 55.0156 46.3905 55.0156C46.2663 55.9934 46.0092 57.4796 43.4572 55.5534C40.9052 53.6271 41.6747 50.819 41.8927 49.3357C42.1108 47.8524 42.98 47.3606 42.98 47.3606L44.0067 46.8189C44.0067 46.8189 41.0372 46.0552 40.8944 46.0269C40.7517 45.9985 38.1068 43.7839 40.7908 43.1991C43.4748 42.6144 47.6587 44.9396 48.4673 45.3991C49.2759 45.8587 54.0015 49.8559 54.0015 49.8559C54.0015 49.8559 55.4398 52.5203 53.7698 55.0733Z" fill="#F59E0B"/>
<path d="M17.3809 38.412C17.3809 38.412 19.619 38.1402 20.4569 36.5425L19.7265 40.6404C19.7265 40.6404 28.6302 37.6092 30.2631 37.2181C30.2631 37.2181 30.7891 40.61 32.8835 41.5203L35.0444 38.7728C35.0444 38.7728 37.7538 39.4572 37.0127 43.1493C36.2715 46.8414 26.0205 49.9273 24.282 49.8559C22.5435 49.7845 20.6721 48.7148 18.7556 42.9665L17.3809 38.412Z" fill="#F59E0B"/>
<path d="M21.027 29.2837C21.5941 30.2067 22.1642 31.1278 22.7528 32.0371C23.1155 32.5974 23.7765 33.3962 23.0735 33.9819C22.8447 34.1573 22.5684 34.2596 22.2805 34.2752C21.8288 34.3153 21.3546 34.2068 21.0798 33.8186L19.7109 31.5502C19.4381 31.0978 19.0049 30.7647 18.4976 30.6172C17.9902 30.4697 17.446 30.5187 16.9731 30.7543" stroke="black" stroke-miterlimit="10"/>
<path d="M26.2042 32.2713C26.562 33.122 26.3196 33.6705 25.9011 33.9462C25.2166 34.395 24.3004 34.1799 23.8155 33.5248L21.0317 29.2881" stroke="black" stroke-miterlimit="10"/>
<path d="M23.3834 28.0513C24.3964 29.2833 25.6743 31.5713 26.3813 32.5266C27.0882 33.4819 28.1813 32.906 28.1813 32.906C29.0692 32.4278 28.9186 31.6348 28.5304 30.6717C27.5741 28.3075 26.2092 26.7352 24.6868 25.7046C19.969 22.5132 15.129 24.8676 13.6887 30.3764L7.99317 46.1666C7.78549 46.9622 7.7631 47.7948 7.92747 48.6004C8.09193 49.406 8.43894 50.1631 8.94181 50.8137C9.44459 51.4642 10.0899 51.9907 10.828 52.3529C11.5663 52.715 12.3776 52.903 13.1998 52.9025H29.5893L39.1471 77.4193" stroke="black" stroke-miterlimit="10"/>
<path d="M29.2358 29.5876C30.4092 29.1809 30.3554 27.3094 28.6902 26.6778C26.851 25.9796 23.5852 24.9921 22.7649 24.7457C22.7598 24.7418 22.7536 24.7394 22.7473 24.7388C22.6896 24.7212 22.6495 24.7066 22.6182 24.6997L22.5723 24.6851" stroke="black" stroke-miterlimit="10"/>
<path d="M46.5717 48.2986C45.545 47.0647 42.7349 46.3656 40.9005 46.0273C40.5923 45.9694 40.3111 45.8128 40.0995 45.5813C39.8879 45.3498 39.7572 45.0557 39.7272 44.7434C39.7059 44.5328 39.7302 44.3201 39.7986 44.1196C39.9079 43.8119 40.1174 43.5499 40.3935 43.3754C40.6695 43.201 40.9962 43.1242 41.321 43.1575C44.4499 43.4743 47.6765 44.4589 50.0633 46.5797C50.0633 46.5797 61.6333 55.409 63.0149 56.2685C63.585 56.6146 64.1169 56.2059 63.7307 55.6623L63.6094 55.455C62.9294 54.2879 62.1245 53.1982 61.209 52.2049" stroke="black" stroke-miterlimit="10"/>
<path d="M46.7856 35.0095C32.2343 35.1308 19.7266 40.6396 19.7266 40.6396L20.9752 33.6406" stroke="black" stroke-miterlimit="10"/>
<path d="M69.3863 73.1005C69.3863 73.1005 67.8013 72.7417 67.3799 74.0108C66.9584 75.28 66.5184 77.2991 69.5486 77.4184C72.5787 77.5377 70.7991 76.9422 70.6241 75.9615C70.4491 74.9808 69.3863 73.1005 69.3863 73.1005Z" fill="#F59E0B"/>
<path d="M45.1732 49.9099C45.1732 49.9099 43.4631 48.6134 41.9231 49.9275C41.8582 49.9846 41.8016 50.0504 41.7549 50.1231" stroke="black" stroke-miterlimit="10"/>
<g opacity="0.77">
<path opacity="0.77" d="M23.81 33.521C24.2989 34.1771 25.2141 34.3912 25.8956 33.9414C26.3092 33.6676 26.5517 33.1221 26.2026 32.2792C26.2662 32.3721 26.3239 32.4542 26.3806 32.5295C27.0865 33.4887 28.1807 32.9109 28.1807 32.9109C29.0685 32.4327 28.9189 31.6397 28.5307 30.6756C28.1509 29.7208 27.6525 28.8174 27.0474 27.9868C27.4434 27.6162 27.9137 27.2417 28.4095 27.406C28.9443 27.5839 29.0939 28.2547 29.1545 28.814C29.1829 29.0741 29.2113 29.3312 29.2396 29.5913L29.6679 33.4203C29.8106 34.6914 29.9534 35.9811 30.2633 37.2219C30.4236 37.8927 30.6455 38.5473 30.9263 39.1774C31.3192 40.0558 31.8745 40.852 32.5631 41.5241C33.4219 40.6733 34.1738 39.7212 34.8022 38.6885C35.4033 38.8853 35.9335 39.2545 36.3265 39.7501C36.7195 40.2458 36.9583 40.8459 37.0129 41.4762V41.5084C37.2554 43.7974 35.0515 45.5173 33.1996 46.5753C31.0602 47.8053 28.6754 48.7264 26.3327 49.492C25.3666 49.8088 24.1112 50.0787 23.0913 49.7482C22.9815 49.7132 22.8744 49.6704 22.7706 49.6201C21.7537 49.1214 21.0732 48.0762 20.5423 47.1209C18 42.5498 16.9441 37.3011 16.3877 32.1032C17.5004 31.9497 18.6092 31.7786 19.7043 31.5429C19.7043 31.5429 19.7043 31.5508 19.7112 31.5537L20.9735 33.6471L21.0771 33.8212C21.3509 34.2123 21.8251 34.3169 22.2778 34.2778C22.5657 34.2635 22.8422 34.1611 23.0698 33.9844C23.7719 33.3978 23.1129 32.6019 22.7491 32.0416" fill="white"/>
<path opacity="0.77" d="M23.81 33.521C24.2989 34.1771 25.2141 34.3912 25.8956 33.9414C26.3092 33.6676 26.5517 33.1221 26.2026 32.2792C26.2662 32.3721 26.3239 32.4542 26.3806 32.5295C27.0865 33.4887 28.1807 32.9109 28.1807 32.9109C29.0685 32.4327 28.9189 31.6397 28.5307 30.6756C28.1509 29.7208 27.6525 28.8174 27.0474 27.9868C27.4434 27.6162 27.9137 27.2417 28.4095 27.406C28.9443 27.5839 29.0939 28.2547 29.1545 28.814C29.1829 29.0741 29.2113 29.3312 29.2396 29.5913L29.6679 33.4203C29.8106 34.6914 29.9534 35.9811 30.2633 37.2219C30.4236 37.8927 30.6455 38.5473 30.9263 39.1774C31.3192 40.0558 31.8745 40.852 32.5631 41.5241C33.4219 40.6733 34.1738 39.7212 34.8022 38.6885C35.4033 38.8853 35.9335 39.2545 36.3265 39.7501C36.7195 40.2458 36.9583 40.8459 37.0129 41.4762V41.5084C37.2554 43.7974 35.0515 45.5173 33.1996 46.5753C31.0602 47.8053 28.6754 48.7264 26.3327 49.492C25.3666 49.8088 24.1112 50.0787 23.0913 49.7482C22.9815 49.7132 22.8744 49.6704 22.7706 49.6201C21.7537 49.1214 21.0732 48.0762 20.5423 47.1209C18 42.5498 16.9441 37.3011 16.3877 32.1032C17.5004 31.9497 18.6092 31.7786 19.7043 31.5429C19.7043 31.5429 19.7043 31.5508 19.7112 31.5537L20.9735 33.6471L21.0771 33.8212C21.3509 34.2123 21.8251 34.3169 22.2778 34.2778C22.5657 34.2635 22.8422 34.1611 23.0698 33.9844C23.7719 33.3978 23.1129 32.6019 22.7491 32.0416" fill="#3A3120"/>
<path opacity="0.77" d="M24.11 33.8311C24.5431 34.4178 25.2833 34.3435 25.8954 33.9416C26.265 33.6972 26.5681 33.7686 26.2562 33.0147C26.3139 33.0968 26.3217 32.8191 26.3726 32.8807C27.0032 33.7373 26.3804 32.5268 26.3804 32.5268C27.2604 33.6385 29.1758 32.5913 28.8248 31.7319C28.4533 30.8059 28.0622 29.437 27.5664 28.7526C27.9575 28.383 27.8822 28.4377 28.3799 28.732C28.5136 28.8179 28.6256 28.9337 28.7068 29.0703C28.7882 29.2069 28.8366 29.3605 28.8483 29.5191C28.8884 29.8917 28.9285 30.2486 28.9686 30.6123L29.3499 34.0345C29.478 35.1717 29.6051 36.3206 29.8818 37.4274C30.0249 38.0259 30.2232 38.6098 30.4743 39.1718C30.8244 39.9452 31.9488 41.2329 32.5629 41.8225C33.3265 41.0647 34.2417 39.6714 34.802 38.7454C35.8775 39.0759 35.8306 40.1046 35.9069 41.228V41.2574C36.1239 43.2999 34.1566 44.8341 32.5081 45.7796C30.5975 46.8776 28.4689 47.699 26.3774 48.3834C25.515 48.667 24.3945 48.9114 23.4842 48.6122C23.386 48.5812 23.2902 48.5429 23.1977 48.4978C22.2903 48.0519 21.6822 47.1201 21.2079 46.2665C19.1321 42.5382 18.169 38.3055 17.639 34.0619C17.6001 33.7443 17.6861 33.4242 17.8787 33.1688C18.0713 32.9134 18.3556 32.7428 18.6716 32.693C19.2671 32.5952 19.8606 32.4975 20.4502 32.3664L20.4668 32.3742L21.5932 34.2428C21.8386 34.5899 21.8787 34.3181 22.2825 34.2829C22.5377 34.2604 23.0325 34.2105 23.23 34.0453C23.8567 33.5231 23.5028 33.3071 23.1782 32.8074" fill="#3A3120"/>
</g>
<path d="M44.967 51.7966C44.967 51.7966 41.7198 50.7289 41.6709 52.5241" stroke="black" stroke-miterlimit="10"/>
<path opacity="0.54" d="M15.9004 70.0841L9.53215 53.7689C9.45324 53.4532 9.44738 53.1237 9.51484 52.8053C9.58241 52.4871 9.72164 52.1883 9.92189 51.9318C10.1222 51.6753 10.3783 51.4678 10.6709 51.3252C10.9633 51.1825 11.2845 51.1084 11.6099 51.1084H36.905C37.473 51.1083 38.0245 51.2995 38.4707 51.6511C38.9167 52.0026 39.2315 52.4941 39.3641 53.0464L46.3357 69.3576C46.4111 69.6723 46.4141 69.9999 46.3447 70.316C46.2752 70.632 46.1351 70.9281 45.9347 71.1822C45.7344 71.4363 45.4791 71.6416 45.188 71.7829C44.8969 71.9241 44.5776 71.9975 44.254 71.9976H18.3537C17.7899 71.998 17.2422 71.8098 16.7977 71.4631C16.3532 71.1164 16.0374 70.631 15.9004 70.0841Z" fill="white"/>
<path d="M46.024 54.549C46.024 54.549 46.551 55.0321 46.3505 55.7224C46.2019 56.2338 45.6935 56.5564 45.1899 56.3814C43.5863 55.827 42.1422 54.8854 41.7902 53.2848C41.6239 52.4744 41.5879 51.6426 41.6836 50.8208C41.7608 50.0591 41.8733 49.2368 42.1295 48.5122C42.5206 47.3995 43.7183 46.6242 44.8809 47.16" stroke="black" stroke-miterlimit="10"/>
<path d="M15.9004 70.0841L9.53215 53.7689C9.45324 53.4532 9.44738 53.1237 9.51484 52.8053C9.58241 52.4871 9.72164 52.1883 9.92189 51.9318C10.1222 51.6753 10.3783 51.4678 10.6709 51.3252C10.9633 51.1825 11.2845 51.1084 11.6099 51.1084H36.905C37.473 51.1083 38.0245 51.2995 38.4707 51.6511C38.9167 52.0026 39.2315 52.4941 39.3641 53.0464L46.3357 69.3576C46.4111 69.6723 46.4141 69.9999 46.3447 70.316C46.2752 70.632 46.1351 70.9281 45.9347 71.1822C45.7344 71.4363 45.4791 71.6416 45.188 71.7829C44.8969 71.9241 44.5776 71.9975 44.254 71.9976H18.3537C17.7899 71.998 17.2422 71.8098 16.7977 71.4631C16.3532 71.1164 16.0374 70.631 15.9004 70.0841Z" fill="#3A3120"/>
<path d="M15.9004 70.0841L9.53215 53.7689C9.45324 53.4532 9.44738 53.1237 9.51484 52.8053C9.58241 52.4871 9.72164 52.1883 9.92189 51.9318C10.1222 51.6753 10.3783 51.4678 10.6709 51.3252C10.9633 51.1825 11.2845 51.1084 11.6099 51.1084H36.905C37.473 51.1083 38.0245 51.2995 38.4707 51.6511C38.9167 52.0026 39.2315 52.4941 39.3641 53.0464L46.3357 69.3576C46.4111 69.6723 46.4141 69.9999 46.3447 70.316C46.2752 70.632 46.1351 70.9281 45.9347 71.1822C45.7344 71.4363 45.4791 71.6416 45.188 71.7829C44.8969 71.9241 44.5776 71.9975 44.254 71.9976H18.3537C17.7899 71.998 17.2422 71.8098 16.7977 71.4631C16.3532 71.1164 16.0374 70.631 15.9004 70.0841Z" stroke="black" stroke-linecap="square" stroke-linejoin="round"/>
<path d="M16.8321 69.427L10.9567 54.3693C10.884 54.078 10.8787 53.774 10.9411 53.4804C11.0035 53.1867 11.132 52.9111 11.3169 52.6746C11.5017 52.4381 11.738 52.2467 12.0078 52.1151C12.2776 51.9835 12.5739 51.915 12.8741 51.915H36.2097C36.7336 51.9148 37.2424 52.0911 37.6539 52.4154C38.0654 52.7396 38.3558 53.193 38.4782 53.7024L44.911 68.7514C44.9804 69.0418 44.9831 69.3441 44.919 69.6357C44.8548 69.9273 44.7254 70.2005 44.5405 70.4348C44.3557 70.6692 44.12 70.8587 43.8514 70.9889C43.5829 71.1193 43.2882 71.187 42.9896 71.187H19.0947C18.5754 71.1875 18.0709 71.0146 17.6611 70.6958C17.2512 70.3769 16.9595 69.9305 16.8321 69.427Z" fill="#3A3120"/>
<path d="M66.7744 67.0645L71.2487 77.4181" stroke="black" stroke-miterlimit="10"/>
<path d="M88 77.4185H0" stroke="black" stroke-miterlimit="10"/>
<path d="M46.3829 30.6885C45.6574 31.4052 44.574 31.4042 43.957 30.7413" stroke="black" stroke-miterlimit="10"/>
<path d="M27.0474 27.9829C27.4434 27.6123 27.9137 27.2378 28.4094 27.4021C28.9443 27.58 29.0939 28.2508 29.1545 28.8101C29.3259 30.3471 29.497 31.8826 29.6678 33.4165C29.8849 35.372 30.1137 37.3744 30.9262 39.1716C31.3192 40.0499 31.8745 40.8461 32.563 41.5182" stroke="black" stroke-miterlimit="10"/>
<path d="M37.0129 41.5064V41.4742C36.9583 40.844 36.7195 40.2437 36.3265 39.7481C35.9335 39.2526 35.4033 38.8834 34.8022 38.6865C34.1737 39.7192 33.4218 40.6714 32.5631 41.5221C30.3115 43.7609 27.4192 45.2436 24.2871 45.7647C24.4377 46.364 24.7477 46.9096 24.9618 47.4865C25.1759 48.0634 25.2825 48.7312 25.0224 49.2876C24.6939 49.9975 23.7513 49.9046 23.0962 49.7471C23.0894 49.7471 23.0855 49.7471 23.0786 49.7471" stroke="black" stroke-miterlimit="10"/>
<path d="M19.7063 31.5415C18.6112 31.7771 17.5024 31.9483 16.3896 32.1018C16.946 37.2996 17.9981 42.5483 20.5442 47.1195C21.0752 48.0747 21.7557 49.12 22.7726 49.6187C22.8763 49.669 22.9835 49.7118 23.0933 49.7467C24.1131 50.0821 25.3686 49.8074 26.3346 49.4906C28.6813 48.724 31.0622 47.8039 33.2016 46.5739C35.0486 45.5149 37.2525 43.796 37.0149 41.507C36.9919 41.2549 36.9404 41.0063 36.8614 40.7659" stroke="black" stroke-miterlimit="10"/>
<path d="M38.0181 21.1724C38.1821 21.8566 38.5567 22.472 39.0891 22.932C39.6215 23.392 40.2848 23.6732 40.9856 23.7361C41.0438 23.4539 41.17 23.19 41.3533 22.9677C42.1355 22.0456 42.4689 23.7753 44.971 22.5335C48.4382 20.8087 49.7543 21.7982 49.7543 21.7982C49.8697 21.8843 49.8521 22.6781 49.8717 22.8229C49.9694 23.6471 50.0574 24.4675 50.1542 25.2908C50.2129 25.7933 50.2706 26.2921 50.3254 26.7908C50.3726 26.7059 50.4248 26.6239 50.4818 26.5453C50.7976 25.4277 51.3618 24.1078 52.5782 24.6758C52.8245 24.7959 53.0389 24.9724 53.2039 25.191C54.0106 26.2509 53.3995 27.2747 52.5557 28.0325C52.3442 28.2676 52.1077 28.479 51.8507 28.6632C51.9895 28.9507 52.5566 30.0918 52.5566 30.0957C52.6153 30.211 54.5973 27.9679 54.7449 27.7235C54.9655 27.1247 55.0838 26.493 55.095 25.855C55.1272 23.2317 54.0595 20.178 51.9348 18.6732C51.4078 18.3006 51.5759 17.9418 51.5437 17.4353C51.5414 17.4079 51.531 17.3819 51.5135 17.3606C51.4962 17.3393 51.4728 17.3237 51.4465 17.316C51.4201 17.3083 51.392 17.3088 51.3659 17.3173C51.3398 17.3259 51.3169 17.3421 51.3002 17.364C50.6343 18.1306 48.9858 18.0543 48.9858 18.0543C43.2638 16.6209 41.3406 19.1651 40.1858 19.6188C39.7146 19.7972 39.196 19.8058 38.7191 19.6432C38.6911 19.801 38.6204 19.9482 38.5148 20.0689C38.4091 20.1895 38.2726 20.279 38.1198 20.3277L38.1491 20.5925C38.174 20.7952 38.1277 21.0002 38.0181 21.1724Z" fill="#3A3120"/>
<path d="M40.9897 23.7406C40.2889 23.6776 39.6256 23.3964 39.0932 22.9365C38.5608 22.4765 38.1861 21.861 38.0221 21.1768C37.9579 20.9144 37.9173 20.6467 37.9009 20.377L37.9459 20.3721C38.0074 20.3675 38.0679 20.3543 38.1258 20.333C38.2786 20.2843 38.4151 20.1949 38.5208 20.0742C38.6264 19.9536 38.6971 19.8064 38.7251 19.6486C38.743 19.5611 38.7467 19.4712 38.7359 19.3826L38.5892 18.088C38.5892 18.088 39.6237 18.8576 40.7716 18.4078C41.9195 17.958 43.8467 15.4138 49.5716 16.8433C49.5716 16.8433 50.8643 16.9196 51.5272 16.153C51.5439 16.1311 51.5668 16.1149 51.5929 16.1064C51.619 16.0978 51.6471 16.0974 51.6735 16.1051C51.6998 16.1128 51.7232 16.1284 51.7405 16.1496C51.7579 16.1709 51.7684 16.197 51.7707 16.2244C51.8049 16.7319 51.9926 17.0907 52.5206 17.4623C54.6453 18.968 55.7131 22.0207 55.6798 24.644C55.67 25.7323 55.3083 26.8069 54.7499 27.7289C54.6023 27.9734 52.6203 30.2164 52.5617 30.101C52.5617 30.101 51.9946 28.956 51.8557 28.6686L51.8225 28.605L51.886 28.563C52.1221 28.4027 52.3474 28.2273 52.5607 28.0379C53.4035 27.2801 54.0156 26.2564 53.209 25.1965C53.0438 24.9779 52.8295 24.8013 52.5832 24.6812C51.3629 24.1131 50.8027 25.4331 50.4868 26.5507C50.4255 26.7643 50.3878 26.984 50.3744 27.2058C50.3597 27.0689 50.3451 26.9369 50.3304 26.8C50.2756 26.3014 50.2179 25.8027 50.1593 25.3001C50.0615 24.4768 49.9696 23.6565 49.8767 22.8322C49.862 22.6914 49.8767 21.8936 49.7594 21.8075C49.7594 21.8075 48.4423 20.818 44.9761 22.5428C42.4739 23.7846 42.1405 22.0539 41.3583 22.9769C41.1751 23.1994 41.0488 23.4632 40.9907 23.7455C40.9728 23.8361 40.9613 23.9279 40.9564 24.0202C40.9546 24.0322 40.9546 24.0444 40.9564 24.0564C40.9447 24.2588 40.9408 24.4602 40.9359 24.6577C40.9173 26.5634 41.1266 28.5542 41.8746 30.324C42.7839 32.4692 45.1902 34.5851 47.6923 33.5848C48.4746 33.271 49.1756 32.7655 49.8171 32.2287" stroke="black" stroke-miterlimit="10"/>
<path d="M42.7019 28.3879C42.9508 28.3046 43.0709 27.993 42.9702 27.6919C42.8694 27.3908 42.586 27.2142 42.337 27.2975C42.0882 27.3807 41.9681 27.6923 42.0688 27.9935C42.1696 28.2946 42.4531 28.4712 42.7019 28.3879Z" fill="black"/>
<path d="M46.4246 28.2692C46.6734 28.186 46.7935 27.8744 46.6928 27.5733C46.592 27.2721 46.3086 27.0955 46.0597 27.1788C45.8109 27.2621 45.6908 27.5737 45.7915 27.8748C45.8922 28.176 46.1757 28.3525 46.4246 28.2692Z" fill="black"/>
<path d="M45.0013 28.9138C45.0013 28.9138 43.7624 29.6169 43.6871 28.8874C43.6637 28.6626 43.3606 26.4596 43.3606 26.4596C43.3606 26.4596 42.3593 25.3987 40.8252 26.1829" stroke="black" stroke-miterlimit="10"/>
<path d="M44.7227 25.8419C44.7227 25.8419 46.7232 24.8426 48.0471 26.2829" stroke="black" stroke-miterlimit="10"/>
<path d="M46.5569 33.8306L46.7867 35.0098C46.0621 35.6776 45.5498 36.6348 45.6994 37.6429C45.8324 38.5366 46.5637 39.3687 47.3137 39.8371C48.5672 40.6193 50.2343 40.5577 51.5837 40.06C52.9027 39.5711 54.0437 38.6432 54.8709 37.5109C55.2605 36.9636 55.52 36.3346 55.6297 35.6717V35.66" stroke="black" stroke-miterlimit="10"/>
<path d="M46.7866 35.0088L47.2344 37.1384" stroke="black" stroke-miterlimit="10"/>
<path d="M53.1197 29.5879L53.7963 34.0808C53.863 34.5206 54.0853 34.9219 54.4228 35.2116C54.7604 35.5014 55.1906 35.6605 55.6355 35.6599C57.7413 36.0011 59.8186 36.4992 61.8502 37.15C69.7869 39.7098 74.6718 46.8594 76.0515 54.8478C76.6254 58.1928 76.6685 61.701 75.9478 65.0274C75.5381 66.8999 74.9456 69.0031 73.5699 70.4052C71.7835 72.2337 69.0418 71.4808 66.9308 70.6546C60.3767 68.1055 54.9256 63.5706 50.2186 58.3786C47.7018 55.6017 44.4497 53.3762 44.4497 53.3762" stroke="black" stroke-miterlimit="10"/>
<path d="M18.9982 66.0568C18.2629 66.05 17.6224 65.4565 17.4572 64.6303C17.1306 63.0052 17.0446 60.4923 19.4274 59.9438C22.4047 59.2593 24.6947 62.5016 25.8172 64.5511C26.1946 65.2355 25.7673 66.1155 25.0643 66.1155L18.9982 66.0568Z" fill="#D7E8F0"/>
<path d="M19.9812 58.5638C20.6132 58.1431 20.623 57.0467 20.0028 56.1147C19.3827 55.1827 18.3675 54.7681 17.7354 55.1888C17.1033 55.6094 17.0936 56.7059 17.7137 57.6378C18.3339 58.5698 19.349 58.9844 19.9812 58.5638Z" fill="#D7E8F0"/>
<path d="M68.9109 73.1536C68.865 73.1604 68.8131 73.1673 68.7682 73.178H68.7506L61.7956 73.1418L51.3598 73.0881C51.3197 73.0881 51.2806 73.0881 51.2415 73.0881C51.164 73.0862 51.0866 73.0803 51.0098 73.0705C51.7168 72.9883 52.3722 72.6594 52.8607 72.1417C53.3491 71.6239 53.6393 70.9504 53.6801 70.2398C53.682 70.203 53.682 70.1662 53.6801 70.1293V70.0726C53.6772 69.3773 53.4349 68.7042 52.994 68.1665C52.5531 67.6289 51.9404 67.2595 51.2591 67.1207C51.1877 67.1031 51.1095 67.0923 51.0342 67.0816C51.1525 67.0708 51.2699 67.063 51.3843 67.063L60.2009 67.1099L61.824 67.1168L64.0132 67.1275C64.7628 67.196 65.46 67.5415 65.9683 68.0967C66.4765 68.6518 66.7595 69.3766 66.7618 70.1293C66.7619 70.2714 66.7511 70.4132 66.7295 70.5537C66.6253 71.2703 66.2673 71.9257 65.7207 72.4006C65.1741 72.8756 64.4753 73.1386 63.7512 73.1418H69.0488C68.7437 73.1418 68.8288 73.1418 68.9109 73.1536Z" fill="white"/>
<path d="M54.8035 76.7912C55.0022 76.9909 55.2385 77.1493 55.4988 77.2571C55.7592 77.3648 56.0384 77.4198 56.3201 77.4189H51.1985C50.2207 77.4189 49.6868 77.1803 49.2977 76.7912C48.8977 76.3895 48.6726 75.8462 48.6709 75.2795C48.6709 74.1062 49.633 73.144 51.1985 73.144H56.3201C55.8973 73.1434 55.4838 73.2682 55.132 73.5029C54.7801 73.7375 54.5059 74.0712 54.3441 74.4618C54.1821 74.8524 54.1398 75.2823 54.2225 75.697C54.3051 76.1117 54.5091 76.4924 54.8084 76.7912H54.8035Z" fill="#D7E8F0"/>
<path d="M71.718 70.1835C71.7167 70.6351 71.6116 71.0804 71.411 71.4849C71.2676 71.7908 71.071 72.0685 70.8302 72.3053C70.4331 72.6987 69.9344 72.974 69.3899 73.1002C69.1654 73.152 68.9358 73.1783 68.7055 73.1784C68.7524 73.1677 68.8032 73.1608 68.8482 73.154C68.7661 73.1462 68.681 73.1432 68.9871 73.1432H63.6885C64.4131 73.1405 65.1126 72.8775 65.6596 72.4023C66.2065 71.9271 66.5647 71.2712 66.6687 70.5541C66.6904 70.4137 66.7011 70.2718 66.701 70.1297C66.6988 69.3769 66.4157 68.652 65.9072 68.0968C65.3986 67.5416 64.7013 67.1962 63.9515 67.1279L66.8115 67.1426L68.7221 67.1534C69.5205 67.1601 70.2838 67.4826 70.8451 68.0504C71.4066 68.6182 71.7203 69.385 71.718 70.1835Z" fill="#3A3120"/>
<path d="M71.7182 70.1826C71.7122 70.9816 71.39 71.7455 70.8218 72.3072C70.2537 72.869 69.486 73.1826 68.6871 73.1795L51.2905 73.0895C51.1741 73.0895 51.0578 73.0807 50.9404 73.069C51.6738 72.9859 52.3511 72.6367 52.8442 72.0875C53.3372 71.5384 53.6116 70.8275 53.6155 70.0894C53.6193 69.3515 53.3523 68.6377 52.8651 68.0834C52.3778 67.5291 51.7042 67.1728 50.9717 67.0821C51.088 67.0699 51.2048 67.064 51.3218 67.0645L68.7184 67.1544C69.5172 67.1599 70.2814 67.4816 70.8436 68.0491C71.4058 68.6166 71.7203 69.3838 71.7182 70.1826Z" stroke="black" stroke-linecap="square" stroke-linejoin="round"/>
<path d="M66.6988 70.1287C66.6972 70.9275 66.3792 71.6931 65.8144 72.2578C65.2496 72.8227 64.484 73.1407 63.6853 73.1423H51.3076C51.1906 73.1416 51.0738 73.135 50.9575 73.1227C51.6903 73.0357 52.3657 72.6829 52.8559 72.1312C53.3459 71.5795 53.6166 70.8672 53.6166 70.1292C53.6166 69.3913 53.3459 68.679 52.8559 68.1272C52.3657 67.5756 51.6903 67.2228 50.9575 67.1358C51.0739 67.125 51.1912 67.1172 51.3076 67.1172H63.6853C64.4836 67.1189 65.2487 67.4368 65.8135 68.0011C66.3782 68.5655 66.6964 69.3304 66.6988 70.1287Z" stroke="black" stroke-linecap="square" stroke-linejoin="round"/>
<path d="M48.6709 75.2795C48.6708 75.5599 48.726 75.8376 48.8334 76.0967C48.9409 76.3558 49.0982 76.5911 49.2967 76.7892C49.6878 77.1803 50.2187 77.4179 51.1975 77.4179H68.9862C68.6801 77.4179 68.7633 77.412 68.8464 77.4042C68.3259 77.343 67.846 77.0928 67.4977 76.7011C67.1494 76.3095 66.9571 75.8036 66.9571 75.2795C66.9571 74.7554 67.1494 74.2496 67.4977 73.8579C67.846 73.4663 68.3259 73.2161 68.8464 73.1548C68.7633 73.147 68.6801 73.1411 68.9862 73.1411H51.1975C49.6311 73.1421 48.6709 74.1042 48.6709 75.2795Z" stroke="black" stroke-linecap="square" stroke-linejoin="round"/>
<path d="M54.1758 75.2795C54.1771 75.8463 54.4028 76.3895 54.8035 76.7902C55.2043 77.191 55.7475 77.4166 56.3142 77.4179H68.598C68.6801 77.4179 68.7632 77.412 68.8464 77.4042C68.3259 77.343 67.846 77.0928 67.4977 76.7011C67.1494 76.3095 66.9571 75.8036 66.9571 75.2795C66.9571 74.7554 67.1494 74.2496 67.4977 73.8579C67.846 73.4663 68.3259 73.2161 68.8464 73.1548C68.7632 73.147 68.6801 73.1411 68.598 73.1411H56.3142C55.7476 73.1427 55.2045 73.3684 54.8038 73.7691C54.4031 74.1698 54.1773 74.7129 54.1758 75.2795Z" stroke="black" stroke-linecap="square" stroke-linejoin="round"/>
<path d="M34.2634 58.9649H28.7761C28.525 58.9645 28.2795 58.891 28.0695 58.7535C27.8595 58.616 27.6939 58.4205 27.593 58.1905C27.5541 58.1049 27.5374 58.0109 27.5446 57.9171C27.5518 57.8233 27.5826 57.733 27.6341 57.6543C27.6856 57.5757 27.7562 57.5113 27.8393 57.4672C27.9224 57.4232 28.0152 57.4009 28.1093 57.4024H33.9427C33.6679 57.8649 33.8078 58.5073 34.2634 58.9649Z" fill="#D7E8F0"/>
<path d="M37.8117 58.3997C37.8114 58.5493 37.752 58.6926 37.6462 58.7983C37.5405 58.9041 37.3971 58.9637 37.2475 58.9639H34.2633C33.8077 58.5072 33.6679 57.8648 33.9426 57.3994H36.5777C36.8285 57.3995 37.0739 57.4724 37.2841 57.6091C37.4942 57.7458 37.6602 57.9407 37.7618 58.1699C37.7934 58.2426 37.8103 58.3206 37.8117 58.3997Z" fill="#3A3120"/>
<path d="M36.4389 58.9647C36.4235 58.9945 36.4055 59.0229 36.3851 59.0497C35.994 59.5846 35.1443 59.6364 34.4843 59.1534C34.4063 59.0958 34.3325 59.0327 34.2633 58.9647C33.8077 58.508 33.6679 57.8656 33.9426 57.4002C33.9581 57.3704 33.9761 57.3419 33.9964 57.3151C34.3875 56.7764 35.2333 56.7285 35.8933 57.2076C35.9728 57.267 36.0476 57.3324 36.1172 57.4031C36.5689 57.8578 36.7097 58.4963 36.4389 58.9647Z" fill="white"/>
<path d="M39.1914 61.844C39.1903 61.9937 39.1302 62.137 39.0239 62.2425C38.9177 62.348 38.7739 62.4072 38.6242 62.4072H32.8661C33.1438 61.9398 33.005 61.3023 32.5483 60.8428H37.9574C38.2086 60.8429 38.4542 60.916 38.6645 61.0533C38.8748 61.1907 39.0405 61.3862 39.1415 61.6162C39.1738 61.6879 39.1907 61.7654 39.1914 61.844Z" fill="#3A3120"/>
<path d="M32.8662 62.4072H30.1568C29.906 62.4074 29.6605 62.3347 29.4503 62.1979C29.24 62.0611 29.0741 61.8661 28.9727 61.6367C28.9407 61.565 28.9238 61.4875 28.9229 61.4089C28.9228 61.335 28.9372 61.2617 28.9655 61.1932C28.9937 61.1249 29.0352 61.0628 29.0875 61.0104C29.1398 60.9581 29.202 60.9166 29.2704 60.8883C29.3388 60.8601 29.412 60.8456 29.4861 60.8457H32.5485C33.0051 61.3023 33.1469 61.9398 32.8662 62.4072Z" fill="#D7E8F0"/>
<path d="M32.8662 62.4074C32.8535 62.4381 32.8366 62.467 32.8163 62.4934C32.4252 63.0312 31.5784 63.0801 30.9194 62.6C30.8396 62.5405 30.7645 62.4751 30.6945 62.4044C30.2418 61.9478 30.103 61.3103 30.3738 60.84C30.3895 60.8099 30.4074 60.7811 30.4276 60.754C30.8187 60.2191 31.6684 60.1673 32.3274 60.6513C32.4059 60.7083 32.4797 60.7714 32.5484 60.84C33.005 61.3025 33.1468 61.94 32.8662 62.4074Z" fill="white"/>
<path d="M34.7845 65.8267H31.3369C31.0862 65.8264 30.841 65.7534 30.6308 65.6168C30.4206 65.48 30.2546 65.2853 30.1528 65.0562C30.114 64.9703 30.0974 64.8761 30.1047 64.7822C30.112 64.6883 30.1428 64.5977 30.1943 64.5188C30.246 64.44 30.3166 64.3754 30.3997 64.3311C30.4829 64.2867 30.5758 64.2641 30.67 64.2652H34.4638C34.192 64.7335 34.3318 65.3701 34.7845 65.8267Z" fill="#3A3120"/>
<path d="M40.3713 65.2674C40.3706 65.4161 40.3108 65.5585 40.2053 65.6634C40.0997 65.7682 39.9569 65.8268 39.8081 65.8267H34.7843C34.3316 65.37 34.1918 64.7325 34.4636 64.2622H39.1374C39.3885 64.2622 39.6342 64.3354 39.8445 64.4727C40.0547 64.6101 40.2205 64.8057 40.3215 65.0356C40.3536 65.1087 40.3706 65.1875 40.3713 65.2674Z" fill="#D7E8F0"/>
<path d="M36.9599 65.8264C36.9442 65.8564 36.9262 65.8852 36.9061 65.9125C36.515 66.4502 35.6692 66.4991 35.0092 66.019C34.9299 65.9593 34.8551 65.894 34.7853 65.8235C34.3326 65.3669 34.1928 64.7293 34.4646 64.259C34.4795 64.2288 34.4971 64.2 34.5174 64.173C34.9085 63.6381 35.7582 63.5922 36.4182 64.0703C36.4966 64.1273 36.5705 64.1904 36.6392 64.259C37.0948 64.7215 37.2336 65.3629 36.9599 65.8264Z" fill="white"/>
<path d="M10.9131 34.6543L10.9991 34.6787L10.9669 34.8039C10.9464 34.755 10.9284 34.705 10.9131 34.6543Z" fill="#F59E0B"/>
<path d="M26.2148 42.4769C27.502 42.0991 28.1782 40.5423 27.7254 38.9997C27.2726 37.4573 25.8621 36.513 24.5751 36.8908C23.2879 37.2688 22.6117 38.8255 23.0645 40.368C23.5173 41.9106 24.9278 42.8547 26.2148 42.4769Z" fill="#D7E8F0"/>
</svg>
