<svg width="163" height="107" viewBox="0 0 163 107" fill="none" xmlns="http://www.w3.org/2000/svg">
<path d="M129.302 64.3234L128.987 67.3317C128.167 69.291 127.348 71.249 126.529 73.2058C126.243 73.8929 125.956 74.5789 125.667 75.2635C125.537 75.5839 125.351 75.8791 125.119 76.1358C125.108 76.153 125.093 76.1674 125.075 76.1779C125.057 76.1884 125.037 76.1947 125.016 76.1963C124.947 76.1963 124.922 76.1037 124.916 76.0343C124.877 75.2924 124.788 74.5538 124.651 73.8235C123.884 70.2972 119.79 69.0049 116.579 69.085C115.294 69.1046 114.028 69.3978 112.865 69.9448C111.189 70.7565 110.535 73.0136 110.446 73.0972L110.375 73.3874L109.225 78.1775C108.983 79.2455 108.798 79.8098 107.812 80.0946C107.78 80.1053 106.797 80.6286 106.765 80.6286C106.384 80.7354 107.427 80.5058 107.014 80.4363L105.706 80.2316L105.149 80.1035L97.0195 78.1792C97.3346 78.2326 97.6568 78.2914 97.9843 78.3573L99.8711 78.8076L99.3727 76.4152C98.0751 68.9675 100.225 62.2105 103.889 58.5419C104.853 57.5771 105.332 57.3297 106.457 56.6871L107.089 58.1841C107.089 58.1841 113.554 60.1118 115.078 54.1968C115.694 54.2502 116.878 54.2413 117.488 54.3748C120.671 55.0421 123.545 56.7385 125.667 59.2022C125.854 59.4159 126.038 59.6366 126.219 59.8609L126.315 59.9784C126.428 60.119 126.547 60.2632 126.659 60.4073L126.739 60.5213C127.669 61.7358 128.526 63.0055 129.302 64.3234Z" fill="#F59E0B"/>
<path d="M52.4829 33.1876C53.5082 28.0611 57.8622 23.0948 70.2975 21.9573C97.938 19.4314 82.9963 11.8111 91.9962 3.47162C100.996 -4.86786 135.025 8.85268 126.123 30.2808C117.221 51.7089 146.608 27.9258 159.054 55.0678C160.857 59.0065 161.725 63.3087 161.59 67.6385C161.433 72.2132 160.255 76.6949 158.142 80.7556C154.168 88.5201 146.784 95.4373 136.106 99.7237C134.53 100.366 132.88 100.943 131.157 101.456" stroke="#CCDDE2" stroke-miterlimit="10"/>
<path d="M140.04 75.3497C139.824 77.8649 138.119 78.2743 138.119 78.2743C136.677 79.127 134.463 78.2103 134.016 76.6118C134.01 76.5947 134.006 76.5767 134.005 76.5584C133.649 75.1895 132.955 73.4309 132.023 71.5066C130.225 67.1562 127.887 62.7702 124.89 59.3009C122.767 56.8373 119.893 55.141 116.711 54.4734C116.7 54.4734 116.695 54.4628 116.684 54.4628C112.463 53.1918 110.409 50.5965 109.519 48.108C109.519 48.108 109.519 48.108 109.519 48.0973C109.138 46.5256 108.75 44.993 108.959 44.0656C109.315 42.4404 109.493 40.6835 109.049 40.3275C108.492 39.8611 107.485 40.2064 104.921 40.7226C102.702 41.1783 101.518 40.9202 101.251 39.5638C101.209 39.3534 101.187 39.1393 101.187 38.9248C101.176 39.0601 100.653 38.5225 100.628 38.6507C100.461 39.3431 100.126 39.6208 99.3962 39.9252C98.3121 40.3755 97.8689 42.1146 97.7087 43.2734C97.5414 44.507 98.0968 46.2087 98.5364 47.3675C97.9739 46.7249 97.3296 46.7997 96.3221 47.1895C96.0693 47.2856 95.432 47.2589 94.9283 47.0827C94.9995 47.0217 95.0833 46.9772 95.1739 46.9528C95.3359 46.8994 94.1611 46.3155 94.332 46.2781C96.0426 45.8919 97.002 44.4661 96.7991 43.2111C96.2954 40.0516 96.9664 36.3348 99.1007 33.8731C101.454 31.1656 105.293 30.6031 108.544 31.842C111.096 32.8121 113.51 34.8022 114.395 37.4563C114.395 37.467 114.395 37.4776 114.405 37.4883C114.518 37.8258 114.604 38.1717 114.664 38.5225C114.989 40.4966 114.293 42.4973 113.907 44.4483C113.768 45.1514 114.121 45.9186 114.195 46.4757C114.624 49.8222 118.487 50.7674 121.543 52.1879C127.968 55.1801 133.213 60.296 136.741 66.5172C139.084 70.6362 139.921 73.4451 140.04 75.3497Z" fill="#484848"/>
<path d="M106.173 56.0234C106.103 56.0608 106.034 56.0982 105.97 56.1409C104.816 56.8022 103.755 57.6139 102.815 58.5546C99.1539 62.2233 97.0036 68.9803 98.3012 76.428L98.7996 78.8079" stroke="black" stroke-miterlimit="10"/>
<path d="M138.569 105.996C138.57 100.436 138.089 94.8862 137.133 89.4092C136.493 85.693 135.612 82.0225 134.495 78.421C133.824 76.2333 133.003 73.873 132.028 71.5037C131.122 69.2865 130.075 67.1295 128.895 65.0458C127.75 63.0053 126.41 61.0804 124.895 59.298C122.772 56.8344 119.898 55.1379 116.716 54.4706C116.105 54.3411 115.488 54.2484 114.866 54.1929" stroke="black" stroke-miterlimit="10"/>
<path d="M72.7753 57.6095L72.6845 57.5934C71.5975 57.4113 70.4821 57.505 69.4406 57.8656C68.3991 58.2264 67.4647 58.8429 66.7232 59.6583L60.6354 66.2907L59.9234 67.0739C59.8791 67.122 59.8375 67.1726 59.7988 67.2252" stroke="black" stroke-miterlimit="10"/>
<path d="M63.9839 68.957L67.325 65.2509L67.3304 65.2456" stroke="black" stroke-miterlimit="10"/>
<path d="M93.0483 88.0996L108.764 93.6373C110.278 94.1706 111.888 94.3719 113.487 94.2272C115.085 94.0825 116.633 93.5955 118.026 92.7989C119.42 92.0025 120.625 90.9152 121.56 89.6114C122.496 88.3075 123.14 86.8176 123.448 85.2426L127.166 66.2603C127.357 65.2855 127.348 64.2825 127.14 63.3111C126.933 62.3399 126.531 61.4207 125.959 60.6087C125.8 60.3799 125.626 60.1612 125.44 59.9536" stroke="black" stroke-miterlimit="10"/>
<path d="M82.6478 87.3343C80.647 88.6854 79.1767 92.7883 78.3953 95.4815C78.2614 95.9331 77.9846 96.3294 77.6065 96.6105C77.2285 96.8915 76.7696 97.0426 76.2984 97.0409C75.9794 97.0409 75.6642 96.9716 75.3745 96.8379C74.9301 96.6295 74.5689 96.2774 74.3494 95.8386C74.1298 95.3997 74.0644 94.8995 74.1641 94.4189C75.4724 88.0214 80.0899 75.392 95.9518 78.176C96.2686 78.2294 96.5908 78.2882 96.9166 78.354L98.7999 78.8079L104.081 80.0949L105.505 80.4384C106.046 80.5695 106.612 80.5492 107.141 80.3797C107.174 80.3733 107.206 80.3644 107.237 80.353C107.725 80.1857 108.163 79.898 108.51 79.5164C108.857 79.1349 109.102 78.6721 109.222 78.1707L110.424 73.1723L110.493 72.8822L112.066 66.3477" stroke="black" stroke-miterlimit="10"/>
<path d="M74.9117 66.8512H69.5289C68.9151 66.8512 68.3267 66.6074 67.8927 66.1736C67.4587 65.7396 67.2148 65.151 67.2148 64.5372C67.2148 63.9234 67.4587 63.335 67.8927 62.901C68.3267 62.467 68.9151 62.2231 69.5289 62.2231H77.1546" stroke="black" stroke-miterlimit="10"/>
<path d="M70.78 66.8496C70.7035 67.793 70.3439 68.4908 69.8135 68.9732C68.4464 70.2192 65.9419 70.0768 64.1992 69.2242" stroke="black" stroke-miterlimit="10"/>
<path d="M60.6425 66.2884C59.0992 64.423 59.4143 61.8935 60.6123 59.939C64.0104 54.3924 71.7749 55.4569 76.8106 57.7621C80.8905 59.624 84.4648 62.4222 87.9448 65.2133C89.6447 66.5768 91.3144 67.9973 92.9289 69.4854C93.2253 69.7536 93.5786 69.9512 93.9624 70.063C94.3462 70.175 94.7502 70.1983 95.1443 70.1315C95.5384 70.0648 95.9122 69.9094 96.2376 69.6773C96.563 69.4452 96.8316 69.1422 97.023 68.7912C97.913 67.1482 98.876 65.3557 99.0576 64.8591" stroke="black" stroke-miterlimit="10"/>
<path d="M69.8154 68.9731C69.8154 68.9731 77.8452 73.3289 83.8101 79.5875" stroke="black" stroke-miterlimit="10"/>
<path d="M80.6877 89.6963C79.7977 91.2165 80.5631 93.4486 82.2452 93.9826C84.3936 94.6758 86.6649 94.9035 88.9079 94.6502C91.3555 94.3654 92.9824 92.345 94.054 90.031C94.1316 89.8588 94.172 89.6721 94.1727 89.4834C94.1734 89.2946 94.1345 89.1077 94.0583 88.935C93.9821 88.7622 93.8703 88.6073 93.7304 88.4806C93.5903 88.3538 93.4253 88.258 93.2459 88.1993C92.9221 88.0927 92.57 88.1121 92.2597 88.2536C91.9496 88.3951 91.7042 88.6484 91.5726 88.9629C91.2166 89.7853 90.6666 90.8142 89.9368 91.277" stroke="black" stroke-miterlimit="10"/>
<path d="M84.8798 89.4116C84.8798 89.4116 82.6814 91.7755 84.4152 94.2782C84.4914 94.3834 84.5811 94.478 84.6822 94.5595" stroke="black" stroke-miterlimit="10"/>
<path d="M87.7794 89.8013C87.7794 89.8013 85.7466 94.376 88.3544 94.7106" stroke="black" stroke-miterlimit="10"/>
<path d="M159.951 106H34.0596" stroke="black" stroke-miterlimit="10"/>
<path d="M83.5857 97.3787H71.031C70.9036 98.5638 70.3422 99.66 69.4548 100.456C68.5675 101.252 67.417 101.692 66.2249 101.69H24.0273C24.0297 102.831 24.4841 103.925 25.2912 104.732C26.0981 105.539 27.1919 105.994 28.3333 105.996H83.5857C84.7288 105.995 85.8253 105.542 86.6349 104.735C87.4446 103.928 87.9015 102.833 87.9058 101.69V98.7956C87.9058 98.4179 87.7558 98.0557 87.4887 97.7886C87.2217 97.5216 86.8595 97.3716 86.4818 97.3716L83.5857 97.3787Z" stroke="black" stroke-miterlimit="10"/>
<path d="M64.1994 69.2241C64.5692 69.7358 64.8354 70.3153 64.9826 70.9294L70.9297 95.7324C71.061 96.2709 71.0954 96.8284 71.0311 97.379C70.9037 98.5641 70.3423 99.6603 69.4549 100.456C68.5676 101.252 67.4171 101.692 66.225 101.69H23.2442C22.1587 101.69 21.1048 101.324 20.2527 100.652C19.4004 99.9796 18.7995 99.0397 18.5467 97.9842L12.6103 73.1829C12.4396 72.4727 12.4323 71.7332 12.5887 71.0198C12.7452 70.3064 13.0613 69.6378 13.5136 69.0642C13.9658 68.4907 14.5421 68.0272 15.1993 67.7087C15.8565 67.3901 16.5774 67.2248 17.3078 67.2251H60.285C60.991 67.2237 61.6888 67.3782 62.3282 67.6776C62.9676 67.977 63.5329 68.4138 63.984 68.9571L64.1994 69.2241Z" stroke="black" stroke-miterlimit="10"/>
<path d="M57.4672 38.3564C57.1931 38.0342 56.9048 37.7244 56.6039 37.4236C54.9159 35.7297 52.9098 34.386 50.701 33.4694C48.4921 32.5531 46.1239 32.0821 43.7325 32.0835H21.2007C18.81 32.0824 16.4423 32.5527 14.2333 33.4673C12.0243 34.3819 10.0173 35.7228 8.32678 37.4135C6.63629 39.1041 5.29557 41.1113 4.38124 43.3203C3.4669 45.5295 2.99688 47.897 2.99806 50.2879V50.4179C2.99576 52.1141 3.42779 53.7829 4.25298 55.2649C5.1803 56.2092 6.28716 56.9586 7.50843 57.4688C8.72969 57.9791 10.0407 58.2397 11.3642 58.2358H33.4545C34.1286 58.2358 34.7751 58.5035 35.2518 58.9802C35.7285 59.4569 35.9964 60.1034 35.9964 60.7777C35.9973 61.4527 36.2661 62.0996 36.7437 62.5766C37.2213 63.0535 37.8687 63.3214 38.5437 63.3214H38.5988L44.0529 63.1825C44.0529 63.1291 44.0422 63.0811 44.0422 63.033C43.5707 62.8709 43.1616 62.5654 42.8722 62.1596C42.5827 61.7535 42.4273 61.2674 42.4277 60.7688V60.6513C42.4282 59.9772 42.6961 59.3311 43.1726 58.8544C43.6493 58.3779 44.2957 58.1098 44.9696 58.1094H50.3471C52.9908 58.1094 55.5263 57.0592 57.3957 55.1898C59.2651 53.3204 60.3153 50.7849 60.3153 48.1412C60.3246 44.6739 59.3359 41.277 57.4672 38.3564ZM18.4488 48.9031C17.5867 48.9034 16.7439 48.648 16.0271 48.1693C15.3101 47.6905 14.7513 47.0098 14.4213 46.2134C14.0914 45.4171 14.0051 44.5407 14.1733 43.6952C14.3415 42.8497 14.7566 42.0731 15.3665 41.4636C15.9761 40.8541 16.753 40.4394 17.5985 40.2713C18.444 40.1035 19.3203 40.1901 20.1167 40.5205C20.9129 40.8509 21.5932 41.4098 22.0717 42.127C22.5502 42.844 22.8053 43.687 22.8046 44.5491C22.8031 45.7036 22.3437 46.8106 21.5272 47.6268C20.7105 48.4431 19.6033 48.902 18.4488 48.9031ZM32.666 48.9031C31.8041 48.9027 30.9616 48.6468 30.2451 48.1676C29.5286 47.6884 28.9704 47.0075 28.6411 46.2109C28.3116 45.4146 28.2258 44.5382 28.3944 43.6929C28.563 42.8477 28.9786 42.0715 29.5885 41.4623C30.1983 40.8532 30.9749 40.4386 31.8204 40.2711C32.666 40.1035 33.5421 40.1905 34.3381 40.5209C35.1342 40.8513 35.8145 41.4104 36.2928 42.1274C36.7711 42.8444 37.026 43.6872 37.0253 44.5491C37.0253 45.1212 36.9124 45.6878 36.6933 46.2165C36.4742 46.7451 36.1531 47.2252 35.7481 47.6296C35.3433 48.0341 34.8627 48.3547 34.3339 48.5731C33.805 48.7917 33.2382 48.9038 32.666 48.9031ZM46.2067 48.9031C45.3448 48.9024 44.5027 48.646 43.7864 48.1667C43.0701 47.6873 42.5122 47.0063 42.1831 46.2097C41.854 45.4133 41.7684 44.537 41.9371 43.6918C42.106 42.8467 42.5217 42.0706 43.1315 41.4618C43.7415 40.8529 44.5182 40.4385 45.3637 40.271C46.209 40.1036 47.0852 40.1905 47.8812 40.5211C48.6771 40.8514 49.3572 41.4105 49.8353 42.1275C50.3136 42.8445 50.5685 43.6872 50.5678 44.5491C50.5678 45.1214 50.455 45.6882 50.2357 46.2168C50.0165 46.7457 49.6951 47.2259 49.2901 47.6304C48.885 48.0348 48.4042 48.3552 47.8752 48.5736C47.3459 48.792 46.779 48.904 46.2067 48.9031Z" fill="#484848"/>
<path d="M60.3153 48.1438C60.3153 50.7875 59.2651 53.323 57.3957 55.1924C55.5263 57.0618 52.9908 58.112 50.3471 58.112H44.9731C44.2994 58.1124 43.6534 58.3801 43.1769 58.8564C42.7004 59.3326 42.4321 59.9784 42.4312 60.6521V60.7696C42.4309 61.2682 42.5863 61.7543 42.8757 62.1604C43.1651 62.5662 43.5742 62.8717 44.0457 63.0338C44.294 63.1202 44.5554 63.1634 44.8183 63.162L44.0564 63.1833L38.5988 63.3222H38.5401C37.8654 63.3222 37.2184 63.0545 36.7408 62.578C36.2632 62.1014 35.9943 61.4549 35.9928 60.7803C35.9928 60.106 35.7251 59.4595 35.2482 58.9828C34.7715 58.5061 34.125 58.2384 33.4509 58.2384H11.3642C8.72048 58.2384 6.18503 57.1882 4.31562 55.3188C2.44622 53.4494 1.396 50.9139 1.396 48.2702V48.1402C1.39623 45.7509 1.86707 43.3852 2.7816 41.1778C3.69613 38.9705 5.03648 36.965 6.72609 35.2757C8.4157 33.5865 10.4215 32.2465 12.6289 31.3324C14.8364 30.4184 17.2024 29.9479 19.5916 29.9482H42.1162C46.942 29.9486 51.5703 31.8657 54.9832 35.2779C58.3959 38.69 60.3139 43.3178 60.3153 48.1438Z" stroke="black" stroke-miterlimit="10"/>
<path d="M116.71 54.4651C116.7 54.4651 116.694 54.4545 116.684 54.4545C112.463 53.1835 110.409 50.5882 109.519 48.0997C109.519 48.0997 109.519 48.0997 109.519 48.089C108.823 46.1488 108.839 44.2709 109.09 43.1494C109.24 42.5554 109.336 41.949 109.375 41.3374C109.434 39.6054 108.163 40.029 104.528 40.7535C102.858 41.0917 101.79 40.458 101.256 39.5573C101.204 39.4788 101.159 39.396 101.121 39.3099C100.872 38.7857 100.768 38.204 100.822 37.626" stroke="black" stroke-miterlimit="10"/>
<path d="M98.7302 47.6023C98.6661 47.5116 98.6002 47.4243 98.5361 47.3549C97.9737 46.7123 97.3293 46.7871 96.3218 47.1769C96.069 47.273 95.4318 47.2463 94.928 47.0701C94.5044 46.9188 94.1875 46.6571 94.3317 46.2655C94.3687 46.1849 94.4239 46.1141 94.4926 46.0582C94.5615 46.0023 94.6421 45.9629 94.7287 45.9434C94.8965 45.901 95.0665 45.867 95.2377 45.8419C96.9662 45.4556 96.5799 43.4549 96.3698 42.1999C95.8608 39.0421 96.5372 35.3254 98.6928 32.8636C101.067 30.1562 104.951 29.5919 108.232 30.8308C111.117 31.9202 113.832 34.2841 114.395 37.4437C114.395 37.4543 114.395 37.465 114.405 37.4757C114.416 37.4864 114.405 37.5024 114.405 37.5131C114.738 39.4872 114.405 41.6268 114.019 43.5795C113.788 44.7365 113.875 45.6817 114.197 46.4631C115.206 49.021 118.611 49.9128 121.356 51.1785C127.852 54.1707 133.144 59.2865 136.711 65.5078C139.527 70.442 140.194 73.477 140.04 75.3496C139.824 77.8648 138.119 78.2742 138.119 78.2742C136.677 79.1268 134.461 78.2101 134.016 76.6116C134.009 76.5945 134.006 76.5764 134.005 76.5582C133.649 75.1894 132.955 73.4307 132.022 71.5065" stroke="black" stroke-miterlimit="10"/>
<path d="M100.815 37.626C100.815 38.5783 100.366 39.5182 99.3905 39.9187C98.294 40.3708 97.849 41.5616 97.6888 42.7204C97.4649 44.4174 97.8299 46.1395 98.723 47.5995C99.5507 48.9737 100.898 50.4885 102.806 50.4885C106.302 50.4885 107.801 48.8028 107.801 48.8028" stroke="black" stroke-miterlimit="10"/>
<path d="M104.445 43.2672C104.773 43.2672 105.039 43.0011 105.039 42.6727C105.039 42.3444 104.773 42.0781 104.445 42.0781C104.116 42.0781 103.85 42.3444 103.85 42.6727C103.85 43.0011 104.116 43.2672 104.445 43.2672Z" fill="black"/>
<path d="M99.2147 43.6144C99.5431 43.6144 99.8092 43.3482 99.8092 43.0198C99.8092 42.6916 99.5431 42.4253 99.2147 42.4253C98.8862 42.4253 98.6201 42.6916 98.6201 43.0198C98.6201 43.3482 98.8862 43.6144 99.2147 43.6144Z" fill="black"/>
<path d="M101.779 42.1143C101.779 42.1143 101.482 44.4621 101.601 44.7843C101.721 45.1065 102.465 44.738 102.465 44.738" stroke="black" stroke-miterlimit="10"/>
<path d="M102.881 46.7918C104.154 47.2599 105.468 46.6636 105.852 45.519" stroke="black" stroke-miterlimit="10"/>
<path d="M107.521 43.5321C108.384 42.3099 108.069 40.6025 106.818 39.718C105.566 38.8337 103.851 39.1074 102.988 40.3296C102.125 41.5516 102.44 43.2592 103.691 44.1435C104.943 45.0278 106.658 44.7541 107.521 43.5321Z" stroke="black" stroke-miterlimit="10"/>
<path d="M100.569 43.8817C101.433 42.6595 101.118 40.9519 99.8661 40.0676C98.6144 39.1833 96.8997 39.457 96.0364 40.6792C95.173 41.9012 95.4879 43.6088 96.7396 44.4931C97.9914 45.3775 99.7061 45.1037 100.569 43.8817Z" stroke="black" stroke-miterlimit="10"/>
<path d="M98.2535 40.3933C98.7479 40.3919 99.2245 40.5776 99.5878 40.9129C99.9509 41.2485 100.174 41.7088 100.211 42.2018C100.231 42.4468 100.202 42.6931 100.124 42.9261C100.046 43.1592 99.9222 43.3742 99.7594 43.5582C99.5947 43.7448 99.3943 43.8961 99.1696 44.0031C98.9452 44.1102 98.7013 44.1707 98.4528 44.1812H98.3531C97.8585 44.1827 97.3816 43.9968 97.0183 43.6609C96.6552 43.3251 96.4325 42.8642 96.3951 42.371C96.3757 42.126 96.406 41.8795 96.4839 41.6465C96.5619 41.4135 96.6861 41.1984 96.849 41.0146C97.0137 40.8285 97.2139 40.6776 97.4382 40.5704C97.6623 40.4635 97.9056 40.4026 98.1538 40.3915H98.2535V40.3933ZM98.2535 39.9893H98.1342C97.8341 40.0026 97.5398 40.0763 97.2687 40.2055C96.9976 40.3349 96.7554 40.5174 96.556 40.7422C96.3568 40.967 96.2048 41.2296 96.109 41.5142C96.0131 41.7988 95.9754 42.0998 95.9981 42.3994C96.0464 42.9929 96.3157 43.5465 96.7529 43.9507C97.1901 44.355 97.763 44.5802 98.3585 44.5818H98.4777C98.7779 44.5682 99.0721 44.4947 99.3432 44.3653C99.6143 44.2361 99.8566 44.0534 100.056 43.8288C100.255 43.604 100.407 43.3414 100.503 43.0568C100.599 42.7722 100.637 42.471 100.614 42.1716C100.566 41.5781 100.296 41.0245 99.8591 40.6203C99.4219 40.216 98.8489 39.9909 98.2535 39.9893Z" fill="white"/>
<path d="M102.509 42.0762L101.05 42.1509" stroke="black" stroke-miterlimit="10"/>
<path opacity="0.53" d="M107.174 43.286C107.905 42.2511 107.638 40.805 106.579 40.0563C105.519 39.3076 104.067 39.5396 103.335 40.5745C102.604 41.6096 102.871 43.0555 103.931 43.8044C104.991 44.5531 106.442 44.3211 107.174 43.286Z" fill="white"/>
<path opacity="0.53" d="M100.222 43.6362C100.953 42.6013 100.687 41.1552 99.6269 40.4065C98.567 39.6576 97.115 39.8898 96.3838 40.9247C95.6526 41.9598 95.919 43.4057 96.979 44.1544C98.0389 44.9032 99.4907 44.6711 100.222 43.6362Z" fill="white"/>
<path d="M103.848 50.4893L107.09 58.1897C107.09 58.1897 113.343 59.8718 114.863 53.955" stroke="black" stroke-miterlimit="10"/>
<path d="M42.3456 90.3988C44.7937 89.6268 46.0751 86.7711 45.2077 84.0202C44.3403 81.2694 41.6526 79.665 39.2047 80.4368C36.7566 81.2088 35.4752 84.0645 36.3426 86.8154C37.2098 89.5663 39.8975 91.1706 42.3456 90.3988Z" fill="#484848"/>
<path d="M102.983 105.996C102.913 99.7282 101.808 93.5355 101.299 91.0078" stroke="black" stroke-miterlimit="10"/>
</svg>
