<svg width="20" height="20" viewBox="0 0 20 20" fill="none" xmlns="http://www.w3.org/2000/svg">
<path d="M1 11.7895C1.09201 11.6868 1.16861 11.5622 1.27868 11.4851C6.20153 8.03184 11.1263 4.58095 16.053 1.1324C16.3405 0.931518 16.5879 0.961033 16.7054 1.20862C16.7873 1.38043 16.742 1.55179 16.5659 1.68615C16.4122 1.8029 16.2458 1.90335 16.0944 2.02273C16.0439 2.06531 16.0122 2.1261 16.0063 2.19189C16.0015 3.51087 16.0028 4.8294 16.0032 6.14838C16.0032 6.17085 16.009 6.19243 16.0151 6.24045H16.2022C16.9653 6.24045 17.7268 6.24045 18.4867 6.24045C18.8701 6.24045 18.9991 6.37261 18.9991 6.75984C18.9991 10.6692 19 14.5785 19.0018 18.4879C19.0018 18.7218 18.937 18.898 18.7178 18.9994H2.79445C2.57785 18.9112 2.4986 18.7482 2.50081 18.5148C2.50917 17.7421 2.50433 16.9689 2.50345 16.1962C2.50345 16.1345 2.49816 16.0733 2.49508 16.0129C2.33483 16.0015 2.19395 16.001 2.05483 15.9786C1.97 15.9659 1.8927 15.9227 1.83742 15.8571C1.78214 15.7915 1.75269 15.708 1.75459 15.6222C1.75203 15.5366 1.7814 15.4531 1.83698 15.3879C1.89256 15.3228 1.97037 15.2806 2.05527 15.2697C2.26351 15.2455 2.47483 15.2504 2.68527 15.2468C2.8693 15.2437 3.05376 15.2468 3.23866 15.2468V11.0331C3.17483 11.0745 3.12596 11.1044 3.07929 11.137L1.69911 12.1031C1.37289 12.3309 1.19855 12.2966 1 11.9661V11.7895ZM9.25158 11.4992V11.7102C9.25158 12.2142 9.25158 12.7183 9.25158 13.2226C9.25158 13.6226 9.12523 13.7512 8.72768 13.7512C7.97163 13.7512 7.21587 13.7512 6.4604 13.7512C6.39305 13.7512 6.32833 13.7578 6.26625 13.7609C6.2592 13.7784 6.2539 13.7965 6.2504 13.8151C6.2504 14.3731 6.24938 14.9299 6.24732 15.4856C6.24732 15.8759 6.12229 16.0015 5.73355 16.0015C4.97192 16.0015 4.21044 16.0015 3.4491 16.0015C3.38659 16.0015 3.32452 16.0063 3.25936 16.0094V18.2399H18.2401V7.01227H15.2464C15.2464 7.59599 15.2464 8.16384 15.2464 8.73038C15.2464 9.12025 15.1219 9.24582 14.7327 9.24582C13.9713 9.24582 13.2099 9.24582 12.4482 9.24582C12.3861 9.24582 12.3241 9.25066 12.2497 9.25418V9.45991C12.2497 9.98856 12.2497 10.515 12.2497 11.0428C12.2497 11.3432 12.1106 11.4833 11.8129 11.4956C11.7487 11.4983 11.684 11.4956 11.6197 11.4956L9.25158 11.4992ZM8.48422 12.9948V11.5005H8.28303C7.9348 11.5005 7.75473 11.3727 7.75165 11.1251C7.74857 10.8776 7.93303 10.7441 8.27643 10.7441C9.27814 10.7441 10.2797 10.7441 11.2811 10.7441H11.4902V9.26255C11.33 9.24933 11.1777 9.24757 11.0297 9.22114C10.9491 9.20343 10.8771 9.1579 10.8266 9.09251C10.7761 9.02712 10.7501 8.94602 10.7533 8.86342C10.7538 8.78371 10.7809 8.70646 10.8303 8.6439C10.8796 8.58134 10.9484 8.53706 11.0258 8.51804C11.1115 8.50021 11.1989 8.49177 11.2864 8.49292C12.2822 8.49116 13.2779 8.49116 14.2735 8.49292H14.487V6.99508C14.3774 6.99508 14.2783 6.99861 14.1788 6.99508C13.9147 6.98363 13.7571 6.84531 13.7544 6.62372C13.7514 6.39552 13.9125 6.25014 14.1854 6.24133C14.3492 6.23604 14.5134 6.24133 14.6776 6.24133C14.8625 6.24133 15.0475 6.24133 15.2337 6.24133V2.63374C15.1734 2.67075 15.1293 2.69499 15.0884 2.72407C11.4343 5.28331 7.78027 7.84195 4.12621 10.4C4.08215 10.4265 4.04642 10.4648 4.02306 10.5106C3.99971 10.5564 3.98969 10.6078 3.99413 10.6591C3.99736 12.124 3.99736 13.5891 3.99413 15.0543C3.99413 15.1112 3.99898 15.1684 4.00206 15.2354H5.48393V13.7658C5.32831 13.759 5.17314 13.7443 5.01903 13.7217C4.85658 13.6904 4.75488 13.5406 4.75488 13.3737C4.75235 13.2936 4.77713 13.2151 4.82514 13.1511C4.87316 13.087 4.94154 13.0412 5.01903 13.0212C5.10453 13.0019 5.19202 12.9929 5.27965 12.9944C6.27491 12.9926 7.27046 12.9926 8.2663 12.9944L8.48422 12.9948Z" fill="#5E666E" stroke="#5E666E" stroke-width="0.5"/>
</svg>
