<svg width="20" height="20" viewBox="0 0 20 20" fill="none" xmlns="http://www.w3.org/2000/svg">
<path d="M19 1.21511L19 15.2737C18.904 15.4357 18.7644 15.4899 18.5755 15.4894C14.0281 15.4859 9.48073 15.4849 4.93337 15.4863C4.61055 15.4863 4.51058 15.3886 4.51058 15.0703L4.51058 1.41672C4.51058 1.10859 4.61275 1.00425 4.9206 1.00425C8.78298 1.00425 12.6452 1.00425 16.5073 1.00425C16.9252 1.00425 18.3174 1.01085 18.5543 1.00117C18.749 0.993244 18.8996 1.04387 19 1.21511ZM11.6813 1.61525L11.4488 1.61525C11.4488 1.75083 11.4488 1.85559 11.4488 1.96036C11.4488 2.25926 11.4523 2.55816 11.4413 2.85661C11.438 2.93379 11.4046 3.00662 11.3483 3.05958C11.2921 3.11254 11.2173 3.14143 11.14 3.1401C11.0659 3.13733 10.9953 3.10794 10.9411 3.05732C10.8869 3.00671 10.8528 2.93826 10.845 2.86453C10.8394 2.80042 10.8378 2.73604 10.8401 2.67173C10.8401 2.32705 10.8401 1.98281 10.8401 1.62713L5.13288 1.62713L5.13288 10.3765L5.3359 10.3765C5.75164 10.3765 6.16783 10.373 6.58402 10.3796C6.78529 10.3827 6.9042 10.5015 6.90684 10.6767C6.90948 10.8519 6.78132 10.9778 6.57565 10.9849C6.49374 10.9884 6.41182 10.9849 6.3299 10.9849L5.132 10.9849L5.132 14.8648L18.3746 14.8648L18.3746 10.9871L18.1509 10.9871C15.0918 10.9871 12.0329 10.9871 8.97412 10.9871C8.90382 10.9903 8.83337 10.9874 8.7636 10.9783C8.69028 10.9674 8.62388 10.929 8.57803 10.8708C8.53217 10.8126 8.51032 10.7391 8.51697 10.6653C8.52886 10.5037 8.61782 10.4073 8.78121 10.3853C8.84528 10.3786 8.9097 10.3758 8.97411 10.377C9.53196 10.377 10.0886 10.377 10.6441 10.377L10.8419 10.377L10.8419 5.06244C10.8391 4.99819 10.8419 4.93384 10.8502 4.87008C10.8606 4.79664 10.8986 4.72994 10.9566 4.68368C11.0146 4.63742 11.0881 4.61512 11.1621 4.62136C11.3232 4.63324 11.4206 4.72216 11.4426 4.88548C11.4501 4.95535 11.4528 5.02566 11.4505 5.09589L11.4505 10.3651L18.3746 10.3651L18.3746 1.61481C18.1791 1.61481 16.7975 1.61833 16.4721 1.61481C14.8743 1.61569 13.2773 1.61584 11.6813 1.61525ZM6.58402 16.4024C6.73728 16.4856 6.75005 16.63 6.74961 16.781C6.74961 16.9729 6.74961 17.1648 6.74961 17.3779L14.4946 17.3779C14.5259 17.3779 14.5572 17.3779 14.5884 17.3779C15.1015 17.3757 16.1074 17.3779 16.3316 17.3779L16.7583 17.3779C16.7583 17.1538 16.7583 16.9553 16.7583 16.7572C16.7583 16.6168 16.7812 16.4869 16.9147 16.4081C17.0574 16.324 17.1816 16.3786 17.3071 16.457C17.7871 16.7585 18.2716 17.0534 18.7494 17.3589C18.8441 17.4192 18.9168 17.5143 19 17.5936L19 17.7696C18.9172 17.8489 18.8445 17.9457 18.7499 18.0043C18.2266 18.3406 17.6982 18.669 17.1714 19L16.9605 19C16.798 18.8935 16.746 18.7407 16.7561 18.5514C16.7663 18.3622 16.7583 18.183 16.7583 17.9858L16.5381 17.9858C16.2514 17.9858 15.1526 17.9858 14.5911 17.9858C14.5581 17.9858 14.5246 17.9858 14.4915 17.9858C11.9906 17.9858 9.48968 17.9858 6.98875 17.9858L6.74741 17.9858C6.74741 18.1883 6.74036 18.3688 6.74741 18.5488C6.7571 18.7363 6.70909 18.8913 6.5479 19L6.33695 19C5.80258 18.6646 5.26852 18.3293 4.73475 17.9941C4.42646 17.8005 4.42381 17.5654 4.72814 17.3744C5.21258 17.0702 5.70188 16.7686 6.18765 16.464C6.31493 16.3861 6.43736 16.3227 6.58402 16.4024ZM17.3868 18.1324L18.113 17.6812C17.8638 17.5267 17.6347 17.3849 17.3868 17.2308L17.3868 18.1324ZM5.39624 17.6816C5.64595 17.8366 5.87541 17.9787 6.12291 18.1328L6.12291 17.2304L5.39624 17.6816ZM2.62959 3.24311C2.83747 3.24311 3.03521 3.24311 3.23295 3.24311C3.38049 3.24311 3.51525 3.22066 3.59452 3.07671C3.6738 2.93276 3.61743 2.81919 3.54256 2.69946C3.23163 2.20379 2.92598 1.70549 2.61373 1.21026C2.43757 0.927216 2.19227 0.930304 2.01214 1.21731C1.70092 1.71239 1.39146 2.20893 1.08376 2.70694C0.898786 3.00671 1.03003 3.23518 1.38676 3.24223C1.58583 3.24531 1.78313 3.24223 1.99716 3.24223L1.99716 13.2488C1.80471 13.2488 1.61401 13.2488 1.42463 13.2488C1.27401 13.2488 1.12736 13.2559 1.0406 13.4064C0.953838 13.5569 1.02123 13.685 1.10182 13.8136C1.40042 14.2894 1.69593 14.7675 1.99321 15.2438C2.198 15.5717 2.43142 15.5748 2.63356 15.2517C2.93436 14.7701 3.23296 14.2877 3.53464 13.8065C3.61171 13.6833 3.67556 13.5609 3.59585 13.4148C3.51261 13.2611 3.36816 13.2484 3.2171 13.2488C3.02509 13.2488 2.83306 13.2488 2.63092 13.2488L2.62959 3.24311ZM1.86681 13.8783L2.76216 13.8783L2.31338 14.5998L1.86681 13.8783ZM2.76216 2.61406L1.86329 2.61406L2.31338 1.89082L2.76216 2.61406Z" fill="#5E666E" stroke="#5E666E" stroke-width="0.5"/>
</svg>
