<svg width="20" height="20" viewBox="0 0 20 20" fill="none" xmlns="http://www.w3.org/2000/svg">
<path d="M7.53719 18.086H1.50731C1.44066 18.086 1.3746 18.0895 1.30854 18.086C1.12569 18.0718 0.989438 17.9408 1.00064 17.7768C1.01362 17.5879 1.12451 17.477 1.31384 17.4723C1.6005 17.464 1.88775 17.4693 2.175 17.4693H3.71742V2.49882C3.71742 2.43214 3.71742 2.36608 3.71742 2.29999C3.72273 2.01498 3.82006 1.91466 4.10377 1.91407C5.15603 1.91407 6.2083 1.91407 7.26057 1.91407H7.5366C7.5366 1.72878 7.5366 1.5553 7.5366 1.38299C7.54368 1.08795 7.68347 0.972857 7.97249 1.00531C9.89418 1.22286 11.8161 1.43922 13.7381 1.65441C14.4758 1.73781 15.2135 1.82337 15.9512 1.9111C16.1871 1.93942 16.2703 2.03266 16.2786 2.26988C16.2786 2.34364 16.2786 2.41741 16.2786 2.49058V17.4693H16.5994C17.2836 17.4693 17.9684 17.4693 18.6526 17.4693C18.8644 17.4693 19.0065 17.6098 18.9983 17.7886C18.99 17.9674 18.8561 18.0771 18.652 18.0836C18.6007 18.0836 18.5488 18.0836 18.4975 18.0836C17.887 18.0836 17.2742 18.0547 16.6655 18.0901C15.7347 18.1444 14.8046 18.2282 13.8767 18.3261C12.3703 18.4843 10.8686 18.6637 9.36097 18.8336C8.90797 18.885 8.45439 18.9327 8.00435 18.9876C7.67345 19.0283 7.54191 18.9174 7.53838 18.5793C7.53602 18.427 7.53719 18.2725 7.53719 18.086ZM8.16655 18.3503L15.6421 17.5036V2.49295L8.16655 1.64853V18.3503ZM7.52127 17.4558V3.95574H5.76061V17.4534L7.52127 17.4558ZM7.52716 2.54369H4.3509V17.4534H5.13066V6.25002C5.13066 5.40325 5.13066 4.55646 5.13066 3.70968C5.13066 3.42526 5.2333 3.32553 5.51583 3.32376C5.86147 3.32376 6.2077 3.32376 6.55335 3.32376H7.52657L7.52716 2.54369ZM10.405 10.0006C10.405 10.122 10.3809 10.2423 10.3342 10.3544C10.2875 10.4664 10.2191 10.5682 10.1329 10.6536C10.0467 10.7391 9.94441 10.8066 9.83196 10.8524C9.71951 10.8981 9.59913 10.921 9.47775 10.9199C9.2365 10.915 9.00687 10.8153 8.83846 10.6424C8.67005 10.4695 8.57637 10.2373 8.57766 9.99589C8.57758 9.87447 8.60157 9.75421 8.64825 9.64213C8.69492 9.53004 8.76336 9.42835 8.84959 9.34291C8.93583 9.25746 9.03815 9.18995 9.15063 9.14433C9.26311 9.09871 9.38352 9.07586 9.50488 9.07711C9.74614 9.08176 9.97586 9.18128 10.1443 9.35411C10.3128 9.52695 10.4064 9.75922 10.405 10.0006ZM9.48306 10.3004C9.56095 10.3009 9.63601 10.2712 9.69244 10.2175C9.74887 10.1638 9.78229 10.0903 9.78565 10.0124C9.78943 9.93448 9.76283 9.85815 9.71144 9.79947C9.66005 9.7408 9.5879 9.70436 9.51019 9.69788C9.46975 9.69545 9.42924 9.70139 9.39119 9.71531C9.35314 9.72923 9.31837 9.75083 9.28904 9.77879C9.25971 9.80675 9.23644 9.84047 9.22071 9.87782C9.20497 9.91517 9.1971 9.95536 9.19758 9.99589C9.19612 10.0739 9.22514 10.1493 9.27846 10.2062C9.33178 10.263 9.4052 10.2968 9.48306 10.3004Z" fill="#5E666E" stroke="#5E666E" stroke-width="0.5"/>
</svg>
