<svg width="20" height="15" viewBox="0 0 20 15" fill="none" xmlns="http://www.w3.org/2000/svg">
<path d="M1.58562 12.4019C1.55533 12.3968 1.52474 12.3939 1.49405 12.3931C1.12049 12.4258 0.979979 12.3234 1.00227 11.8799C1.01632 11.6004 1.00469 11.3199 1.00518 11.0398C1.00518 10.7296 1.09433 10.6413 1.4049 10.6393H1.58562V10.3764C1.58562 9.72592 1.58562 9.07546 1.58562 8.425C1.58562 7.66689 1.98001 7.21856 2.74844 7.12636V6.9156C2.74844 5.36946 2.74844 3.82349 2.74844 2.27767C2.74844 1.48298 3.22471 1 4.00816 1H15.9969C16.7813 1 17.2566 1.48297 17.2566 2.2767C17.2566 3.82284 17.2566 5.36881 17.2566 6.91463V7.1166C17.3767 7.14197 17.4896 7.1566 17.5957 7.18929C17.8322 7.26093 18.0395 7.40728 18.187 7.60671C18.3344 7.80614 18.4142 8.04806 18.4146 8.29669C18.4199 9.00261 18.4146 9.70851 18.4146 10.4144V10.6423C18.5153 10.6423 18.6084 10.6379 18.7028 10.6423C18.8758 10.653 18.9887 10.7584 18.9935 10.9315C19.0003 11.3218 19.0003 11.7121 18.9935 12.1024C18.9906 12.276 18.8787 12.3829 18.7067 12.3951C18.6176 12.4009 18.5275 12.3951 18.416 12.3951C18.416 12.7522 18.416 13.0971 18.416 13.442C18.416 13.7674 18.3293 13.8562 18.0114 13.8567C17.7755 13.8567 17.54 13.8567 17.3041 13.8567C17.0977 13.8542 17.0061 13.7796 16.9649 13.5776C16.8922 13.2269 16.8196 12.8756 16.7551 12.5229C16.7372 12.4253 16.7004 12.3834 16.603 12.3956C16.5728 12.3975 16.5425 12.3975 16.5124 12.3956C12.1718 12.3956 7.83094 12.3941 3.48974 12.3912C3.31386 12.3912 3.25136 12.44 3.2252 12.6112C3.17675 12.9351 3.10358 13.2556 3.0372 13.5771C2.99554 13.7786 2.903 13.8537 2.69805 13.8562C2.43787 13.8562 2.17818 13.8591 1.918 13.8562C1.69464 13.8532 1.58853 13.7445 1.58659 13.5147C1.58562 13.1473 1.58562 12.7824 1.58562 12.4019ZM3.91126 7.12489C3.91126 6.72144 3.90545 6.33312 3.91126 5.9448C3.91402 5.64266 4.03409 5.3536 4.24578 5.13945C4.45747 4.92529 4.74398 4.80304 5.04404 4.79885C6.22236 4.7904 7.40134 4.7904 8.58095 4.79885C9.12457 4.80178 9.59843 5.1862 9.67886 5.72966C9.73458 6.11116 9.70648 6.50533 9.7152 6.89414C9.7152 6.97073 9.7152 7.04733 9.7152 7.11807H10.2966C10.2966 6.75657 10.2966 6.40971 10.2966 6.06285C10.2966 5.2823 10.7777 4.79446 11.5491 4.79446C12.6495 4.79446 13.7497 4.79446 14.8495 4.79446C15.6214 4.79446 16.0996 5.2823 16.101 6.06285C16.101 6.4141 16.101 6.76487 16.101 7.12051H16.6824V6.94683C16.6824 5.38313 16.6824 3.81925 16.6824 2.25522C16.6824 1.80933 16.4562 1.58103 16.0138 1.58103H4.00525C3.55175 1.58103 3.32694 1.8069 3.32694 2.26401C3.32694 3.82219 3.32694 5.38004 3.32694 6.93757V7.12294L3.91126 7.12489ZM17.8409 10.633C17.8409 9.8661 17.8409 9.11823 17.8409 8.37036C17.8409 7.95179 17.6059 7.71763 17.1873 7.71763H2.82209C2.4025 7.71763 2.16848 7.95179 2.16751 8.36987C2.16751 9.06944 2.16751 9.76868 2.16751 10.4676C2.16751 10.5203 2.17381 10.573 2.1772 10.631L17.8409 10.633ZM1.59724 11.7955H18.4063V11.233H1.5953L1.59724 11.7955ZM9.13282 7.12636C9.13282 6.71315 9.14202 6.318 9.12991 5.92382C9.12392 5.77864 9.06256 5.64137 8.95859 5.5406C8.85462 5.43982 8.71606 5.3833 8.57175 5.3828C7.39924 5.3776 6.2269 5.3776 5.05471 5.3828C4.77611 5.3828 4.52174 5.5955 4.50381 5.87064C4.48056 6.28629 4.49801 6.70486 4.49801 7.12831L9.13282 7.12636ZM15.5172 7.12636C15.5172 6.71315 15.5264 6.318 15.5143 5.92382C15.5083 5.77864 15.4469 5.64137 15.343 5.5406C15.239 5.43982 15.1004 5.3833 14.9561 5.3828C13.7843 5.3776 12.6121 5.3776 11.4396 5.3828C11.161 5.3828 10.9037 5.5955 10.8887 5.87064C10.8654 6.28629 10.8824 6.70486 10.8824 7.12831L15.5172 7.12636ZM2.68254 12.4043H2.18302V13.2537H2.51442C2.56965 12.9659 2.62344 12.6927 2.68061 12.4043H2.68254ZM17.8273 13.261V12.4082H17.3268C17.3859 12.701 17.4417 12.9805 17.4983 13.263L17.8273 13.261Z" fill="#5E666E" stroke="#5E666E" stroke-width="0.6"/>
</svg>
