<svg width="32" height="32" viewBox="0 0 32 32" fill="none" xmlns="http://www.w3.org/2000/svg">
<path d="M28.3784 11.0329L20.4441 9.87976L16.8972 2.68914C16.8003 2.49226 16.6409 2.33289 16.4441 2.23601C15.9503 1.99226 15.3503 2.19539 15.1034 2.68914L11.5566 9.87976L3.62218 11.0329C3.40343 11.0641 3.20343 11.1673 3.0503 11.3235C2.86518 11.5138 2.76317 11.7698 2.76669 12.0352C2.77021 12.3006 2.87896 12.5538 3.06905 12.7391L8.80968 18.336L7.45343 26.2391C7.42162 26.423 7.44197 26.6121 7.51215 26.7849C7.58234 26.9578 7.69956 27.1075 7.85052 27.2172C8.00148 27.3268 8.18014 27.392 8.36624 27.4052C8.55234 27.4185 8.73844 27.3794 8.90343 27.2923L16.0003 23.561L23.0972 27.2923C23.2909 27.3954 23.5159 27.4298 23.7316 27.3923C24.2753 27.2985 24.6409 26.7829 24.5472 26.2391L23.1909 18.336L28.9316 12.7391C29.0878 12.586 29.1909 12.386 29.2222 12.1673C29.3066 11.6204 28.9253 11.1141 28.3784 11.0329Z" fill="#F9C745"/>
</svg>
