<svg width="132" height="20" viewBox="0 0 132 20" fill="none" xmlns="http://www.w3.org/2000/svg">
<path d="M17.7359 6.89555L12.7769 6.17484L10.5601 1.6807C10.4996 1.55765 10.4 1.45805 10.2769 1.3975C9.96833 1.24515 9.59333 1.37211 9.43903 1.6807L7.22223 6.17484L2.26325 6.89555C2.12653 6.91508 2.00153 6.97953 1.90583 7.07719C1.79013 7.19611 1.72637 7.35609 1.72857 7.52199C1.73077 7.6879 1.79874 7.84614 1.91755 7.96195L5.50544 11.46L4.65778 16.3995C4.6379 16.5144 4.65062 16.6325 4.69449 16.7406C4.73835 16.8486 4.81161 16.9422 4.90596 17.0107C5.00031 17.0793 5.11198 17.12 5.22829 17.1283C5.3446 17.1366 5.46091 17.1121 5.56403 17.0577L9.99958 14.7256L14.4351 17.0577C14.5562 17.1221 14.6968 17.1436 14.8316 17.1202C15.1715 17.0616 15.4 16.7393 15.3414 16.3995L14.4937 11.46L18.0816 7.96195C18.1793 7.86625 18.2437 7.74125 18.2633 7.60453C18.316 7.26273 18.0777 6.94633 17.7359 6.89555Z" fill="#F9C745"/>
<path d="M45.7359 6.89555L40.7769 6.17484L38.5601 1.6807C38.4996 1.55765 38.4 1.45805 38.2769 1.3975C37.9683 1.24515 37.5933 1.37211 37.439 1.6807L35.2222 6.17484L30.2633 6.89555C30.1265 6.91508 30.0015 6.97953 29.9058 7.07719C29.7901 7.19611 29.7264 7.35609 29.7286 7.52199C29.7308 7.6879 29.7987 7.84614 29.9175 7.96195L33.5054 11.46L32.6578 16.3995C32.6379 16.5144 32.6506 16.6325 32.6945 16.7406C32.7384 16.8486 32.8116 16.9422 32.906 17.0107C33.0003 17.0793 33.112 17.12 33.2283 17.1283C33.3446 17.1366 33.4609 17.1121 33.564 17.0577L37.9996 14.7256L42.4351 17.0577C42.5562 17.1221 42.6968 17.1436 42.8316 17.1202C43.1715 17.0616 43.4 16.7393 43.3414 16.3995L42.4937 11.46L46.0816 7.96195C46.1793 7.86625 46.2437 7.74125 46.2633 7.60453C46.316 7.26273 46.0777 6.94633 45.7359 6.89555Z" fill="#F9C745"/>
<path d="M73.7359 6.89555L68.7769 6.17484L66.5601 1.6807C66.4996 1.55765 66.4 1.45805 66.2769 1.3975C65.9683 1.24515 65.5933 1.37211 65.439 1.6807L63.2222 6.17484L58.2633 6.89555C58.1265 6.91508 58.0015 6.97953 57.9058 7.07719C57.7901 7.19611 57.7264 7.35609 57.7286 7.52199C57.7308 7.6879 57.7987 7.84614 57.9175 7.96195L61.5054 11.46L60.6578 16.3995C60.6379 16.5144 60.6506 16.6325 60.6945 16.7406C60.7384 16.8486 60.8116 16.9422 60.906 17.0107C61.0003 17.0793 61.112 17.12 61.2283 17.1283C61.3446 17.1366 61.4609 17.1121 61.564 17.0577L65.9996 14.7256L70.4351 17.0577C70.5562 17.1221 70.6968 17.1436 70.8316 17.1202C71.1715 17.0616 71.4 16.7393 71.3414 16.3995L70.4937 11.46L74.0816 7.96195C74.1793 7.86625 74.2437 7.74125 74.2633 7.60453C74.316 7.26273 74.0777 6.94633 73.7359 6.89555Z" fill="#F9C745"/>
<path d="M101.736 6.89555L96.7769 6.17484L94.5601 1.6807C94.4996 1.55765 94.4 1.45805 94.2769 1.3975C93.9683 1.24515 93.5933 1.37211 93.439 1.6807L91.2222 6.17484L86.2633 6.89555C86.1265 6.91508 86.0015 6.97953 85.9058 7.07719C85.7901 7.19611 85.7264 7.35609 85.7286 7.52199C85.7308 7.6879 85.7987 7.84614 85.9175 7.96195L89.5054 11.46L88.6578 16.3995C88.6379 16.5144 88.6506 16.6325 88.6945 16.7406C88.7384 16.8486 88.8116 16.9422 88.906 17.0107C89.0003 17.0793 89.112 17.12 89.2283 17.1283C89.3446 17.1366 89.4609 17.1121 89.564 17.0577L93.9996 14.7256L98.4351 17.0577C98.5562 17.1221 98.6968 17.1436 98.8316 17.1202C99.1715 17.0616 99.4 16.7393 99.3414 16.3995L98.4937 11.46L102.082 7.96195C102.179 7.86625 102.244 7.74125 102.263 7.60453C102.316 7.26273 102.078 6.94633 101.736 6.89555Z" fill="#F9C745"/>
<path d="M129.736 6.89555L124.777 6.17484L122.56 1.6807C122.5 1.55765 122.4 1.45805 122.277 1.3975C121.968 1.24515 121.593 1.37211 121.439 1.6807L119.222 6.17484L114.263 6.89555C114.127 6.91508 114.002 6.97953 113.906 7.07719C113.79 7.19611 113.726 7.35609 113.729 7.52199C113.731 7.6879 113.799 7.84614 113.918 7.96195L117.505 11.46L116.658 16.3995C116.638 16.5144 116.651 16.6325 116.694 16.7406C116.738 16.8486 116.812 16.9422 116.906 17.0107C117 17.0793 117.112 17.12 117.228 17.1283C117.345 17.1366 117.461 17.1121 117.564 17.0577L122 14.7256L126.435 17.0577C126.556 17.1221 126.697 17.1436 126.832 17.1202C127.171 17.0616 127.4 16.7393 127.341 16.3995L126.494 11.46L130.082 7.96195C130.179 7.86625 130.244 7.74125 130.263 7.60453C130.316 7.26273 130.078 6.94633 129.736 6.89555Z" fill="#E0E2EB"/>
<mask id="mask0_1440_2120" style="mask-type:alpha" maskUnits="userSpaceOnUse" x="112" y="0" width="20" height="20">
<path d="M129.736 6.89555L124.777 6.17484L122.56 1.6807C122.5 1.55765 122.4 1.45805 122.277 1.3975C121.968 1.24515 121.593 1.37211 121.439 1.6807L119.222 6.17484L114.263 6.89555C114.127 6.91508 114.002 6.97953 113.906 7.07719C113.79 7.19611 113.726 7.35609 113.729 7.52199C113.731 7.6879 113.799 7.84614 113.918 7.96195L117.505 11.46L116.658 16.3995C116.638 16.5144 116.651 16.6325 116.694 16.7406C116.738 16.8486 116.812 16.9422 116.906 17.0107C117 17.0793 117.112 17.12 117.228 17.1283C117.345 17.1366 117.461 17.1121 117.564 17.0577L122 14.7256L126.435 17.0577C126.556 17.1221 126.697 17.1436 126.832 17.1202C127.171 17.0616 127.4 16.7393 127.341 16.3995L126.494 11.46L130.082 7.96195C130.179 7.86625 130.244 7.74125 130.263 7.60453C130.316 7.26273 130.078 6.94633 129.736 6.89555Z" fill="#FADB14"/>
</mask>
<g mask="url(#mask0_1440_2120)">
<rect x="112" width="10" height="20" fill="#F9C745"/>
</g>
</svg>
