<svg width="16" height="16" viewBox="0 0 16 16" fill="none" xmlns="http://www.w3.org/2000/svg">
<path d="M7.99967 14.1667H4.66634C2.23301 14.1667 0.833008 12.7667 0.833008 10.3333V5.66668C0.833008 3.23334 2.23301 1.83334 4.66634 1.83334H11.333C13.7663 1.83334 15.1663 3.23334 15.1663 5.66668V7.66668C15.1663 7.94001 14.9397 8.16668 14.6663 8.16668C14.393 8.16668 14.1663 7.94001 14.1663 7.66668V5.66668C14.1663 3.76001 13.2397 2.83334 11.333 2.83334H4.66634C2.75967 2.83334 1.83301 3.76001 1.83301 5.66668V10.3333C1.83301 12.24 2.75967 13.1667 4.66634 13.1667H7.99967C8.27301 13.1667 8.49967 13.3933 8.49967 13.6667C8.49967 13.94 8.27301 14.1667 7.99967 14.1667Z" fill="white"/>
<path d="M8.00018 8.57998C7.44018 8.57998 6.87351 8.40664 6.44018 8.0533L4.35351 6.38664C4.14018 6.2133 4.10018 5.89998 4.27351 5.68665C4.44685 5.47331 4.76017 5.43998 4.97351 5.60665L7.06017 7.27332C7.56684 7.67998 8.42684 7.67998 8.93351 7.27332L11.0202 5.60665C11.2335 5.43332 11.5468 5.46665 11.7202 5.68665C11.8935 5.89998 11.8602 6.21997 11.6402 6.38664L9.5535 8.0533C9.12684 8.40664 8.56018 8.57998 8.00018 8.57998Z" fill="white"/>
<path d="M10.547 14.52C10.2937 14.52 10.0537 14.4266 9.88036 14.2533C9.6737 14.0466 9.58036 13.7466 9.62703 13.4333L9.7537 12.5333C9.78703 12.3 9.92704 12.02 10.0937 11.8533L12.4537 9.49331C12.7737 9.17331 13.087 9.00664 13.427 8.97331C13.8404 8.93331 14.2537 9.10664 14.6404 9.49331C15.027 9.87997 15.2004 10.2866 15.1604 10.7066C15.127 11.04 14.9537 11.36 14.6404 11.68L12.2804 14.04C12.1137 14.2066 11.8337 14.3467 11.6004 14.38L10.7004 14.5067C10.647 14.5133 10.6004 14.52 10.547 14.52ZM13.5404 9.96665C13.5337 9.96665 13.527 9.96665 13.5204 9.96665C13.427 9.97332 13.3004 10.06 13.1604 10.2L10.8004 12.56C10.7804 12.58 10.747 12.6467 10.747 12.6733L10.627 13.5067L11.4604 13.3866C11.487 13.38 11.5537 13.3466 11.5737 13.3266L13.9337 10.9667C14.0737 10.82 14.1604 10.7 14.167 10.6066C14.1804 10.4733 14.047 10.3133 13.9337 10.2C13.827 10.0933 13.6737 9.96665 13.5404 9.96665Z" fill="white"/>
<path d="M13.9471 12.1666C13.9004 12.1666 13.8537 12.16 13.8137 12.1466C12.9337 11.9 12.2337 11.2 11.9871 10.32C11.9137 10.0533 12.067 9.77995 12.3337 9.69995C12.6004 9.62661 12.8737 9.77996 12.9471 10.0466C13.1004 10.5933 13.5337 11.0266 14.0804 11.1799C14.347 11.2533 14.5004 11.5333 14.4271 11.8C14.3671 12.02 14.1671 12.1666 13.9471 12.1666Z" fill="white"/>
</svg>
