<svg
  width="101"
  height="101"
  viewBox="0 0 101 101"
  fill="none"
  xmlns="http://www.w3.org/2000/svg"
>
<g clipPath="url(#clip0_71_321)">
<path
      d="M11.8303 46.3954C11.8387 46.0067 11.7313 45.6243 11.5218 45.2967C11.3123 44.9692 11.0102 44.7114 10.6538 44.556C10.2974 44.4006 9.90285 44.3546 9.5203 44.424C9.13775 44.4934 8.78448 44.675 8.50536 44.9456C8.22625 45.2163 8.03391 45.5638 7.95279 45.9441C7.87167 46.3243 7.90543 46.7201 8.04979 47.0811C8.19414 47.4421 8.44257 47.7521 8.76349 47.9715C9.08441 48.191 9.46333 48.3101 9.8521 48.3137C10.3621 48.2996 10.8482 48.0947 11.2145 47.7395C11.5807 47.3843 11.8005 46.9047 11.8303 46.3954Z"
      fill="#FEFEFE"
    />
<path
      d="M28.8017 18.178C23.3467 18.178 17.8953 18.178 12.4403 18.1287C11.7351 18.1287 11.8409 18.5165 11.8409 18.9327C11.8409 25.0449 11.8409 31.1571 11.8409 37.2694C11.8552 37.6299 11.8375 37.991 11.788 38.3484C11.7208 38.8119 11.4878 39.2354 11.1323 39.5403C10.7767 39.8452 10.3227 40.0109 9.85433 40.0066C9.38597 40.0023 8.93506 39.8283 8.58517 39.5169C8.23529 39.2055 8.01015 38.7778 7.95149 38.3131C7.90324 37.9556 7.88672 37.5945 7.90213 37.2341C7.90213 25.9288 7.90213 14.6235 7.88097 3.31825C7.88097 2.02058 7.96913 0.849836 9.0834 0H99.4167C100.074 0.284687 100.626 0.766524 100.996 1.37879V76.524C100.14 77.6207 98.9724 77.73 97.6748 77.7265C82.9495 77.6983 68.2243 77.7265 53.499 77.6877C52.6386 77.6877 52.4024 77.8746 52.4412 78.7456C52.4976 80.1561 51.8417 80.9813 50.4383 81.0342C48.3473 81.1153 47.092 81.9651 46.5983 84.0632C46.4149 84.8425 46.2986 85.3715 46.8381 86.0838C49.0631 89.0177 49.0313 89.0388 46.4643 91.613C45.0009 93.0764 43.5411 94.5504 42.0707 96.0068C40.9247 97.1422 39.9726 97.3256 38.8019 96.2254C37.2822 94.7972 35.8752 94.7444 34.1015 95.7106C33.2799 96.1584 32.9027 96.5957 32.7722 97.4737C32.2538 100.951 32.2009 100.968 28.6748 100.972C26.5591 100.972 24.4681 100.972 22.3629 100.972C20.8114 100.972 20.0145 100.408 19.9475 98.856C19.8629 96.8249 19.0272 95.6824 17.0314 95.1323C16.0934 94.8713 15.5045 94.8995 14.7535 95.4602C11.9819 97.5301 11.9325 97.5019 9.46422 95.0335C7.97618 93.5489 6.48108 92.0644 5.00362 90.5692C3.86114 89.4161 3.67778 88.4535 4.77442 87.3004C6.20605 85.7805 6.29067 84.3594 5.28571 82.6069C4.86257 81.8663 4.54522 81.3092 3.61784 81.2951C3.06107 81.2534 2.50824 81.1697 1.96407 81.0447C0.631175 80.8084 0.0352561 80.1243 0.0282038 78.7526C0.00939756 76.0891 0.00939756 73.4268 0.0282038 70.7656C0.0282038 69.3128 0.652325 68.4876 2.12274 68.4382C4.15381 68.3712 5.29629 67.539 5.8499 65.5326C6.10731 64.6016 6.08968 64.0127 5.5255 63.2616C3.45211 60.49 3.48032 60.4406 5.94511 57.9722C7.43315 56.4841 8.91414 54.989 10.4057 53.5079C11.5658 52.3619 12.5214 52.1715 13.6745 53.2752C15.1942 54.7069 16.6188 54.7809 18.3643 53.7935C19.1012 53.381 19.676 53.0671 19.6831 52.1291C19.7213 51.572 19.805 51.0188 19.9334 50.4753C20.1697 49.1424 20.8502 48.5394 22.2184 48.5218C24.4187 48.49 26.619 48.49 28.8194 48.4794C29.246 48.4794 29.6727 48.5076 30.0994 48.5112C31.6791 48.5323 32.3385 49.1177 32.5853 50.7045C32.6946 51.4098 32.8357 52.115 32.9379 52.8415C32.9443 52.9699 32.9867 53.0939 33.0603 53.1993C33.1339 53.3047 33.2357 53.3872 33.354 53.4374C35.2581 54.386 37.1517 55.3169 38.8901 53.1447C38.9627 53.078 39.0447 53.0222 39.1334 52.979C40.0678 52.4112 40.9635 52.4359 41.7428 53.1976C43.7715 55.17 45.7696 57.1682 47.7372 59.1923C48.5694 60.0421 48.5941 60.9554 47.9206 61.9569C47.5491 62.5392 47.1429 63.0985 46.7041 63.6319C46.2986 64.1079 46.3232 64.51 46.4855 65.12C47.0602 67.2746 48.1745 68.5264 50.6005 68.4805C51.7994 68.4594 52.4165 69.3656 52.4623 70.5963C52.5188 71.3181 52.5188 72.0432 52.4623 72.765C52.3636 73.6219 52.6915 73.7629 53.4849 73.7594C67.653 73.7336 81.8212 73.7336 95.9893 73.7594C96.892 73.7594 97.093 73.5267 97.093 72.6451C97.0648 54.8279 97.0648 37.0108 97.093 19.1936C97.093 18.2873 96.8568 18.0899 95.9787 18.0899C73.919 18.1181 51.8605 18.1251 29.8031 18.111C29.4576 18.1463 29.1297 18.1674 28.8017 18.178ZM28.3856 14.1686C30.9139 14.1686 33.4422 14.2004 35.9739 14.2004C56.0167 14.2004 76.0606 14.2004 96.1057 14.2004C96.8638 14.2004 97.0895 14.0276 97.0754 13.2447C97.0225 10.5189 97.0048 7.78957 97.0754 5.06375C97.1 4.10107 96.8391 3.90008 95.9012 3.90361C73.7545 3.93182 51.6078 3.94005 29.4611 3.92829C29.1085 3.92829 28.7383 3.94944 28.3786 3.96002C23.0588 3.96002 17.7401 3.94476 12.4227 3.91419C11.9431 3.91419 11.8197 4.05524 11.8232 4.52424C11.8444 7.54274 11.8444 10.5636 11.8232 13.5868C11.8232 14.0523 11.9431 14.1968 12.4227 14.1933C17.7472 14.1827 23.0646 14.1792 28.3856 14.1686ZM15.0356 90.5481C15.4942 90.5072 15.9563 90.5612 16.3931 90.7067C18.2373 91.4719 20.0921 92.223 21.9363 92.9918C22.2564 93.1238 22.5392 93.3324 22.76 93.5992C22.9807 93.8661 23.1325 94.183 23.2022 94.5222C23.4137 95.3579 23.107 96.5463 23.8439 96.9518C24.528 97.3256 25.5718 97.0435 26.4603 97.0505H27.0527C28.9146 97.0505 28.9639 97.0505 29.1684 95.1605C29.188 94.6174 29.3776 94.0942 29.7104 93.6647C30.0431 93.2351 30.5023 92.9208 31.0232 92.7661C32.1164 92.4154 33.178 91.973 34.1968 91.4438C36.1749 90.3118 37.9557 90.2766 39.6024 92.0044C39.955 92.3571 40.2195 92.3288 40.565 91.948C41.2068 91.2427 41.905 90.5939 42.5785 89.9204C43.8443 88.6544 43.8867 88.6192 42.7618 87.184C41.9614 86.1578 41.8027 85.174 42.3881 84.0103C42.9068 83.023 43.3306 81.9887 43.6539 80.9213C44.2604 78.7279 45.4981 77.4373 47.8853 77.5149C48.3966 77.5149 48.5412 77.2469 48.5236 76.7603C48.4883 75.9069 48.5236 75.0536 48.5236 74.2002C48.5236 72.1091 48.5236 72.0844 46.4713 71.8164C45.5616 71.6965 44.8246 71.3545 44.4544 70.4729C43.6786 68.6286 42.924 66.7809 42.1694 64.9296C42.0363 64.6105 41.9834 64.2636 42.0154 63.9194C42.0474 63.5751 42.1632 63.244 42.3528 62.9549C42.79 62.2179 43.8549 61.5867 43.6292 60.7932C43.4036 59.9998 42.4656 59.5097 41.8415 58.882L41.4219 58.4624C40.1207 57.1647 40.1031 57.1435 38.6009 58.2684C37.7899 58.8749 36.986 59.2452 35.9669 58.8115C34.1862 58.0604 32.3949 57.3375 30.6071 56.6005C30.2681 56.4669 29.9669 56.2525 29.7297 55.976C29.4924 55.6994 29.3264 55.369 29.246 55.0136C29.0239 54.1814 29.373 52.9896 28.6043 52.584C27.899 52.2138 26.8729 52.4924 25.9878 52.4853H25.5929C23.5583 52.4853 23.5301 52.4853 23.2797 54.4918C23.2454 55.0008 23.059 55.4877 22.7446 55.8895C22.4303 56.2913 22.0025 56.5893 21.5167 56.745C19.9546 57.341 18.4136 57.9898 16.8797 58.6493C16.3432 58.8988 15.7577 59.0253 15.166 59.0195C14.3092 58.7268 13.6463 58.1168 12.9481 57.5843C12.5073 57.2528 12.2428 57.1753 11.8303 57.6443C11.2308 58.3495 10.5432 58.9596 9.89441 59.6084C8.61089 60.892 8.56505 60.9308 9.68284 62.3413C10.0767 62.7812 10.3226 63.3336 10.3858 63.9207C10.4491 64.5078 10.3265 65.1 10.0355 65.6137C9.33022 67.0912 8.72021 68.611 8.13839 70.1379C7.98866 70.6069 7.70021 71.0194 7.31114 71.3209C6.92206 71.6225 6.45067 71.799 5.95921 71.827C3.92814 72.0844 3.93167 72.1161 3.93519 74.1226V75.6001C3.93519 77.462 3.93519 77.4973 5.82169 77.7159C6.36442 77.7365 6.88708 77.9265 7.31644 78.2591C7.7458 78.5917 8.06033 79.0504 8.21595 79.5707C8.55347 80.6317 8.98172 81.6617 9.49595 82.6492C10.6596 84.6803 10.7336 86.5281 8.93178 88.2207C8.57916 88.5452 8.68846 88.7955 9.01287 89.0988C9.77452 89.804 10.5044 90.5763 11.2485 91.3203C12.3345 92.4064 12.331 92.3994 13.544 91.5354C14.0412 91.1793 14.5419 90.869 15.0356 90.5481Z"
      fill="#5E666E"
    />
<path
      d="M101 1.3788C100.628 0.767291 100.074 0.286682 99.4167 0.00354004H99.6142C101 0.00354004 101 0.00354861 101 1.3788Z"
      fill="#5E666E"
    />
<path
      d="M28.8017 18.178C29.1297 18.178 29.4576 18.1463 29.7855 18.1463C51.8452 18.1463 73.9038 18.1392 95.9611 18.1251C96.8391 18.1251 97.0789 18.3226 97.0754 19.2289C97.0472 37.0437 97.0472 54.8608 97.0754 72.6803C97.0754 73.5619 96.8744 73.7982 95.9717 73.7947C81.8035 73.7641 67.6354 73.7641 53.4673 73.7947C52.6739 73.7947 52.3459 73.6571 52.4447 72.8002C52.5011 72.0784 52.5011 71.3534 52.4447 70.6316C52.3988 69.3868 51.7818 68.4805 50.5829 68.5158C48.1569 68.5617 47.0567 67.3098 46.4678 65.1552C46.3056 64.5452 46.2809 64.1432 46.6865 63.6672C47.1253 63.1338 47.5315 62.5745 47.903 61.9922C48.5765 60.9837 48.5518 60.0774 47.7196 59.2276C45.7403 57.2035 43.7421 55.2052 41.7251 53.2329C40.9459 52.4712 40.0502 52.4465 39.1158 53.0142C39.0271 53.0574 38.9451 53.1132 38.8725 53.18C37.1341 55.3522 35.2405 54.4212 33.3364 53.4726C33.218 53.4224 33.1162 53.3399 33.0427 53.2345C32.9691 53.1291 32.9267 53.0051 32.9203 52.8767C32.818 52.1714 32.677 51.4662 32.5677 50.7398C32.3209 49.1529 31.6615 48.5676 30.0817 48.5464C29.6551 48.5464 29.2284 48.5253 28.8017 48.5147V45.81C29.1543 45.81 29.5246 45.7783 29.8843 45.7783H50.0963C50.4239 45.7977 50.7524 45.7977 51.08 45.7783C51.5729 45.742 52.0337 45.5206 52.37 45.1586C52.7064 44.7965 52.8933 44.3207 52.8933 43.8265C52.8933 43.3323 52.7064 42.8565 52.37 42.4944C52.0337 42.1324 51.5729 41.911 51.08 41.8747C50.7529 41.8464 50.4243 41.8394 50.0963 41.8535L28.8017 41.8218V37.1142C29.1543 37.1142 29.5246 37.086 29.8843 37.086H62.0076C62.3688 37.1043 62.7309 37.0925 63.0902 37.0507C63.4852 37.0156 63.8588 36.856 64.1573 36.5949C64.4558 36.3338 64.6637 35.9847 64.751 35.5979C65.1036 34.1874 64.1339 33.1295 62.4026 33.1295H34.7116C32.744 33.1295 30.7729 33.1083 28.8017 33.0977V28.4395C29.1543 28.4395 29.5246 28.4078 29.8843 28.4078H76.9903C78.8416 28.4078 79.7266 27.7907 79.7584 26.4824C79.7901 25.1742 78.8804 24.4619 76.9903 24.4619H29.8843C29.5316 24.4619 29.179 24.4442 28.8017 24.4301V18.178ZM77.6815 65.0777C75.2837 65.0777 72.8859 65.0565 70.4916 65.0777C69.1975 65.0953 68.3759 65.9169 68.3759 67.0665C68.3744 67.3311 68.4273 67.5932 68.5315 67.8365C68.6356 68.0798 68.7887 68.2991 68.9812 68.4806C69.1736 68.6622 69.4015 68.8023 69.6504 68.892C69.8993 68.9818 70.164 69.0194 70.4281 69.0024C75.2202 69.0271 80.0123 69.0024 84.8078 69.0024C85.2063 69.0225 85.6014 68.92 85.9399 68.7088C86.2784 68.4976 86.5442 68.1878 86.7014 67.8211C87.322 66.4564 86.3206 65.0882 84.6598 65.0671C82.3431 65.0741 80.0228 65.0953 77.6815 65.0953V65.0777ZM81.867 37.0648C83.8699 37.0648 85.8763 37.0648 87.8615 37.0648C89.2438 37.0648 90.1147 36.2926 90.1394 35.1359C90.1641 33.9793 89.2649 33.133 87.8368 33.1295C83.864 33.1154 79.8877 33.1154 75.9078 33.1295C74.4973 33.1295 73.5629 33.937 73.5735 35.1148C73.5841 36.2926 74.4903 37.0613 75.9325 37.0683C77.9071 37.093 79.8924 37.0825 81.867 37.0825V37.0648ZM79.7125 60.3383C81.3205 60.3383 82.9319 60.3383 84.5434 60.3383C85.9997 60.3383 86.8777 59.5767 86.8777 58.3707C86.8777 57.1647 86.0173 56.4241 84.5469 56.4241C81.324 56.4241 78.1022 56.4241 74.8817 56.4241C73.4148 56.4241 72.5544 57.1717 72.5544 58.3918C72.5544 59.6119 73.4183 60.3524 74.8781 60.363C76.4967 60.3701 78.1011 60.3595 79.7125 60.3595V60.3383ZM88.1753 45.7289C88.6847 45.7277 89.1737 45.5283 89.5386 45.1729C89.9035 44.8174 90.1158 44.334 90.1305 43.8247C90.1451 43.3155 89.961 42.8206 89.6172 42.4448C89.2733 42.069 88.7967 41.8417 88.2882 41.8112C88.026 41.7955 87.7634 41.8326 87.5159 41.9203C87.2684 42.008 87.041 42.1445 86.8472 42.3218C86.6535 42.4991 86.4974 42.7135 86.3881 42.9523C86.2788 43.191 86.2186 43.4494 86.211 43.7119C86.2034 43.9744 86.2487 44.2357 86.344 44.4804C86.4394 44.725 86.583 44.9481 86.7662 45.1362C86.9494 45.3243 87.1685 45.4738 87.4106 45.5756C87.6527 45.6774 87.9127 45.7295 88.1753 45.7289ZM88.3305 24.4513C87.9419 24.4606 87.5648 24.5853 87.2472 24.8094C86.9296 25.0336 86.6857 25.3471 86.5467 25.7101C86.4077 26.0731 86.3797 26.4693 86.4663 26.8483C86.553 27.2272 86.7503 27.5719 87.0333 27.8385C87.3162 28.105 87.672 28.2814 88.0555 28.3453C88.4389 28.4092 88.8327 28.3576 89.1868 28.1972C89.5409 28.0367 89.8392 27.7746 90.044 27.4442C90.2488 27.1137 90.3507 26.7299 90.3369 26.3414C90.2964 25.8355 90.068 25.3631 89.6966 25.0172C89.3253 24.6713 88.8379 24.477 88.3305 24.4724V24.4513ZM62.8575 41.8253C62.3466 41.846 61.8631 42.0621 61.5068 42.4289C61.1506 42.7957 60.9487 43.2852 60.9427 43.7965C60.9455 44.0576 61 44.3156 61.1031 44.5556C61.2062 44.7955 61.3559 45.0126 61.5435 45.1943C61.7311 45.376 61.9528 45.5186 62.1959 45.614C62.439 45.7094 62.6986 45.7557 62.9597 45.7501C63.4727 45.7146 63.9535 45.4867 64.3058 45.1122C64.6582 44.7376 64.8562 44.2438 64.8603 43.7295C64.8205 43.2208 64.5938 42.7449 64.224 42.3933C63.8543 42.0417 63.3675 41.8394 62.8575 41.8253ZM75.5517 45.7501C75.9408 45.7493 76.3208 45.6328 76.6435 45.4153C76.9662 45.1979 77.2168 44.8893 77.3636 44.5289C77.5103 44.1686 77.5465 43.7727 77.4676 43.3916C77.3886 43.0106 77.1981 42.6617 76.9202 42.3893C76.6424 42.1169 76.2897 41.9334 75.9072 41.8621C75.5247 41.7907 75.1297 41.8348 74.7723 41.9887C74.4149 42.1427 74.1114 42.3994 73.9005 42.7264C73.6895 43.0533 73.5806 43.4357 73.5876 43.8247C73.6147 44.3338 73.832 44.8141 74.1963 45.1707C74.5607 45.5272 75.0457 45.734 75.5552 45.7501H75.5517Z"
      fill="#ECF1F9"
    />
<path
      d="M28.8017 24.4266C29.1543 24.4266 29.5246 24.4583 29.8843 24.4583H76.9903C78.8803 24.4583 79.7866 25.1213 79.7584 26.4789C79.7301 27.8365 78.8416 28.4042 76.9903 28.4042H29.8843C29.5316 28.4042 29.179 28.4254 28.8017 28.436L21.6366 28.4042C21.2431 28.427 20.8488 28.378 20.4729 28.2597C20.0533 28.1129 19.6961 27.8275 19.4603 27.4507C19.2244 27.0738 19.1239 26.6278 19.1753 26.1862C19.2411 25.6927 19.4901 25.2421 19.873 24.9239C20.2559 24.6057 20.7445 24.4433 21.2416 24.4689C23.174 24.4337 25.1204 24.4689 27.0386 24.4689C27.6275 24.4583 28.2164 24.4407 28.8017 24.4266Z"
      fill="#5E666E"
    />
<path
      d="M28.8017 33.1048C30.7729 33.1048 32.744 33.1365 34.7116 33.1365H62.392C64.1234 33.1365 65.1001 34.1944 64.7404 35.6049C64.6531 35.9918 64.4452 36.3409 64.1468 36.602C63.8483 36.8631 63.4746 37.0227 63.0796 37.0578C62.7204 37.0996 62.3583 37.1114 61.9971 37.093H29.8737C29.5211 37.093 29.1685 37.1107 28.7912 37.1212L21.626 37.093C21.2327 37.1123 20.839 37.0633 20.4624 36.9485C20.0432 36.8006 19.6864 36.5152 19.4501 36.1387C19.2138 35.7622 19.112 35.3168 19.1612 34.875C19.2271 34.3784 19.4779 33.9249 19.8636 33.6052C20.2493 33.2855 20.7414 33.1232 21.2416 33.1506C23.1422 33.1154 25.0393 33.1506 26.9399 33.1506C27.5605 33.1506 28.1882 33.1154 28.8017 33.1048Z"
      fill="#5E666E"
    />
<path
      d="M28.8017 41.7865L50.0963 41.8183C50.4243 41.8041 50.7529 41.8112 51.0801 41.8394C51.5729 41.8757 52.0337 42.0971 52.37 42.4592C52.7064 42.8212 52.8933 43.2971 52.8933 43.7912C52.8933 44.2854 52.7064 44.7613 52.37 45.1233C52.0337 45.4853 51.5729 45.7067 51.0801 45.743C50.7524 45.7625 50.4239 45.7625 50.0963 45.743H29.8843C29.5317 45.743 29.179 45.7642 28.8017 45.7748L21.6366 45.743C21.2432 45.764 20.8492 45.715 20.4729 45.5984C20.0537 45.4518 19.6966 45.1672 19.4602 44.7912C19.2238 44.4151 19.1221 43.9699 19.1718 43.5285C19.2391 43.0348 19.489 42.5842 19.8722 42.2657C20.2553 41.9471 20.7439 41.7837 21.2416 41.8077C23.1422 41.7724 25.0393 41.8077 26.9399 41.8077C27.5605 41.8147 28.1882 41.7971 28.8017 41.7865Z"
      fill="#5E666E"
    />
<path
      d="M11.8303 46.3954C11.8217 46.7841 11.6977 47.1614 11.4742 47.4795C11.2506 47.7975 10.9376 48.0419 10.5748 48.1816C10.212 48.3213 9.81589 48.35 9.43677 48.2641C9.05765 48.1781 8.71263 47.9814 8.44556 47.6989C8.1785 47.4164 8.00144 47.0609 7.93689 46.6776C7.87234 46.2942 7.9232 45.9003 8.08302 45.5459C8.24285 45.1915 8.50441 44.8927 8.83448 44.6873C9.16454 44.4819 9.54821 44.3793 9.93673 44.3925C10.4461 44.4278 10.9235 44.6534 11.2743 45.0245C11.6251 45.3955 11.8235 45.8849 11.8303 46.3954Z"
      fill="#5E666E"
    />
<path
      d="M15.1696 59.016C15.7613 59.0218 16.3468 58.8953 16.8833 58.6457C18.4172 57.9863 19.9581 57.3375 21.5202 56.7415C22.006 56.5858 22.4338 56.2877 22.7482 55.886C23.0626 55.4842 23.249 54.9972 23.2833 54.4882C23.5336 52.4782 23.5618 52.4818 25.5964 52.4818H25.9914C26.8764 52.4818 27.9131 52.2102 28.6078 52.5805C29.3765 52.986 29.0274 54.1779 29.2496 55.0101C29.3303 55.3635 29.4957 55.6919 29.7316 55.9671C29.9675 56.2423 30.2668 56.4561 30.6036 56.5899C32.3914 57.3269 34.1827 58.0498 35.9634 58.8009C36.9824 59.2346 37.7864 58.8644 38.5974 58.2578C40.096 57.133 40.1137 57.1541 41.4184 58.4518L41.838 58.8714C42.4621 59.4991 43.4142 60.0351 43.6257 60.7827C43.8373 61.5302 42.7865 62.1932 42.3493 62.9443C42.1597 63.2334 42.0439 63.5646 42.0119 63.9088C41.9799 64.2531 42.0328 64.5999 42.1659 64.919C42.9205 66.7703 43.6751 68.6181 44.4509 70.4623C44.8035 71.3439 45.5581 71.6859 46.4678 71.8058C48.5236 72.0844 48.5201 72.0985 48.5201 74.1896C48.5201 75.043 48.4989 75.8963 48.5201 76.7497C48.5201 77.2363 48.3931 77.5184 47.8818 77.5043C45.4911 77.4268 44.2534 78.7174 43.6504 80.9107C43.3271 81.9781 42.9032 83.0124 42.3845 83.9997C41.7992 85.174 41.9579 86.1578 42.7583 87.1734C43.8832 88.6086 43.8408 88.6439 42.5749 89.9098C41.9014 90.5833 41.2033 91.2357 40.5615 91.9374C40.2089 92.3183 39.9374 92.35 39.5989 91.9939C37.9521 90.266 36.1714 90.3012 34.1932 91.4332C33.1745 91.9624 32.1129 92.4048 31.0197 92.7555C30.4988 92.9102 30.0396 93.2245 29.7068 93.6541C29.3741 94.0836 29.1845 94.6068 29.1649 95.1499C28.9569 97.0435 28.9075 97.04 27.0492 97.04H26.4604C25.5718 97.04 24.528 97.315 23.8439 96.9412C23.107 96.5357 23.4137 95.3474 23.2022 94.5116C23.1325 94.1724 22.9807 93.8555 22.76 93.5886C22.5392 93.3218 22.2564 93.1132 21.9363 92.9812C20.0921 92.2125 18.2373 91.4614 16.3931 90.6962C15.9563 90.5506 15.4942 90.4966 15.0356 90.5375C13.75 88.1745 12.7192 85.6815 11.9608 83.1006C10.9911 79.6514 10.6331 76.0591 10.9029 72.4864C11.2727 67.7284 12.7326 63.1192 15.1696 59.016ZM26.1959 88.2313C28.8627 88.2243 31.4676 87.4269 33.6814 85.9398C35.8952 84.4527 37.6184 82.3427 38.6333 79.8764C39.6482 77.4102 39.9093 74.6984 39.3834 72.0838C38.8576 69.4692 37.5685 67.0692 35.6791 65.1871C33.7896 63.305 31.3847 62.0253 28.7682 61.5097C26.1516 60.9941 23.441 61.2658 20.9788 62.2904C18.5167 63.315 16.4135 65.0465 14.9351 67.2662C13.4568 69.4858 12.6696 72.0939 12.673 74.7609C12.6716 76.5347 13.0208 78.2913 13.7006 79.9297C14.3803 81.5681 15.3772 83.056 16.6339 84.3078C17.8906 85.5596 19.3823 86.5507 21.0233 87.224C22.6643 87.8974 24.4222 88.2397 26.1959 88.2313Z"
      fill="#71D5FC"
    />
<path
      d="M28.3856 3.97767C28.7383 3.97767 29.0909 3.94592 29.4682 3.94592C51.6125 3.94592 73.7592 3.93769 95.9082 3.92123C96.8462 3.92123 97.1071 4.11872 97.0824 5.0814C97.0048 7.80722 97.0225 10.5366 97.0824 13.2624C97.0824 14.0452 96.8708 14.218 96.1127 14.218C76.0676 14.1968 56.0237 14.1968 35.981 14.218C33.4492 14.218 30.9209 14.1968 28.3927 14.1863C28.3927 13.1531 28.3927 12.1234 28.3927 11.0902C29.6868 10.7376 30.3356 10.0605 30.3356 9.09079C30.3356 8.12106 29.6868 7.45105 28.3927 7.09137C28.3821 6.04053 28.3856 5.00734 28.3856 3.97767ZM69.4443 7.09842H50.604C48.7598 7.09842 47.7619 7.80369 47.7831 9.10841C47.8042 10.4131 48.7704 11.0443 50.5652 11.0443H88.4398C88.8337 11.06 89.2283 11.0363 89.6175 10.9738C90.052 10.8845 90.4426 10.6486 90.724 10.3057C91.0053 9.96285 91.1605 9.53376 91.1634 9.09021C91.1662 8.64665 91.0167 8.21554 90.7398 7.86903C90.4629 7.52251 90.0755 7.2816 89.6422 7.18658C89.2549 7.11703 88.8612 7.08984 88.468 7.10548L69.4443 7.09842ZM35.572 7.09842C35.1812 7.10294 34.8007 7.22393 34.479 7.44591C34.1574 7.66789 33.9093 7.98076 33.7665 8.34453C33.6236 8.70829 33.5926 9.1064 33.6772 9.48793C33.7619 9.86945 33.9584 10.2171 34.2417 10.4863C34.525 10.7555 34.8821 10.934 35.2675 10.9991C35.6528 11.0642 36.0488 11.0129 36.4048 10.8517C36.7608 10.6905 37.0606 10.4268 37.2659 10.0942C37.4712 9.76171 37.5726 9.37548 37.5572 8.98498C37.5283 8.47703 37.3055 7.99956 36.9347 7.65113C36.564 7.3027 36.0737 7.10989 35.5649 7.11252L35.572 7.09842Z"
      fill="#FEC56B"
    />
<path
      d="M77.6815 65.0953C80.0123 65.0953 82.3431 65.0742 84.6739 65.0953C86.3347 65.1165 87.3361 66.4847 86.7155 67.8494C86.5583 68.2161 86.2925 68.5259 85.954 68.737C85.6155 68.9482 85.2204 69.0507 84.8219 69.0307C80.0264 69.0307 75.2343 69.0307 70.4422 69.0307C70.1782 69.0476 69.9134 69.01 69.6645 68.9203C69.4156 68.8305 69.1878 68.6904 68.9953 68.5089C68.8028 68.3273 68.6497 68.108 68.5456 67.8647C68.4414 67.6214 68.3885 67.3594 68.39 67.0947C68.39 65.9452 69.1975 65.1235 70.5057 65.1059C72.8859 65.0742 75.2837 65.0953 77.6815 65.0953Z"
      fill="#5E666E"
    />
<path
      d="M81.867 37.0825C79.8924 37.0825 77.9212 37.0825 75.9501 37.0825C74.5079 37.0825 73.5982 36.3102 73.5911 35.1289C73.5841 33.9476 74.5009 33.1506 75.9254 33.1436C79.9029 33.1436 83.8793 33.1436 87.8545 33.1436C89.2649 33.1436 90.1782 33.9546 90.157 35.15C90.1359 36.3455 89.2614 37.0684 87.8791 37.0789C85.8763 37.0966 83.8699 37.0825 81.867 37.0825Z"
      fill="#5E666E"
    />
<path
      d="M79.7125 60.3595C78.1011 60.3595 76.4896 60.3595 74.8781 60.3595C73.4183 60.3595 72.5544 59.6013 72.5544 58.3883C72.5544 57.1753 73.4148 56.4277 74.8817 56.4206C78.1046 56.4206 81.3263 56.4206 84.5469 56.4206C86.0067 56.4206 86.8812 57.1823 86.8777 58.3918C86.8742 59.6013 85.9997 60.3489 84.5434 60.3595C82.9319 60.3701 81.3205 60.3595 79.7125 60.3595Z"
      fill="#5E666E"
    />
<path
      d="M88.1753 45.7501C87.9127 45.7507 87.6527 45.6986 87.4106 45.5968C87.1685 45.4949 86.9494 45.3455 86.7662 45.1574C86.583 44.9693 86.4394 44.7462 86.344 44.5015C86.2487 44.2569 86.2034 43.9955 86.211 43.733C86.2185 43.4705 86.2788 43.2122 86.388 42.9734C86.4973 42.7346 86.6535 42.5203 86.8472 42.343C87.041 42.1657 87.2684 42.0292 87.5159 41.9415C87.7634 41.8537 88.026 41.8166 88.2882 41.8324C88.7966 41.8629 89.2733 42.0901 89.6172 42.466C89.961 42.8418 90.1451 43.3367 90.1304 43.8459C90.1158 44.3551 89.9035 44.8386 89.5386 45.1941C89.1737 45.5495 88.6847 45.7489 88.1753 45.7501Z"
      fill="#5E666E"
    />
<path
      d="M88.3305 24.4725C88.7192 24.4634 89.1018 24.5701 89.4296 24.779C89.7575 24.9879 90.0159 25.2896 90.1719 25.6457C90.328 26.0018 90.3746 26.3963 90.3059 26.779C90.2372 27.1616 90.0563 27.5153 89.7861 27.7949C89.516 28.0745 89.1688 28.2674 88.7887 28.3492C88.4087 28.4311 88.0128 28.398 87.6516 28.2543C87.2903 28.1106 86.98 27.8628 86.7599 27.5422C86.5399 27.2217 86.4201 26.843 86.4158 26.4542C86.429 25.9442 86.633 25.4576 86.9875 25.0907C87.342 24.7238 87.8212 24.5032 88.3305 24.4725Z"
      fill="#5E666E"
    />
<path
      d="M62.8575 41.8253C63.3675 41.8394 63.8543 42.0418 64.2241 42.3933C64.5938 42.7449 64.8205 43.2208 64.8603 43.7295C64.8537 44.2408 64.6555 44.731 64.3049 45.1032C63.9543 45.4754 63.4768 45.7025 62.9668 45.7395C62.7057 45.7451 62.4461 45.6989 62.203 45.6035C61.9599 45.5081 61.7381 45.3654 61.5506 45.1837C61.363 45.002 61.2133 44.7849 61.1102 44.545C61.0071 44.3051 60.9525 44.0471 60.9498 43.7859C60.9583 43.2776 61.1604 42.7917 61.5149 42.4274C61.8694 42.063 62.3496 41.8477 62.8575 41.8253Z"
      fill="#5E666E"
    />
<path
      d="M75.5552 45.7501C75.0352 45.7459 74.5382 45.5353 74.1735 45.1646C73.8088 44.794 73.6063 44.2936 73.6105 43.7736C73.6147 43.2536 73.8253 42.7566 74.1959 42.3919C74.5666 42.0272 75.0669 41.8247 75.5869 41.8289C75.8444 41.8309 76.0989 41.8837 76.336 41.9842C76.5731 42.0846 76.788 42.2308 76.9686 42.4143C77.1492 42.5979 77.2918 42.8152 77.3884 43.0539C77.485 43.2925 77.5337 43.5479 77.5316 43.8054C77.5295 44.0628 77.4768 44.3174 77.3763 44.5544C77.2758 44.7915 77.1297 45.0065 76.9462 45.1871C76.7626 45.3677 76.5453 45.5103 76.3067 45.6069C76.068 45.7035 75.8127 45.7522 75.5552 45.7501Z"
      fill="#5E666E"
    />
<path
      d="M26.1959 88.2313C23.5268 88.2305 20.9179 87.4379 18.6995 85.9537C16.4812 84.4694 14.753 82.3604 13.7338 79.8934C12.7147 77.4265 12.4504 74.7126 12.9743 72.0954C13.4983 69.4781 14.787 67.0752 16.6773 65.1907C18.5676 63.3063 20.9745 62.0251 23.5933 61.5094C26.2121 60.9936 28.925 61.2665 31.3886 62.2934C33.8523 63.3203 35.9559 65.0552 37.4331 67.2783C38.9103 69.5014 39.6947 72.1128 39.687 74.782C39.6656 78.3497 38.2361 81.7646 35.7094 84.2834C33.1827 86.8022 29.7635 88.2211 26.1959 88.2313ZM26.2382 65.2046C23.7167 65.2207 21.3013 66.2217 19.5075 67.9938C17.7136 69.766 16.6833 72.1691 16.6365 74.6903C16.5765 79.8881 20.9736 84.2889 26.2206 84.2854C28.7191 84.2397 31.1 83.2157 32.8516 81.4333C34.6032 79.651 35.5857 77.2526 35.588 74.7536C35.5903 72.2546 34.6122 69.8545 32.8639 68.0689C31.1156 66.2833 28.7366 65.2549 26.2382 65.2046Z"
      fill="#5E666E"
    />
<path
      d="M69.4444 7.09843H88.4857C88.8788 7.08278 89.2726 7.10997 89.6599 7.17953C90.0931 7.27454 90.4806 7.51548 90.7575 7.86199C91.0344 8.20851 91.1839 8.6396 91.181 9.08315C91.1781 9.5267 91.023 9.95582 90.7416 10.2987C90.4602 10.6416 90.0696 10.8774 89.6352 10.9668C89.2459 11.0293 88.8514 11.0529 88.4574 11.0373H50.5758C48.781 11.0373 47.8219 10.3708 47.7937 9.10136C47.7655 7.83189 48.7598 7.09137 50.6146 7.09137L69.4444 7.09843Z"
      fill="#5E666E"
    />
<path
      d="M35.5649 7.1125C35.9553 7.09849 36.341 7.20123 36.6727 7.40758C37.0045 7.61392 37.2671 7.91451 37.4271 8.2709C37.5871 8.62729 37.6372 9.0233 37.571 9.40831C37.5048 9.79333 37.3253 10.1498 37.0554 10.4323C36.7855 10.7148 36.4375 10.9103 36.0559 10.994C35.6743 11.0776 35.2765 11.0456 34.9132 10.9019C34.5499 10.7583 34.2377 10.5096 34.0165 10.1876C33.7953 9.86559 33.6751 9.48494 33.6714 9.0943C33.6717 8.58388 33.8686 8.09319 34.2213 7.72416C34.5739 7.35512 35.0551 7.13607 35.5649 7.1125Z"
      fill="#5E666E"
    />
<path
      d="M28.3821 11.0725C27.0316 10.7199 26.4462 10.1451 26.4216 9.12249C26.3969 8.09987 26.9999 7.43693 28.2869 7.09488L28.3821 7.07019C29.6762 7.42282 30.325 8.10339 30.325 9.07312C30.325 10.0429 29.6762 10.7129 28.3821 11.0725Z"
      fill="#5E666E"
    />
<path
      d="M23.0717 9.04494C23.0773 9.43387 22.9671 9.81567 22.7551 10.1418C22.5431 10.4679 22.2389 10.7236 21.8812 10.8763C21.5235 11.029 21.1284 11.0719 20.7463 10.9995C20.3641 10.927 20.0121 10.7426 19.7351 10.4695C19.4581 10.1965 19.2686 9.84721 19.1906 9.46614C19.1126 9.08507 19.1498 8.6894 19.2973 8.3295C19.4448 7.9696 19.6961 7.66171 20.0191 7.445C20.3421 7.22829 20.7222 7.11256 21.1112 7.11252C21.6203 7.13124 22.1041 7.34004 22.4669 7.69772C22.8298 8.05541 23.0456 8.53606 23.0717 9.04494Z"
      fill="#5E666E"
    />
</g>
<defs>
<clipPath id="clip0_71_321">
<rect width="101" height="101" fill="white" />
</clipPath>
</defs>
</svg>
