<svg id="Layer_1" data-name="Layer 1" xmlns="http://www.w3.org/2000/svg" viewBox="0 0 256.8 256.81"><defs><style>.cls-1{fill:#1ebe73;}</style></defs><path class="cls-1" d="M252.2,214.51a15.73,15.73,0,0,1-22.25,0l-82.66-82.66,0,0c-.18-.18-.36-.37-.53-.56s-.38-.42-.55-.63-.39-.49-.57-.75-.34-.47-.49-.72l-.23-.37c-.15-.26-.3-.52-.44-.78s-.31-.63-.45-1a0,0,0,0,1,0,0,14.77,14.77,0,0,1-.73-2s0,0,0-.08c-.08-.28-.16-.57-.22-.86a1.55,1.55,0,0,0-.05-.23c-.06-.29-.11-.59-.16-.89a.28.28,0,0,0,0-.09c0-.33-.08-.67-.1-1a.76.76,0,0,1,0-.15c0-.34,0-.67,0-1s0-.5,0-.75,0-.4,0-.6.07-.71.13-1.06a3.54,3.54,0,0,1,.08-.45c0-.23.09-.47.14-.7s.12-.49.19-.73.16-.53.24-.79a.34.34,0,0,0,0-.12c.2-.54.42-1.07.67-1.6,0,0,0,0,0,0,10.89-22.74,6.84-49.38-10.07-66.29s-43.57-21-66.33-10A15.73,15.73,0,1,1,54.24,9.16C89-7.51,130.07-1,156.41,25.33c23.71,23.72,31.35,59.37,20.46,91.61l75.33,75.33A15.73,15.73,0,0,1,252.2,214.51ZM144,127.05a14.77,14.77,0,0,1-.73-2A14,14,0,0,0,144,127.05Zm-.46-11.54c.2-.54.42-1.07.67-1.6A13.89,13.89,0,0,0,143.54,115.51Zm71,114.45-82.4-82.4-.49-.49a.43.43,0,0,0-.1-.09c-.21-.21-.43-.4-.65-.59a16.34,16.34,0,0,0-1.65-1.22l-.36-.23-.61-.34-.4-.22-.77-.37-.09,0c-.31-.13-.63-.26-.95-.37l-.6-.2-.26-.08a4.64,4.64,0,0,0-.64-.17l-.18-.05-.65-.14a6.54,6.54,0,0,0-.75-.13l-.6-.07-.23,0-.67,0a14.59,14.59,0,0,0-3,.14l-.74.13c-.25,0-.49.1-.73.16s-.56.14-.84.23l-.63.2-.76.29-.83.37-.08,0c-22.74,10.86-49.35,6.81-66.25-10.09s-21-43.57-10-66.32A15.73,15.73,0,1,0,9.16,54.24C-7.51,89-1,130.07,25.33,156.41a87.55,87.55,0,0,0,62.11,25.33,92,92,0,0,0,29.49-4.87l75.34,75.33A15.73,15.73,0,0,0,214.51,230Zm-82.68-82.69-.21-.2.49.49Z"/></svg>