<svg width="95" height="95" viewBox="0 0 95 95" fill="none" xmlns="http://www.w3.org/2000/svg">
<path d="M47.5 95C60.0978 95 72.1796 89.9955 81.0876 81.0876C89.9956 72.1796 95 60.0978 95 47.5C95 34.9022 89.9956 22.8204 81.0876 13.9124C72.1796 5.00446 60.0978 6.47908e-06 47.5 6.22887e-06L47.5 47.5L47.5 95Z" fill="#5E666E" fill-opacity="0.7"/>
<path d="M73.7991 60.9155C73.97 60.7256 73.9701 60.4373 73.7994 60.2471L62.6559 47.834C62.4853 47.644 62.4853 47.356 62.6559 47.166L73.7994 34.7529C73.9701 34.5627 73.97 34.2744 73.7991 34.0844L70.8559 30.8131C70.6573 30.5924 70.3111 30.5924 70.1125 30.8131L55.4005 47.1656C55.2294 47.3557 55.2294 47.6443 55.4005 47.8344L70.1125 64.1868C70.3111 64.4076 70.6573 64.4076 70.8559 64.1868L73.7991 60.9155Z" fill="white"/>
</svg>
