<svg width="8" height="16" viewBox="0 0 8 16" fill="none" xmlns="http://www.w3.org/2000/svg">
<path d="M6.86474 15.9979C7.12953 15.9985 7.38614 15.9057 7.59003 15.7357C7.70478 15.6399 7.79964 15.5224 7.86917 15.3897C7.93869 15.257 7.98153 15.1118 7.99521 14.9625C8.0089 14.8131 7.99317 14.6625 7.94892 14.5193C7.90467 14.3761 7.83278 14.243 7.73735 14.1278L2.66032 8.01564L7.55603 1.89208C7.65017 1.77543 7.72047 1.64122 7.76289 1.49715C7.80531 1.35308 7.81901 1.202 7.80321 1.05259C7.78742 0.90317 7.74243 0.758369 7.67084 0.626506C7.59925 0.494642 7.50246 0.378315 7.38604 0.284212C7.26879 0.180401 7.13147 0.102097 6.98272 0.054216C6.83396 0.00633472 6.67698 -0.0100902 6.52162 0.00597114C6.36625 0.0220325 6.21587 0.0702339 6.0799 0.14755C5.94392 0.224867 5.8253 0.329628 5.73147 0.455262L0.257802 7.29723C0.0911196 7.50127 -1.63183e-06 7.75721 -1.65492e-06 8.02134C-1.67801e-06 8.28547 0.0911195 8.54141 0.257802 8.74545L5.92413 15.5874C6.03781 15.7254 6.18223 15.8345 6.34566 15.9058C6.50909 15.9772 6.68692 16.0087 6.86474 15.9979Z" fill="#838CAC"/>
</svg>
