<svg width="32" height="32" viewBox="0 0 32 32" fill="none" xmlns="http://www.w3.org/2000/svg">
<path d="M29.3337 25.3333V29.3333H2.66699V25.3333C2.66699 24.6 3.26699 24 4.00033 24H28.0003C28.7337 24 29.3337 24.6 29.3337 25.3333Z" fill="#7D9BFD" stroke="#7D9BFD" stroke-width="1.5" stroke-miterlimit="10" stroke-linecap="round" stroke-linejoin="round"/>
<path d="M9.33366 14.6667H6.66699V24H9.33366V14.6667Z" fill="#7D9BFD"/>
<path d="M14.6667 14.6667H12V24H14.6667V14.6667Z" fill="#7D9BFD"/>
<path d="M19.9997 14.6667H17.333V24H19.9997V14.6667Z" fill="#7D9BFD"/>
<path d="M25.3337 14.6667H22.667V24H25.3337V14.6667Z" fill="#7D9BFD"/>
<path d="M30.6663 30.3333H1.33301C0.786341 30.3333 0.333008 29.88 0.333008 29.3333C0.333008 28.7867 0.786341 28.3333 1.33301 28.3333H30.6663C31.213 28.3333 31.6663 28.7867 31.6663 29.3333C31.6663 29.88 31.213 30.3333 30.6663 30.3333Z" fill="#7D9BFD"/>
<path d="M28.4937 7.66668L16.4937 2.86668C16.227 2.76002 15.7737 2.76002 15.507 2.86668L3.50699 7.66668C3.04033 7.85335 2.66699 8.40002 2.66699 8.90668V13.3333C2.66699 14.0667 3.26699 14.6667 4.00033 14.6667H28.0003C28.7337 14.6667 29.3337 14.0667 29.3337 13.3333V8.90668C29.3337 8.40002 28.9603 7.85335 28.4937 7.66668ZM16.0003 11.3333C14.8937 11.3333 14.0003 10.44 14.0003 9.33335C14.0003 8.22668 14.8937 7.33335 16.0003 7.33335C17.107 7.33335 18.0003 8.22668 18.0003 9.33335C18.0003 10.44 17.107 11.3333 16.0003 11.3333Z" fill="#7D9BFD"/>
</svg>
