<svg width="56" height="56" viewBox="0 0 56 56" fill="none" xmlns="http://www.w3.org/2000/svg">
<rect width="56" height="56" rx="28" fill="#E0E3EB"/>
<path d="M31.5081 36.1646C31.7784 36.1651 32.0403 36.0704 32.2485 35.8969C32.3656 35.7991 32.4625 35.6791 32.5334 35.5437C32.6044 35.4082 32.6481 35.2601 32.6621 35.1076C32.6761 34.9551 32.66 34.8014 32.6148 34.6552C32.5697 34.5089 32.4963 34.3731 32.3989 34.2555L27.2161 28.016L32.2138 21.7649C32.3099 21.6458 32.3816 21.5088 32.4249 21.3617C32.4682 21.2146 32.4822 21.0604 32.4661 20.9079C32.45 20.7554 32.4041 20.6075 32.331 20.4729C32.2579 20.3383 32.1591 20.2196 32.0402 20.1235C31.9205 20.0175 31.7804 19.9376 31.6285 19.8887C31.4767 19.8398 31.3164 19.8231 31.1578 19.8395C30.9992 19.8559 30.8457 19.9051 30.7069 19.984C30.5681 20.0629 30.447 20.1699 30.3512 20.2981L24.7635 27.2826C24.5933 27.4909 24.5003 27.7522 24.5003 28.0218C24.5003 28.2915 24.5933 28.5527 24.7635 28.761L30.5479 35.7455C30.6639 35.8864 30.8114 35.9978 30.9782 36.0706C31.145 36.1434 31.3266 36.1756 31.5081 36.1646Z" fill="#3C4563"/>
</svg>
