<svg width="56" height="56" viewBox="0 0 56 56" fill="none" xmlns="http://www.w3.org/2000/svg">
<rect x="56" y="56" width="56" height="56" rx="28" transform="rotate(180 56 56)" fill="#E0E3EB"/>
<path d="M24.4919 19.8354C24.2216 19.8349 23.9597 19.9296 23.7515 20.1031C23.6344 20.2009 23.5375 20.3209 23.4666 20.4563C23.3956 20.5918 23.3519 20.7399 23.3379 20.8924C23.3239 21.0449 23.34 21.1986 23.3852 21.3448C23.4303 21.4911 23.5037 21.6269 23.6011 21.7445L28.7839 27.984L23.7862 34.2351C23.6901 34.3542 23.6184 34.4912 23.5751 34.6383C23.5318 34.7854 23.5178 34.9396 23.5339 35.0921C23.55 35.2446 23.5959 35.3925 23.669 35.5271C23.7421 35.6617 23.8409 35.7804 23.9598 35.8765C24.0795 35.9825 24.2196 36.0624 24.3715 36.1113C24.5233 36.1602 24.6836 36.1769 24.8422 36.1605C25.0008 36.1441 25.1543 36.0949 25.2931 36.016C25.4319 35.9371 25.553 35.8301 25.6488 35.7019L31.2365 28.7174C31.4067 28.5091 31.4997 28.2478 31.4997 27.9782C31.4997 27.7085 31.4067 27.4473 31.2365 27.239L25.4521 20.2545C25.3361 20.1136 25.1886 20.0022 25.0218 19.9294C24.855 19.8566 24.6734 19.8244 24.4919 19.8354Z" fill="#3C4563"/>
</svg>
