<?xml version="1.0" encoding="UTF-8"?>
<svg version="1.1" xmlns="http://www.w3.org/2000/svg" width="1200" height="800">
<path d="M0 0 C396 0 792 0 1200 0 C1200 264 1200 528 1200 800 C804 800 408 800 0 800 C0 536 0 272 0 0 Z " fill="#D2D6DB" transform="translate(0,0)"/>
<path d="M0 0 C2.33183607 0.67188497 4.66501142 1.33915417 7 2 C8.35350594 2.62469505 9.69934483 3.2716331 11 4 C11 4.66 11 5.32 11 6 C11.53109375 6.10183594 12.0621875 6.20367187 12.609375 6.30859375 C15.7021784 7.20308101 18.38451568 8.59861127 21.25 10.0625 C22.32765625 10.61035156 23.4053125 11.15820312 24.515625 11.72265625 C25.33546875 12.14417969 26.1553125 12.56570312 27 13 C27 13.66 27 14.32 27 15 C27.886875 15.226875 28.77375 15.45375 29.6875 15.6875 C33.47917931 17.1898635 35.21313665 19.07022058 38 22 C38.928125 22.556875 39.85625 23.11375 40.8125 23.6875 C41.534375 24.120625 42.25625 24.55375 43 25 C43 25.66 43 26.32 43 27 C43.81791016 27.34224609 43.81791016 27.34224609 44.65234375 27.69140625 C47.70363323 29.3922082 50.001766 31.56490156 52.5625 33.9375 C53.51253906 34.81277344 54.46257812 35.68804687 55.44140625 36.58984375 C60.77463993 41.61366846 60.77463993 41.61366846 62.3125 44.25 C64.18065651 47.2944032 66.36742384 49.74306894 68.79296875 52.3515625 C70 54 70 54 70 57 C70.66 57 71.32 57 72 57 C76.42698363 61.42698363 78.83518814 66.45645934 81.53515625 72.0625 C82.72879499 74.45614356 83.97207286 76.64562888 85.4375 78.875 C87.77760256 82.50330234 89.78865763 86.28239047 91.75 90.125 C92.34296875 91.28257812 92.9359375 92.44015625 93.546875 93.6328125 C94.92691796 96.83065399 95.60217811 99.55569998 96 103 C96.66 103 97.32 103 98 103 C98.38671875 103.9178125 98.7734375 104.835625 99.171875 105.78125 C102.42389444 113.55732262 102.42389444 113.55732262 106.125 121.125 C108.72706172 126.17796633 110.30627894 131.59124469 112 137 C112.30292969 137.9178125 112.60585938 138.835625 112.91796875 139.78125 C114.37430166 144.32117982 115.38144586 148.16835246 115 153 C115.66 153 116.32 153 117 153 C121.33444735 169.54570765 124.45884674 185.95695893 126 203 C126.08830078 203.95302002 126.17660156 204.90604004 126.26757812 205.88793945 C128.82105188 235.74658988 126.38446844 264.10573021 119.34765625 293.203125 C118.05163342 298.62994969 117.1676985 303.96099177 116.49609375 309.5 C115.71446587 315.01447702 114.55113967 320.45045555 113.40771484 325.89990234 C111.35380288 335.80035335 110.75054157 345.40056057 110.4375 355.5 C110.39431641 356.799375 110.35113281 358.09875 110.30664062 359.4375 C110.2011749 362.62490845 110.09905552 365.81238698 110 369 C110.66 369 111.32 369 112 369 C112.268125 370.216875 112.53625 371.43375 112.8125 372.6875 C113.68588915 376.24389036 115.04607115 378.89147683 117 382 C117 382.99 117 383.98 117 385 C117.66 385 118.32 385 119 385 C119.67154933 386.28913487 120.33708859 387.58140204 121 388.875 C121.37125 389.59429687 121.7425 390.31359375 122.125 391.0546875 C123 393 123 393 123 395 C123.66 395 124.32 395 125 395 C126.2890625 396.6796875 126.2890625 396.6796875 127.625 398.875 C128.29402344 399.95394531 128.29402344 399.95394531 128.9765625 401.0546875 C130 403 130 403 130 405 C129.40574219 405.23074219 128.81148437 405.46148437 128.19921875 405.69921875 C120.63295619 408.67630184 113.0662918 411.75939023 105.9375 415.6875 C102.69335215 417.13701287 99.73992956 417.7090837 96.2578125 418.33203125 C91.01072841 419.40787223 85.85909831 420.84259105 80.6887207 422.23583984 C74.2971024 423.95147447 68.67427141 425.13086807 62 425 C63.20625932 428.43319959 64.28732622 430.58873442 67 433 C67.825 433.86625 68.65 434.7325 69.5 435.625 C71.83688754 438.1812626 71.83688754 438.1812626 75 439 C75 439.66 75 440.32 75 441 C69.95985292 442.01176361 65.13126955 442.16096319 60.015625 442.16796875 C59.15998962 442.17129715 58.30435425 442.17462555 57.42279053 442.17805481 C55.61747777 442.18310051 53.81215574 442.18546387 52.00683594 442.18530273 C49.27262637 442.18748197 46.53882545 442.20564283 43.8046875 442.22460938 C35.2883207 442.25118287 27.29350436 442.19482908 19 440 C19.35949437 444.88997109 19.73243504 449.77868013 20.11694336 454.66674805 C20.24548779 456.32370345 20.37059056 457.98093011 20.49194336 459.63842773 C21.15719558 468.69188085 22.01180947 477.40902299 24.28710938 486.23168945 C25.88148511 492.4229999 27.14873955 498.59275791 27 505 C27.66 505 28.32 505 29 505 C31.28571429 513.42857143 31.28571429 513.42857143 31 518 C31.66 518 32.32 518 33 518 C33 518.99 33 519.98 33 521 C33.66 521 34.32 521 35 521 C35.474375 522.19625 35.94875 523.3925 36.4375 524.625 C38.42645197 529.10905301 40.86240178 533.19041085 43.5 537.3125 C43.87954834 537.91078613 44.25909668 538.50907227 44.65014648 539.12548828 C48.70994307 545.41811435 48.70994307 545.41811435 55 549 C55 549.66 55 550.32 55 551 C55.66 551 56.32 551 57 551 C57 551.66 57 552.32 57 553 C57.556875 553.0825 58.11375 553.165 58.6875 553.25 C61 554 61 554 63.15625 555.79296875 C66.52275877 558.4057125 69.99664305 560.19944285 73.8125 562.0625 C74.48603516 562.40087891 75.15957031 562.73925781 75.85351562 563.08789062 C81.42643032 565.84501684 87.09888282 568.03296094 93 570 C93 570.66 93 571.32 93 572 C93.69351562 572.11085938 94.38703125 572.22171875 95.1015625 572.3359375 C98.40185184 573.09206848 101.26121291 574.29255564 104.375 575.625 C112.12980087 578.85300818 120.09080133 581.26638197 128.14208984 583.63916016 C129.08777832 583.91808105 130.0334668 584.19700195 131.0078125 584.484375 C131.84973145 584.72897461 132.69165039 584.97357422 133.55908203 585.22558594 C136.0970821 586.0308006 138.54034094 586.98232361 141 588 C141 588.66 141 589.32 141 590 C142.48886719 590.34611328 142.48886719 590.34611328 144.0078125 590.69921875 C152.18098042 592.64482548 160.03480471 594.91321696 167.9140625 597.8515625 C172.22021828 599.45410655 176.5194266 600.96602152 181 602 C181 602.66 181 603.32 181 604 C181.87785156 603.94070313 182.75570312 603.88140625 183.66015625 603.8203125 C187.43532776 604.02342114 189.23321862 604.93103829 192.4375 606.875 C196.60230414 609.27820455 200.3065657 610.84878027 205 612 C207.68849131 612.94859888 210.33986313 613.97328051 213 615 C213 615.66 213 616.32 213 617 C213.58265625 617.11472656 214.1653125 617.22945312 214.765625 617.34765625 C217.16523135 618.04824062 218.72860933 618.98192595 220.75 620.4375 C221.36359375 620.86933594 221.9771875 621.30117188 222.609375 621.74609375 C223.06828125 622.15988281 223.5271875 622.57367187 224 623 C224 623.66 224 624.32 224 625 C224.66 625 225.32 625 226 625 C226 625.66 226 626.32 226 627 C226.99 627 227.98 627 229 627 C230.68359375 628.57421875 230.68359375 628.57421875 232.4375 630.6875 C233.35015625 631.77998047 233.35015625 631.77998047 234.28125 632.89453125 C234.8484375 633.58933594 235.415625 634.28414062 236 635 C236.804375 635.94875 237.60875 636.8975 238.4375 637.875 C240 640 240 640 240 642 C240.66 642 241.32 642 242 642 C242 642.99 242 643.98 242 645 C242.66 645 243.32 645 244 645 C244.33 646.32 244.66 647.64 245 649 C245.66 649 246.32 649 247 649 C249 652 249 652 249 655 C249.66 655 250.32 655 251 655 C252.34409762 657.24416299 253.67529896 659.49442796 255 661.75 C255.3815625 662.38421875 255.763125 663.0184375 256.15625 663.671875 C258.17915652 667.13971476 259 668.89348254 259 673 C259.66 673 260.32 673 261 673 C263.71935102 678.2511606 265.96525524 683.45466282 268 689 C268.4870326 690.29864605 268.97529186 691.5968328 269.46484375 692.89453125 C270.48181428 695.59749606 271.49404758 698.30218306 272.50390625 701.0078125 C273.4143673 703.4461537 274.33890357 705.8767964 275.27734375 708.3046875 C275.63957031 709.25601563 276.00179687 710.20734375 276.375 711.1875 C276.85066406 712.41533203 276.85066406 712.41533203 277.3359375 713.66796875 C278 716 278 716 278 721 C50.3 721 -177.4 721 -412 721 C-411.18070152 714.44561216 -410.3760065 710.78505931 -408 705 C-407.34 705 -406.68 705 -406 705 C-405.87625 704.13375 -405.7525 703.2675 -405.625 702.375 C-405.01941879 699.10486147 -404.11693965 696.12743101 -403 693 C-402.34 693 -401.68 693 -401 693 C-400.87625 691.948125 -400.7525 690.89625 -400.625 689.8125 C-400.08859218 686.54041229 -399.36119965 683.99463924 -398 681 C-397.34 681 -396.68 681 -396 681 C-395.6596875 679.2984375 -395.6596875 679.2984375 -395.3125 677.5625 C-394.26544379 673.32940131 -392.43816574 669.92975878 -390.2421875 666.1875 C-388.55484159 663.21607324 -387.27966771 660.16549381 -386 657 C-385.34 657 -384.68 657 -384 657 C-383.87625 656.360625 -383.7525 655.72125 -383.625 655.0625 C-383.41875 654.381875 -383.2125 653.70125 -383 653 C-382.34 652.67 -381.68 652.34 -381 652 C-380.566875 650.7625 -380.13375 649.525 -379.6875 648.25 C-378.20743915 644.1028988 -376.24871414 642.0321332 -373 639 C-371.73654866 637.38543637 -370.48795292 635.7591963 -369.25 634.125 C-365.3573214 629.19134144 -361.10939522 625.6098988 -356 622 C-355.3915625 621.53851562 -354.783125 621.07703125 -354.15625 620.6015625 C-347.72392199 615.77731649 -340.68341227 612.77297609 -333.19921875 609.9296875 C-330.77760749 608.98675438 -330.77760749 608.98675438 -328 607 C-326.36737467 606.51553314 -324.718708 606.08391983 -323.0625 605.6875 C-318.90793419 604.60654858 -315.06403561 603.2678461 -311.125 601.5625 C-305.90914471 599.30681193 -300.65859218 597.57287414 -295.203125 595.9921875 C-292.1106695 595.03428055 -289.11169868 593.94194371 -286.08837891 592.78955078 C-282.59960606 591.47055483 -279.08058199 590.23821434 -275.5625 589 C-274.4482666 588.60590942 -274.4482666 588.60590942 -273.31152344 588.20385742 C-269.47359515 586.85100031 -265.62876981 585.54457982 -261.75 584.3125 C-258.14283934 583.22022932 -258.14283934 583.22022932 -255.8203125 581.56640625 C-251.41962836 579.12225896 -246.64428606 578.21826471 -241.76953125 577.0703125 C-236.91228381 575.82946946 -233.56158832 574.20119244 -229.60888672 571.1328125 C-227.23305011 569.45999279 -224.80366365 568.87016289 -222 568.1875 C-215.19038698 566.27229634 -209.43644801 563.24774775 -203.3125 559.8046875 C-200.57075581 558.31095423 -197.92442265 557.07450378 -195 556 C-195 555.34 -195 554.68 -195 554 C-193.68 553.67 -192.36 553.34 -191 553 C-191 552.34 -191 551.68 -191 551 C-189.3203125 549.59765625 -189.3203125 549.59765625 -187.125 548.0625 C-184.32503965 546.10052062 -182.93937238 544.90905857 -181 542 C-180.34 542 -179.68 542 -179 542 C-178.87625 541.195625 -178.7525 540.39125 -178.625 539.5625 C-178.41875 538.716875 -178.2125 537.87125 -178 537 C-177.34 536.67 -176.68 536.34 -176 536 C-175.67 535.34 -175.34 534.68 -175 534 C-174 532 -174 532 -172 531 C-170.98470459 528.67328135 -169.98511802 526.3396553 -169 524 C-168.34 523.34 -167.68 522.68 -167 522 C-166.43309033 520.08101077 -165.94273056 518.13888307 -165.5 516.1875 C-164.19354839 510.47177419 -164.19354839 510.47177419 -163.0625 507.71484375 C-158.10129888 495.03824529 -156.29321839 481.03986871 -155.20605469 467.55517578 C-154.89495646 463.69741027 -154.5497321 459.84282127 -154.20385742 455.98803711 C-154.02951865 454.03227888 -153.86021168 452.07606399 -153.6965332 450.11938477 C-153.62007568 449.23436279 -153.54361816 448.34934082 -153.46484375 447.4375 C-153.399021 446.65246094 -153.33319824 445.86742187 -153.26538086 445.05859375 C-153 443 -153 443 -152 440 C-152.70125 440.13277344 -153.4025 440.26554687 -154.125 440.40234375 C-155.07375 440.57894531 -156.0225 440.75554687 -157 440.9375 C-157.928125 441.11152344 -158.85625 441.28554688 -159.8125 441.46484375 C-167.56185936 442.76590041 -174.96064539 443.15453676 -182.8125 443.125 C-183.82892578 443.12886719 -184.84535156 443.13273437 -185.89257812 443.13671875 C-204.33017541 443.1132164 -204.33017541 443.1132164 -209 440 C-207.71034824 438.62437146 -206.37310707 437.29233607 -205 436 C-204.34 436 -203.68 436 -203 436 C-202.67 435.01 -202.34 434.02 -202 433 C-201.34 433 -200.68 433 -200 433 C-199.34 431.35 -198.68 429.7 -198 428 C-197.34 428 -196.68 428 -196 428 C-196 427.01 -196 426.02 -196 425 C-196.59014893 424.94465088 -197.18029785 424.88930176 -197.78833008 424.83227539 C-200.46341208 424.57932313 -203.13794603 424.320973 -205.8125 424.0625 C-206.74126953 423.97548828 -207.67003906 423.88847656 -208.62695312 423.79882812 C-209.51962891 423.71181641 -210.41230469 423.62480469 -211.33203125 423.53515625 C-212.15421143 423.456604 -212.9763916 423.37805176 -213.82348633 423.29711914 C-216 423 -216 423 -219 422 C-219 421.34 -219 420.68 -219 420 C-220.051875 419.896875 -221.10375 419.79375 -222.1875 419.6875 C-238.34278747 417.65721253 -238.34278747 417.65721253 -242 414 C-243.81485377 413.34240267 -245.65253826 412.74697617 -247.5 412.1875 C-253.32655423 410.32272117 -258.62439188 407.90187695 -264 405 C-263.67 403.68 -263.34 402.36 -263 401 C-262.34 401 -261.68 401 -261 401 C-260.34 399.68 -259.68 398.36 -259 397 C-258.34 397 -257.68 397 -257 397 C-256.71125 396.071875 -256.4225 395.14375 -256.125 394.1875 C-255 391 -255 391 -253 388 C-252.34 388 -251.68 388 -251 388 C-250.88785156 387.27039063 -250.77570313 386.54078125 -250.66015625 385.7890625 C-249.97444705 382.89204255 -248.90822532 380.94772179 -247.4375 378.375 C-242.10980429 366.96510831 -244.28208459 350.96218325 -247 339 C-247.33 338.36449219 -247.66 337.72898437 -248 337.07421875 C-249.45547335 334.05524863 -249.69580837 331.06090688 -250.125 327.75 C-250.29257812 326.48671875 -250.46015625 325.2234375 -250.6328125 323.921875 C-250.75398437 322.95765625 -250.87515625 321.9934375 -251 321 C-251.66 321 -252.32 321 -253 321 C-255.20659386 312.77995336 -256.83406266 304.60640732 -258.0625 296.1875 C-258.31737183 294.47965332 -258.31737183 294.47965332 -258.57739258 292.73730469 C-259.0586575 289.49252094 -259.53085979 286.2465557 -260 283 C-260.11762695 282.19965332 -260.23525391 281.39930664 -260.35644531 280.57470703 C-262.39100174 266.6719048 -263.18682809 252.8490122 -263.18530273 238.81420898 C-263.18749463 236.56800506 -263.20575912 234.32229008 -263.22460938 232.07617188 C-263.2611856 222.52585725 -262.44863126 213.45380925 -261 204 C-260.82550557 202.54548441 -260.65916957 201.08991749 -260.5078125 199.6328125 C-259.44141971 189.86117246 -257.41355403 180.51917711 -255 171 C-254.61635211 169.45723875 -254.23354594 167.91426795 -253.8515625 166.37109375 C-252.91074383 162.57823875 -251.9585735 158.78840486 -251 155 C-250.34 155 -249.68 155 -249 155 C-248.89042969 154.35933594 -248.78085937 153.71867188 -248.66796875 153.05859375 C-247.67465514 147.63978538 -246.21053494 143.06580925 -244 138 C-243.659858 136.5269441 -243.3487543 135.04696918 -243.0625 133.5625 C-242.1219893 128.88406214 -240.27972523 125.17949625 -238 121 C-237.34 121 -236.68 121 -236 121 C-235.8453125 119.2675 -235.8453125 119.2675 -235.6875 117.5 C-235.13964887 112.98828481 -233.7225121 109.19394251 -232 105 C-231.34 105 -230.68 105 -230 105 C-229.82984375 104.3709375 -229.6596875 103.741875 -229.484375 103.09375 C-227.85429647 97.33645135 -225.83080597 92.27115594 -223 87 C-222.34 87 -221.68 87 -221 87 C-221.04898438 86.26910156 -221.09796875 85.53820312 -221.1484375 84.78515625 C-220.98098405 81.64320066 -220.2338516 80.11116957 -218.625 77.4375 C-216.97983641 74.66188775 -215.40916328 71.90392994 -214 69 C-213.34 69 -212.68 69 -212 69 C-211.938125 68.319375 -211.87625 67.63875 -211.8125 66.9375 C-210.87101577 63.53367241 -209.35806729 61.47115752 -207.25390625 58.68359375 C-205.89601418 56.92311417 -205.89601418 56.92311417 -204.5625 54.5625 C-202.3118409 50.87141907 -199.87942992 47.23234055 -197 44 C-196.34 44 -195.68 44 -195 44 C-194.62875 43.13375 -194.62875 43.13375 -194.25 42.25 C-192.81700012 39.67060021 -191.21575324 37.93878408 -189 36 C-188.34 36 -187.68 36 -187 36 C-187 35.34 -187 34.68 -187 34 C-185.63019876 33.04113913 -184.25121855 32.09348961 -182.8359375 31.203125 C-180.84478261 29.89828307 -178.99946792 28.46697489 -177.125 27 C-167.88642132 20 -167.88642132 20 -163 20 C-163 19.34 -163 18.68 -163 18 C-149.59323894 12.52715017 -137.67962682 9.8861036 -123.125 9.6875 C-121.78659058 9.66067139 -121.78659058 9.66067139 -120.42114258 9.63330078 C-114.81781217 9.64066459 -110.98809084 10.43174625 -106 13 C-104.7934375 13.5878125 -104.7934375 13.5878125 -103.5625 14.1875 C-103.046875 14.455625 -102.53125 14.72375 -102 15 C-102.0928125 13.9171875 -102.0928125 13.9171875 -102.1875 12.8125 C-101.95872146 9.38082189 -101.06476793 7.72844334 -99 5 C-96.875 3.8125 -96.875 3.8125 -95 3 C-94.67 2.34 -94.34 1.68 -94 1 C-93.01 1 -92.02 1 -91 1 C-91 0.34 -91 -0.32 -91 -1 C-83.44262321 -5.56591515 -75.57434702 -6.58148316 -67 -8 C-66.22011719 -8.18691406 -65.44023438 -8.37382813 -64.63671875 -8.56640625 C-44.21940423 -11.92392019 -18.79549179 -8.47639826 0 0 Z " fill="#FEFEFE" transform="translate(667,79)"/>
<path d="M0 0 C0.66 0.33 1.32 0.66 2 1 C0.89718873 2.27200971 -0.20730769 3.54255853 -1.3125 4.8125 C-1.92738281 5.52019531 -2.54226563 6.22789063 -3.17578125 6.95703125 C-4.73334335 8.70136739 -6.32658875 10.36778041 -8 12 C-8.66 11.67 -9.32 11.34 -10 11 C-9.34 10.01 -8.68 9.02 -8 8 C-7.34 8 -6.68 8 -6 8 C-5.7525 7.4225 -5.505 6.845 -5.25 6.25 C-3.83316683 3.6997003 -2.12372463 1.98214299 0 0 Z " fill="#EFF0F2" transform="translate(478,115)"/>
<path d="M0 0 C1.1171875 1.484375 1.1171875 1.484375 2 4 C1.5004408 6.85954576 0.91436709 9.47495794 0.125 12.25 C-0.07480469 12.99507813 -0.27460937 13.74015625 -0.48046875 14.5078125 C-0.97428986 16.34200518 -1.48547094 18.17150829 -2 20 C-2.33 20 -2.66 20 -3 20 C-2.51358785 13.15182898 -1.64006048 6.66957927 0 0 Z " fill="#E7EAEA" transform="translate(787,364)"/>
</svg>
