<svg width="16" height="16" viewBox="0 0 16 16" fill="none" xmlns="http://www.w3.org/2000/svg">
<g clip-path="url(#clip0_1733_491)">
<path d="M11.6864 9.73766C11.6864 10.4097 11.8776 10.6777 12.3776 10.6777C13.492 10.6777 14.2016 9.25766 14.2016 6.89606C14.2016 3.28646 11.5712 1.55846 8.28716 1.55846C4.90876 1.55846 1.83596 3.82406 1.83596 8.10566C1.83596 12.1953 4.52396 14.4225 8.65196 14.4225C10.0536 14.4225 10.9944 14.2689 12.4336 13.7889L12.7424 15.0745C11.3216 15.5361 9.80316 15.6697 8.63276 15.6697C3.21836 15.6697 0.318359 12.6937 0.318359 8.10486C0.318359 3.47766 3.67916 0.328857 8.30636 0.328857C13.1256 0.328857 15.6784 3.20886 15.6784 6.74166C15.6784 9.73686 14.7384 12.0217 11.7816 12.0217C10.4368 12.0217 9.55436 11.4841 9.43916 10.2929C9.09356 11.6177 8.17196 12.0217 6.92316 12.0217C5.25276 12.0217 3.85116 10.7345 3.85116 8.14326C3.85116 5.53206 5.08076 3.91926 7.28876 3.91926C8.45996 3.91926 9.18956 4.38006 9.51436 5.10966L10.072 4.09206H11.6848V9.73766H11.6864ZM9.32556 7.20326C9.32556 6.14806 8.53756 5.70566 7.88476 5.70566C7.17436 5.70566 6.38796 6.28086 6.38796 7.97126C6.38796 9.31526 6.98316 10.0641 7.88476 10.0641C8.51836 10.0641 9.32556 9.66086 9.32556 8.54726V7.20326Z" fill="#7D7D7D"/>
</g>
<defs>
<clipPath id="clip0_1733_491">
<rect width="16" height="16" fill="white"/>
</clipPath>
</defs>
</svg>
