<svg width="16" height="16" viewBox="0 0 16 16" fill="none" xmlns="http://www.w3.org/2000/svg">
<g clip-path="url(#clip0_1733_499)">
<path d="M0.000165485 7.7605C0.000165485 3.2995 3.49217 0 8.00017 0C12.5082 0 16.0002 3.2995 16.0002 7.7605C16.0002 12.219 12.5082 15.521 8.00017 15.521C7.19267 15.521 6.41417 15.414 5.68767 15.2135C5.54571 15.1749 5.39472 15.1869 5.26067 15.2475L3.66667 15.948C3.57049 15.9907 3.46527 16.0091 3.3603 16.0016C3.25533 15.994 3.15383 15.9607 3.06478 15.9046C2.97573 15.8485 2.90186 15.7714 2.84969 15.6799C2.79753 15.5885 2.76867 15.4857 2.76567 15.3805L2.71867 13.9535C2.71565 13.8677 2.69542 13.7834 2.65917 13.7056C2.62292 13.6278 2.5714 13.558 2.50767 13.5005C1.7056 12.7771 1.06702 11.891 0.634543 10.9013C0.202063 9.91157 -0.0143766 8.841 -0.000334515 7.761L0.000165485 7.7605ZM5.54717 6.2995L3.20067 10.034C2.96617 10.3855 3.41417 10.7945 3.74767 10.534L6.27367 8.62C6.3566 8.55533 6.45875 8.52021 6.56392 8.52021C6.66908 8.52021 6.77123 8.55533 6.85417 8.62L8.71867 10.021C8.85156 10.1196 9.00334 10.1898 9.16455 10.2272C9.32576 10.2645 9.49294 10.2683 9.65567 10.2382C9.8184 10.2082 9.97319 10.1449 10.1104 10.0524C10.2476 9.95988 10.3643 9.84009 10.4532 9.7005L12.7997 5.966C13.0342 5.6145 12.5862 5.2135 12.2527 5.466L9.72667 7.38C9.64513 7.44457 9.54417 7.4797 9.44017 7.4797C9.33616 7.4797 9.2352 7.44457 9.15367 7.38L7.28667 5.979C7.15396 5.87868 7.00182 5.80707 6.83994 5.76873C6.67806 5.73039 6.50997 5.72615 6.34636 5.7563C6.18275 5.78644 6.0272 5.8503 5.88962 5.94382C5.75203 6.03734 5.6354 6.15847 5.54717 6.2995Z" fill="#7D7D7D"/>
</g>
<defs>
<clipPath id="clip0_1733_499">
<rect width="16" height="16" fill="white"/>
</clipPath>
</defs>
</svg>
