<svg width="16" height="16" viewBox="0 0 16 16" fill="none" xmlns="http://www.w3.org/2000/svg">
<path d="M13.5 3H2.50002C2.2348 3 1.98045 3.10536 1.79291 3.29289C1.60537 3.48043 1.50002 3.73478 1.50002 4V14C1.49886 14.1907 1.55281 14.3777 1.65537 14.5384C1.75793 14.6992 1.90473 14.8269 2.07814 14.9062C2.21029 14.9678 2.35425 14.9998 2.50002 15C2.73477 14.9994 2.96174 14.9157 3.14064 14.7638C3.14362 14.7618 3.14635 14.7595 3.14877 14.7569L5.15627 13H13.5C13.7652 13 14.0196 12.8946 14.2071 12.7071C14.3947 12.5196 14.5 12.2652 14.5 12V4C14.5 3.73478 14.3947 3.48043 14.2071 3.29289C14.0196 3.10536 13.7652 3 13.5 3ZM13.5 12H5.15627C4.92078 11.9999 4.69281 12.0829 4.51252 12.2344L4.50502 12.2413L2.50002 14V4H13.5V12Z" fill="#7D7D7D"/>
</svg>
