<?xml version="1.0" encoding="UTF-8"?>
<svg version="1.1" xmlns="http://www.w3.org/2000/svg" width="602" height="386">
<path d="M0 0 C198.66 0 397.32 0 602 0 C602 127.38 602 254.76 602 386 C403.34 386 204.68 386 0 386 C0 258.62 0 131.24 0 0 Z " fill="#D1D5DA" transform="translate(0,0)"/>
<path d="M0 0 C0.93908203 -0.01466309 1.87816406 -0.02932617 2.84570312 -0.04443359 C11.79601575 0.08737548 19.76587654 2.68269811 26.3984375 8.84375 C29.23058322 12.00655233 32.9375 16.15599866 32.9375 20.5625 C34.05125 20.48 35.165 20.3975 36.3125 20.3125 C44.92142803 20.37323318 51.75298863 24.40349084 57.8359375 30.25 C71.54045749 45.3300666 71.52556451 62.70279302 71.25 81.9375 C71.23847846 84.00910556 71.2287023 86.08072159 71.22070312 88.15234375 C71.20728743 90.15105273 71.19236678 92.14975231 71.17578125 94.1484375 C71.16839432 95.06112396 71.16100739 95.97381042 71.15339661 96.91415405 C71.07076006 102.5274092 70.63955616 107.99198291 69.9375 113.5625 C70.56191986 113.7010289 71.18633972 113.8395578 71.8296814 113.98228455 C74.38992155 114.68703727 75.35932795 115.43761917 76.9375 117.5625 C77.32568359 119.64038086 77.32568359 119.64038086 77.3359375 122.02734375 C77.34206055 122.90438965 77.34818359 123.78143555 77.35449219 124.68505859 C77.33370605 126.07845459 77.33370605 126.07845459 77.3125 127.5 C77.30379883 128.44697754 77.29509766 129.39395508 77.28613281 130.36962891 C77.05467617 141.45488445 75.3193797 151.36518398 67.875 159.9375 C65.9375 161.5625 65.9375 161.5625 62.9375 162.5625 C62.1665969 164.4407579 62.1665969 164.4407579 61.796875 166.76171875 C61.61721191 167.63481689 61.43754883 168.50791504 61.25244141 169.4074707 C61.06601074 170.34550537 60.87958008 171.28354004 60.6875 172.25 C58.30583894 183.12772576 55.39147522 193.58850399 47 201.4375 C43.2335376 205.46634518 43.20090099 209.34434706 43.38037109 214.72070312 C43.52080352 217.00729801 43.71976287 219.28196598 43.9375 221.5625 C44.01822754 222.46033203 44.09895508 223.35816406 44.18212891 224.28320312 C45.455732 239.74517354 45.455732 239.74517354 51.9375 253.5625 C52.49783936 254.33859619 53.05817871 255.11469238 53.63549805 255.91430664 C61.26322607 264.68914659 74.07994719 269.91878385 84.3526001 275.07687378 C88.1918928 277.0063816 92.0165983 278.96452309 95.84375 280.91796875 C96.61252472 281.30958694 97.38129944 281.70120514 98.17337036 282.10469055 C165.45007239 316.40091288 165.45007239 316.40091288 175.90625 346.3359375 C177.16791367 350.31952372 177.9375 353.33906942 177.9375 357.5625 C58.4775 357.5625 -60.9825 357.5625 -184.0625 357.5625 C-182.19342453 340.7408208 -175.09788233 326.54064839 -162.0625 315.5625 C-142.59696125 300.21993384 -119.37291003 289.53911223 -97.35668945 278.3984375 C-89.92510445 274.63120792 -82.54249848 270.7978898 -75.265625 266.73828125 C-74.61508652 266.37800339 -73.96454803 266.01772552 -73.29429626 265.64653015 C-64.86604804 260.88858885 -57.21977074 254.99716787 -54.0625 245.5625 C-52.48086432 238.97523086 -51.70079608 232.29720006 -51.0625 225.5625 C-50.97500488 224.70076172 -50.88750977 223.83902344 -50.79736328 222.95117188 C-49.73345697 212.91815029 -49.73345697 212.91815029 -52.83203125 203.64453125 C-54.37315727 202.03514411 -55.96952352 200.47706874 -57.61328125 198.97265625 C-65.5324389 191.17980096 -68.14237361 179.88479175 -70.11425781 169.31494141 C-71.17912795 164.02532599 -71.17912795 164.02532599 -75.01171875 160.31640625 C-76.01847656 159.73761719 -77.02523437 159.15882813 -78.0625 158.5625 C-85.23595313 148.52273119 -86.14703091 136.93909401 -86.4375 125 C-86.46376465 124.32098633 -86.4900293 123.64197266 -86.51708984 122.94238281 C-86.52793923 119.61579257 -86.25082389 117.82424532 -84.2890625 115.09765625 C-82.0625 113.5625 -82.0625 113.5625 -78.0625 113.5625 C-78.5265625 111.95375 -78.5265625 111.95375 -79 110.3125 C-85.0055866 85.77903986 -81.59042539 55.71427734 -69.171875 33.76953125 C-59.7504029 19.44540422 -47.17839104 11.0078138 -31.0625 5.5625 C-29.99298096 5.19415039 -29.99298096 5.19415039 -28.90185547 4.81835938 C-19.29945001 1.61403477 -10.13361715 0.09661981 0 0 Z " fill="#FEFEFE" transform="translate(310.0625,28.4375)"/>
</svg>
