<svg width="23" height="14" viewBox="0 0 23 14" fill="none" xmlns="http://www.w3.org/2000/svg">
<path fill-rule="evenodd" clip-rule="evenodd" d="M11.179 11.8295C9.99493 12.8275 8.45902 13.43 6.78069 13.43C3.03582 13.43 0 10.4303 0 6.73003C0 3.02972 3.03582 0.0300293 6.78069 0.0300293C8.45902 0.0300293 9.99493 0.632527 11.179 1.63057C12.363 0.632527 13.8989 0.0300293 15.5773 0.0300293C19.3221 0.0300293 22.358 3.02972 22.358 6.73003C22.358 10.4303 19.3221 13.43 15.5773 13.43C13.8989 13.43 12.363 12.8275 11.179 11.8295Z" fill="#ED0006"/>
<path fill-rule="evenodd" clip-rule="evenodd" d="M11.1787 11.8295C12.6366 10.6006 13.5611 8.77198 13.5611 6.73003C13.5611 4.68807 12.6366 2.85947 11.1787 1.63057C12.3628 0.632526 13.8987 0.0300293 15.577 0.0300293C19.3219 0.0300293 22.3577 3.02972 22.3577 6.73003C22.3577 10.4303 19.3219 13.43 15.577 13.43C13.8987 13.43 12.3628 12.8275 11.1787 11.8295Z" fill="#F9A000"/>
<path fill-rule="evenodd" clip-rule="evenodd" d="M11.1793 11.8295C12.6372 10.6006 13.5616 8.77199 13.5616 6.73005C13.5616 4.68811 12.6372 2.85952 11.1793 1.63062C9.72133 2.85952 8.79688 4.68811 8.79688 6.73005C8.79688 8.77199 9.72133 10.6006 11.1793 11.8295Z" fill="#FF5E00"/>
</svg>
