<svg width="25" height="24" viewBox="0 0 25 24" fill="none" xmlns="http://www.w3.org/2000/svg">
<g clip-path="url(#clip0_1728_329)">
<path d="M0.49976 11.6407C0.49976 4.94925 5.73776 0 12.4998 0C19.2618 0 24.4998 4.94925 24.4998 11.6407C24.4998 18.3285 19.2618 23.2815 12.4998 23.2815C11.2885 23.2815 10.1208 23.121 9.03101 22.8202C8.81807 22.7623 8.5916 22.7803 8.39051 22.8713L5.99951 23.922C5.85524 23.9861 5.69741 24.0137 5.53996 24.0023C5.3825 23.991 5.23026 23.941 5.09669 23.8569C4.96311 23.7728 4.8523 23.657 4.77405 23.5199C4.6958 23.3828 4.65251 23.2285 4.64801 23.0707L4.57751 20.9303C4.57298 20.8016 4.54263 20.6751 4.48826 20.5584C4.43389 20.4416 4.35661 20.337 4.26101 20.2507C3.05791 19.1657 2.10005 17.8365 1.45133 16.3519C0.802606 14.8674 0.477947 13.2615 0.49901 11.6415L0.49976 11.6407ZM8.82026 9.44925L5.30051 15.051C4.94876 15.5783 5.62076 16.1918 6.12101 15.801L9.91001 12.93C10.0344 12.833 10.1876 12.7803 10.3454 12.7803C10.5031 12.7803 10.6564 12.833 10.7808 12.93L13.5775 15.0315C13.7769 15.1794 14.0045 15.2847 14.2463 15.3408C14.4882 15.3968 14.7389 15.4025 14.983 15.3574C15.2271 15.3123 15.4593 15.2174 15.6651 15.0786C15.8709 14.9398 16.0459 14.7601 16.1793 14.5507L19.699 8.949C20.0508 8.42175 19.3788 7.82025 18.8785 8.199L15.0895 11.07C14.9672 11.1669 14.8158 11.2195 14.6598 11.2195C14.5038 11.2195 14.3523 11.1669 14.23 11.07L11.4295 8.9685C11.2304 8.81801 11.0022 8.7106 10.7594 8.65309C10.5166 8.59558 10.2645 8.58923 10.019 8.63445C9.77364 8.67966 9.54032 8.77546 9.33393 8.91573C9.12755 9.05601 8.95262 9.2377 8.82026 9.44925Z" fill="#1162DB"/>
</g>
<defs>
<clipPath id="clip0_1728_329">
<rect width="24" height="24" fill="white" transform="translate(0.5)"/>
</clipPath>
</defs>
</svg>
