<svg width="12" height="14" viewBox="0 0 12 14" fill="none" xmlns="http://www.w3.org/2000/svg">
<path fill-rule="evenodd" clip-rule="evenodd" d="M3.61402 13.4483L3.83475 11.9992L3.34305 11.9873H0.995117L2.62685 1.2937C2.63193 1.26132 2.64837 1.23126 2.67237 1.20987C2.69648 1.18849 2.72722 1.17676 2.75938 1.17676H6.71836C8.03278 1.17676 8.9398 1.45939 9.41328 2.01734C9.63531 2.27908 9.7767 2.55267 9.84516 2.85364C9.91692 3.16951 9.9181 3.54685 9.84811 4.00715L9.84303 4.04063V4.33561L10.0651 4.46563C10.252 4.56815 10.4006 4.68546 10.5145 4.81975C10.7044 5.04361 10.8272 5.32808 10.8791 5.66521C10.9328 6.012 10.9151 6.42478 10.8272 6.89205C10.7259 7.42946 10.5622 7.89759 10.341 8.28055C10.1376 8.63344 9.8785 8.92622 9.57076 9.15302C9.27697 9.36857 8.92797 9.53219 8.53334 9.63691C8.15088 9.7398 7.71487 9.79173 7.23665 9.79173H6.92856C6.70831 9.79173 6.49432 9.87372 6.32633 10.0207C6.15786 10.1708 6.04649 10.3758 6.01232 10.6L5.98903 10.7305L5.59901 13.2848L5.5814 13.3785C5.57667 13.4082 5.56863 13.423 5.5568 13.433C5.54628 13.4422 5.53115 13.4483 5.51637 13.4483H3.61402Z" fill="#28356A"/>
<path fill-rule="evenodd" clip-rule="evenodd" d="M10.2761 4.07471C10.2644 4.15279 10.2508 4.23258 10.2356 4.31458C9.71356 7.08522 7.92731 8.04237 5.64605 8.04237H4.48449C4.20548 8.04237 3.97034 8.25169 3.92695 8.53616L3.16381 13.5394C3.13555 13.7263 3.27482 13.8945 3.45712 13.8945H5.5173C5.7612 13.8945 5.96845 13.7113 6.00687 13.4627L6.02709 13.3545L6.41498 10.8103L6.43993 10.6708C6.47788 10.4213 6.6856 10.238 6.92949 10.238H7.23759C9.23357 10.238 10.7961 9.40044 11.2528 6.97659C11.4435 5.96408 11.3448 5.11862 10.84 4.52402C10.6873 4.34476 10.4977 4.19592 10.2761 4.07471Z" fill="#298FC2"/>
<path fill-rule="evenodd" clip-rule="evenodd" d="M9.7298 3.84968C9.65 3.82561 9.56772 3.80386 9.4833 3.78419C9.39842 3.765 9.31152 3.74802 9.22203 3.73311C8.90885 3.68081 8.56565 3.65601 8.19809 3.65601H5.09505C5.01856 3.65601 4.94597 3.67385 4.88107 3.70611C4.7379 3.77722 4.63161 3.91726 4.60584 4.0887L3.94567 8.41023L3.92676 8.53621C3.97015 8.25175 4.20529 8.04243 4.4843 8.04243H5.64586C7.92712 8.04243 9.71337 7.08479 10.2354 4.31463C10.2511 4.23264 10.2642 4.15285 10.2759 4.07477C10.1438 4.00231 10.0008 3.94035 9.84673 3.88756C9.80866 3.87449 9.76941 3.8619 9.7298 3.84968Z" fill="#22284F"/>
<path fill-rule="evenodd" clip-rule="evenodd" d="M4.60563 4.08862C4.6314 3.91718 4.73769 3.77715 4.88086 3.70652C4.94624 3.67414 5.01835 3.6563 5.09484 3.6563H8.19788C8.56544 3.6563 8.90864 3.68123 9.22182 3.73353C9.31132 3.74831 9.39821 3.76542 9.4831 3.7846C9.56751 3.80415 9.64979 3.82603 9.7296 3.84998C9.7692 3.8622 9.80845 3.8749 9.84687 3.88749C10.0009 3.94028 10.1441 4.00272 10.2761 4.07469C10.4315 3.05082 10.2748 2.3537 9.73929 1.72245C9.14876 1.0274 8.08308 0.72998 6.71937 0.72998H2.76027C2.48173 0.72998 2.2441 0.9393 2.20107 1.22426L0.552072 12.0279C0.51956 12.2416 0.679045 12.4344 0.887593 12.4344H3.33176L4.60563 4.08862Z" fill="#28356A"/>
</svg>
