<svg width="20" height="20" viewBox="0 0 20 20" fill="none" xmlns="http://www.w3.org/2000/svg">
<rect width="20" height="20" rx="10" fill="#19A463"/>
<path d="M9.26562 11.8848C9.26172 11.7441 9.25977 11.6387 9.25977 11.5684C9.25977 11.1582 9.31836 10.8008 9.43555 10.4961C9.52539 10.2656 9.66406 10.0371 9.85156 9.81055C9.95312 9.68945 10.2129 9.44141 10.6309 9.06641C10.9824 8.75391 11.2129 8.50195 11.3223 8.31055C11.4316 8.11523 11.4863 7.9043 11.4863 7.67773C11.4863 7.24023 11.3203 6.87305 10.9883 6.57617C10.6562 6.2793 10.2695 6.13086 9.82812 6.13086C8.86719 6.13086 8.29492 6.71094 8.11133 7.87109L7.02734 7.74219C7.125 6.94531 7.41211 6.33398 7.88867 5.9082C8.36914 5.47852 9.00977 5.26367 9.81055 5.26367C10.5605 5.26367 11.1953 5.46289 11.7148 5.86133C12.2852 6.29492 12.5703 6.87695 12.5703 7.60742C12.5703 8.04883 12.4414 8.45898 12.1836 8.83789C12.0039 9.09961 11.7012 9.41992 11.2754 9.79883C10.998 10.041 10.8145 10.2148 10.7246 10.3203C10.5488 10.5234 10.4297 10.7402 10.3672 10.9707C10.3164 11.1582 10.2871 11.4629 10.2793 11.8848H9.26562ZM9.20117 14V12.7988H10.4023V14H9.20117Z" fill="white"/>
</svg>
