<svg width="194" height="29" viewBox="0 0 194 29" fill="none" xmlns="http://www.w3.org/2000/svg">
<path d="M9.8 17.16H6.8V28H0.92V0.319999H9.56C13.2667 0.319999 16.0533 1.01333 17.92 2.4C19.7867 3.76 20.72 5.82667 20.72 8.6C20.72 10.4133 20.2667 11.9067 19.36 13.08C18.48 14.2533 17.1067 15.2533 15.24 16.08L22.4 28H15.72L9.8 17.16ZM6.8 13H9.88C11.4533 13 12.64 12.6533 13.44 11.96C14.24 11.24 14.64 10.12 14.64 8.6C14.64 7.18667 14.2133 6.16 13.36 5.52C12.5333 4.85333 11.2267 4.52 9.44 4.52H6.8V13ZM33.8997 6.16C37.073 6.16 39.553 7.16 41.3397 9.16C43.1264 11.1333 44.0197 13.88 44.0197 17.4C44.0197 19.64 43.6064 21.6133 42.7797 23.32C41.9797 25 40.8064 26.3067 39.2597 27.24C37.7397 28.1733 35.9397 28.64 33.8597 28.64C30.6864 28.64 28.193 27.6533 26.3797 25.68C24.593 23.68 23.6997 20.92 23.6997 17.4C23.6997 15.16 24.0997 13.2 24.8997 11.52C25.7264 9.81333 26.8997 8.49333 28.4197 7.56C29.9664 6.62667 31.793 6.16 33.8997 6.16ZM33.8997 10.4C32.4597 10.4 31.3797 10.9733 30.6597 12.12C29.9664 13.24 29.6197 15 29.6197 17.4C29.6197 19.8 29.9664 21.5733 30.6597 22.72C31.3797 23.84 32.4464 24.4 33.8597 24.4C35.273 24.4 36.3264 23.84 37.0197 22.72C37.7397 21.5733 38.0997 19.8 38.0997 17.4C38.0997 15 37.753 13.24 37.0597 12.12C36.3664 10.9733 35.313 10.4 33.8997 10.4ZM57.2591 6.16C60.4324 6.16 62.9124 7.16 64.6991 9.16C66.4857 11.1333 67.3791 13.88 67.3791 17.4C67.3791 19.64 66.9657 21.6133 66.1391 23.32C65.3391 25 64.1657 26.3067 62.6191 27.24C61.0991 28.1733 59.2991 28.64 57.2191 28.64C54.0457 28.64 51.5524 27.6533 49.7391 25.68C47.9524 23.68 47.0591 20.92 47.0591 17.4C47.0591 15.16 47.4591 13.2 48.2591 11.52C49.0857 9.81333 50.2591 8.49333 51.7791 7.56C53.3257 6.62667 55.1524 6.16 57.2591 6.16ZM57.2591 10.4C55.8191 10.4 54.7391 10.9733 54.0191 12.12C53.3257 13.24 52.9791 15 52.9791 17.4C52.9791 19.8 53.3257 21.5733 54.0191 22.72C54.7391 23.84 55.8057 24.4 57.2191 24.4C58.6324 24.4 59.6857 23.84 60.3791 22.72C61.0991 21.5733 61.4591 19.8 61.4591 17.4C61.4591 15 61.1124 13.24 60.4191 12.12C59.7257 10.9733 58.6724 10.4 57.2591 10.4ZM94.5384 6.16C96.2184 6.16 97.5651 6.73333 98.5784 7.88C99.6184 9.02667 100.138 10.5867 100.138 12.56V28H94.4584V13.52C94.4584 11.44 93.7651 10.4 92.3784 10.4C91.6318 10.4 90.9784 10.6533 90.4184 11.16C89.8584 11.64 89.2984 12.3733 88.7384 13.36V28H83.0584V13.52C83.0584 11.44 82.3651 10.4 80.9784 10.4C80.2318 10.4 79.5651 10.6533 78.9784 11.16C78.4184 11.64 77.8584 12.3733 77.2984 13.36V28H71.6184V6.8H76.5784L76.9784 9.48C78.6051 7.26667 80.6584 6.16 83.1384 6.16C84.3384 6.16 85.3784 6.46667 86.2584 7.08C87.1384 7.66667 87.7918 8.52 88.2184 9.64C89.0718 8.49333 90.0051 7.62667 91.0184 7.04C92.0318 6.45333 93.2051 6.16 94.5384 6.16ZM128.249 6.16C129.929 6.16 131.276 6.73333 132.289 7.88C133.329 9.02667 133.849 10.5867 133.849 12.56V28H128.169V13.52C128.169 11.44 127.476 10.4 126.089 10.4C125.343 10.4 124.689 10.6533 124.129 11.16C123.569 11.64 123.009 12.3733 122.449 13.36V28H116.769V13.52C116.769 11.44 116.076 10.4 114.689 10.4C113.943 10.4 113.276 10.6533 112.689 11.16C112.129 11.64 111.569 12.3733 111.009 13.36V28H105.329V6.8H110.289L110.689 9.48C112.316 7.26667 114.369 6.16 116.849 6.16C118.049 6.16 119.089 6.46667 119.969 7.08C120.849 7.66667 121.503 8.52 121.929 9.64C122.783 8.49333 123.716 7.62667 124.729 7.04C125.743 6.45333 126.916 6.16 128.249 6.16ZM155.32 22.12C155.32 22.9467 155.44 23.56 155.68 23.96C155.92 24.3333 156.32 24.6133 156.88 24.8L155.68 28.56C154.427 28.4533 153.4 28.16 152.6 27.68C151.827 27.2 151.227 26.4533 150.8 25.44C149.414 27.5733 147.294 28.64 144.44 28.64C142.334 28.64 140.654 28.04 139.4 26.84C138.174 25.6133 137.56 24.0267 137.56 22.08C137.56 19.76 138.4 17.9867 140.08 16.76C141.76 15.5333 144.174 14.92 147.32 14.92H149.76V13.88C149.76 12.5733 149.467 11.6667 148.88 11.16C148.294 10.6533 147.32 10.4 145.96 10.4C144.467 10.4 142.6 10.7733 140.36 11.52L139.08 7.72C141.72 6.68 144.334 6.16 146.92 6.16C149.8 6.16 151.92 6.78667 153.28 8.04C154.64 9.26667 155.32 11.1067 155.32 13.56V22.12ZM146 24.56C147.6 24.56 148.854 23.7733 149.76 22.2V18.16H147.88C144.814 18.16 143.28 19.3067 143.28 21.6C143.28 22.5333 143.507 23.2667 143.96 23.8C144.44 24.3067 145.12 24.56 146 24.56ZM173.675 27C172.902 27.5333 172.022 27.9333 171.035 28.2C170.075 28.4933 169.115 28.64 168.155 28.64C165.969 28.6133 164.315 27.9867 163.195 26.76C162.075 25.5333 161.515 23.7333 161.515 21.36V10.8H158.355V6.8H161.515V2.16L167.195 1.48V6.8H172.075L171.515 10.8H167.195V21.24C167.195 22.2533 167.369 22.9867 167.715 23.44C168.062 23.8933 168.595 24.12 169.315 24.12C170.035 24.12 170.835 23.88 171.715 23.4L173.675 27ZM193.447 16.92C193.447 17.1867 193.407 17.92 193.327 19.12H180.087C180.273 21.04 180.793 22.4 181.647 23.2C182.5 24 183.66 24.4 185.127 24.4C186.033 24.4 186.887 24.2533 187.687 23.96C188.487 23.6667 189.353 23.2 190.287 22.56L192.647 25.76C190.273 27.68 187.593 28.64 184.607 28.64C181.273 28.64 178.713 27.64 176.927 25.64C175.14 23.64 174.247 20.9333 174.247 17.52C174.247 15.36 174.62 13.4267 175.367 11.72C176.14 9.98667 177.247 8.62667 178.687 7.64C180.153 6.65333 181.887 6.16 183.887 6.16C186.9 6.16 189.247 7.10667 190.927 9C192.607 10.8933 193.447 13.5333 193.447 16.92ZM187.807 15.32C187.807 11.8 186.54 10.04 184.007 10.04C182.833 10.04 181.913 10.48 181.247 11.36C180.607 12.2133 180.22 13.6133 180.087 15.56H187.807V15.32Z" fill="#19A463"/>
</svg>
