<svg width="24" height="24" viewBox="0 0 24 24" fill="none" xmlns="http://www.w3.org/2000/svg">
<path d="M12 21.25H7C3.35 21.25 1.25 19.15 1.25 15.5V8.5C1.25 4.85 3.35 2.75 7 2.75H17C20.65 2.75 22.75 4.85 22.75 8.5V11.5C22.75 11.91 22.41 12.25 22 12.25C21.59 12.25 21.25 11.91 21.25 11.5V8.5C21.25 5.64 19.86 4.25 17 4.25H7C4.14 4.25 2.75 5.64 2.75 8.5V15.5C2.75 18.36 4.14 19.75 7 19.75H12C12.41 19.75 12.75 20.09 12.75 20.5C12.75 20.91 12.41 21.25 12 21.25Z" fill="white"/>
<path d="M12.0008 12.87C11.1608 12.87 10.3108 12.61 9.66076 12.08L6.53075 9.57996C6.21075 9.31996 6.15076 8.84997 6.41076 8.52997C6.67076 8.20997 7.14075 8.15997 7.46075 8.40997L10.5908 10.91C11.3508 11.52 12.6407 11.52 13.4007 10.91L16.5308 8.40997C16.8508 8.14997 17.3207 8.19997 17.5807 8.52997C17.8407 8.84997 17.7907 9.32996 17.4607 9.57996L14.3307 12.08C13.6907 12.61 12.8408 12.87 12.0008 12.87Z" fill="white"/>
<path d="M15.8196 21.7799C15.4396 21.7799 15.0796 21.6399 14.8196 21.3799C14.5096 21.0699 14.3696 20.6199 14.4396 20.1499L14.6296 18.7998C14.6796 18.4498 14.8896 18.0299 15.1396 17.7799L18.6796 14.2399C19.1596 13.7599 19.6296 13.5099 20.1396 13.4599C20.7596 13.3999 21.3796 13.6599 21.9596 14.2399C22.5396 14.8199 22.7996 15.4299 22.7396 16.0599C22.6896 16.5599 22.4296 17.0399 21.9596 17.5199L18.4196 21.0599C18.1696 21.3099 17.7496 21.5199 17.3996 21.5699L16.0495 21.7599C15.9695 21.7699 15.8996 21.7799 15.8196 21.7799ZM20.3096 14.9499C20.2996 14.9499 20.2896 14.9499 20.2796 14.9499C20.1396 14.9599 19.9496 15.0898 19.7396 15.2998L16.1996 18.8399C16.1696 18.8699 16.1196 18.9699 16.1196 19.0099L15.9396 20.2599L17.1896 20.0798C17.2296 20.0698 17.3295 20.0199 17.3595 19.9899L20.8996 16.4499C21.1096 16.2299 21.2396 16.0499 21.2496 15.9099C21.2696 15.7099 21.0696 15.4698 20.8996 15.2998C20.7396 15.1398 20.5096 14.9499 20.3096 14.9499Z" fill="white"/>
<path d="M20.9206 18.2499C20.8506 18.2499 20.7806 18.2399 20.7206 18.2199C19.4006 17.8499 18.3506 16.7999 17.9806 15.4799C17.8706 15.0799 18.1006 14.6699 18.5006 14.5499C18.9006 14.4399 19.3106 14.6699 19.4206 15.0699C19.6506 15.8899 20.3006 16.5399 21.1206 16.7699C21.5206 16.8799 21.7506 17.2999 21.6406 17.6999C21.5506 18.0299 21.2506 18.2499 20.9206 18.2499Z" fill="white"/>
</svg>
