<svg width="32" height="32" viewBox="0 0 32 32" fill="none" xmlns="http://www.w3.org/2000/svg">
<path d="M16 6.48571C10.8071 6.48571 6.58571 10.7071 6.57857 15.9C6.57857 17.6786 7.07857 19.4143 8.02143 20.9071L8.24286 21.2643L7.29286 24.7357L10.8571 23.8L11.2 24.0071C12.6429 24.8643 14.3 25.3214 15.9929 25.3214H16C21.1857 25.3214 25.5214 21.1 25.5214 15.9071C25.5214 13.3929 24.4357 11.0286 22.6571 9.25C20.8714 7.46429 18.5143 6.48571 16 6.48571ZM21.5357 19.9429C21.3 20.6071 20.1714 21.2071 19.6286 21.2857C18.7286 21.4214 18.0286 21.35 16.2357 20.5786C13.4 19.35 11.5429 16.4929 11.4 16.3071C11.2571 16.1214 10.2429 14.7714 10.2429 13.3786C10.2429 11.9857 10.9714 11.3 11.2357 11.0143C11.4929 10.7286 11.8 10.6571 11.9929 10.6571C12.1786 10.6571 12.3714 10.6571 12.5357 10.6643C12.7071 10.6714 12.9429 10.6 13.1714 11.15C13.4071 11.7143 13.9714 13.1071 14.0429 13.25C14.1143 13.3929 14.1643 13.5571 14.0643 13.7429C13.5214 14.8286 12.9429 14.7857 13.2357 15.2857C14.3286 17.1643 15.4214 17.8143 17.0857 18.65C17.3714 18.7929 17.5357 18.7714 17.7 18.5786C17.8643 18.3929 18.4071 17.75 18.5929 17.4714C18.7786 17.1857 18.9714 17.2357 19.2286 17.3286C19.4857 17.4214 20.8786 18.1071 21.1643 18.25C21.45 18.3929 21.6357 18.4643 21.7071 18.5786C21.7714 18.7143 21.7714 19.2857 21.5357 19.9429ZM28.5714 0H3.42857C1.53571 0 0 1.53571 0 3.42857V28.5714C0 30.4643 1.53571 32 3.42857 32H28.5714C30.4643 32 32 30.4643 32 28.5714V3.42857C32 1.53571 30.4643 0 28.5714 0ZM15.9929 27.2286C14.0929 27.2286 12.2286 26.75 10.5786 25.85L4.57143 27.4286L6.17857 21.5571C5.18571 19.8429 4.66429 17.8929 4.66429 15.8929C4.67143 9.65 9.75 4.57143 15.9929 4.57143C19.0214 4.57143 21.8643 5.75 24.0071 7.89286C26.1429 10.0357 27.4286 12.8786 27.4286 15.9071C27.4286 22.15 22.2357 27.2286 15.9929 27.2286Z" fill="#60D668"/>
</svg>
