<svg width="34" height="24" viewBox="0 0 34 24" fill="none" xmlns="http://www.w3.org/2000/svg">
<rect x="0.5" y="0.5" width="33" height="23" rx="3.5" fill="white"/>
<rect x="0.5" y="0.5" width="33" height="23" rx="3.5" stroke="#F9F7F6"/>
<path fill-rule="evenodd" clip-rule="evenodd" d="M10.7501 15.8583H8.69031L7.14576 9.79247C7.07245 9.51344 6.91679 9.26676 6.68782 9.1505C6.11639 8.85833 5.48672 8.6258 4.7998 8.50853V8.27499H8.11789C8.57583 8.27499 8.91929 8.6258 8.97653 9.03323L9.77793 13.4087L11.8367 8.27499H13.8392L10.7501 15.8583ZM14.984 15.8583H13.0388L14.6406 8.27499H16.5858L14.984 15.8583ZM19.1025 10.3758C19.1597 9.96738 19.5032 9.73384 19.9039 9.73384C20.5336 9.6752 21.2195 9.79248 21.7919 10.0836L22.1354 8.45091C21.5629 8.21737 20.9333 8.1001 20.3619 8.1001C18.4738 8.1001 17.1 9.1505 17.1 10.6083C17.1 11.7174 18.0731 12.2997 18.7601 12.6505C19.5032 13.0003 19.7894 13.2338 19.7322 13.5836C19.7322 14.1083 19.1597 14.3419 18.5883 14.3419C17.9014 14.3419 17.2145 14.167 16.5858 13.8748L16.2424 15.5086C16.9293 15.7997 17.6724 15.917 18.3594 15.917C20.4763 15.9746 21.7919 14.9252 21.7919 13.3501C21.7919 11.3666 19.1025 11.2503 19.1025 10.3758ZM28.5998 15.8583L27.0553 8.27499H25.3962C25.0528 8.27499 24.7093 8.50853 24.5948 8.85833L21.7347 15.8583H23.7372L24.1369 14.7503H26.5973L26.8263 15.8583H28.5998ZM25.6824 10.3172L26.2539 13.1752H24.6521L25.6824 10.3172Z" fill="#172B85"/>
</svg>
