<svg width="25" height="24" viewBox="0 0 25 24" fill="none" xmlns="http://www.w3.org/2000/svg">
<path fill-rule="evenodd" clip-rule="evenodd" d="M12.5 2C6.977 2 2.5 6.477 2.5 12C2.5 13.89 3.025 15.66 3.938 17.168L3.046 20.2C2.99478 20.3741 2.99141 20.5588 3.03624 20.7346C3.08107 20.9104 3.17245 21.0709 3.30076 21.1992C3.42907 21.3276 3.58958 21.4189 3.76542 21.4638C3.94125 21.5086 4.12592 21.5052 4.3 21.454L7.332 20.562C8.89068 21.5051 10.6782 22.0025 12.5 22C18.023 22 22.5 17.523 22.5 12C22.5 6.477 18.023 2 12.5 2ZM10.238 14.263C12.261 16.285 14.192 16.552 14.874 16.577C15.911 16.615 16.921 15.823 17.314 14.904C17.3636 14.7897 17.3816 14.6641 17.3661 14.5405C17.3507 14.4168 17.3023 14.2996 17.226 14.201C16.678 13.501 15.937 12.998 15.213 12.498C15.0618 12.3935 14.8761 12.3516 14.6947 12.381C14.5133 12.4105 14.3503 12.509 14.24 12.656L13.64 13.571C13.6085 13.6202 13.5593 13.6555 13.5026 13.6696C13.4459 13.6837 13.3859 13.6756 13.335 13.647C12.928 13.414 12.335 13.018 11.909 12.592C11.483 12.166 11.111 11.6 10.902 11.219C10.8761 11.1706 10.8686 11.1144 10.8809 11.0609C10.8932 11.0074 10.9245 10.9602 10.969 10.928L11.893 10.242C12.0249 10.1273 12.11 9.9682 12.1321 9.79486C12.1542 9.62153 12.1118 9.44611 12.013 9.302C11.565 8.646 11.043 7.812 10.286 7.259C10.1883 7.1882 10.0739 7.14406 9.95393 7.13091C9.834 7.11776 9.71271 7.13606 9.602 7.184C8.682 7.578 7.886 8.588 7.924 9.627C7.949 10.309 8.216 12.24 10.238 14.263Z" fill="#19A463"/>
</svg>
